{
.appVersion = "3151";
.formatVersion = 3;
axes = (
{
name = Weight;
tag = wght;
},
{
name = Italic;
tag = ital;
}
);
classes = (
{
automatic = 1;
code = "A Aacute Abreve Acircumflex Adieresis Agrave Amacron Aogonek Aring Atilde AE B C Cacute Ccaron Ccedilla D Eth Dcaron Dcroat E Eacute Ecaron Ecircumflex Edieresis Edotaccent Egrave Emacron Eogonek Schwa F G Gbreve Gcommaaccent H I Iacute Icircumflex Idieresis Idotaccent Igrave Imacron Iogonek J K Kcommaaccent L Lacute Lcaron Lcommaaccent Lslash M N Nacute Ncaron Ncommaaccent Ntilde O Oacute Ocircumflex Odieresis Ograve Ohungarumlaut Omacron Oslash Otilde OE P Thorn Q R Racute Rcaron Rcommaaccent S Sacute Scaron Scedilla Scommaaccent Germandbls T Tcaron Tcedilla Tcommaaccent U Uacute Ucircumflex Udieresis Ugrave Uhungarumlaut Umacron Uogonek Uring V W X Y Yacute Ydieresis Z Zacute Zcaron Zdotaccent";
name = Uppercase;
}
);
customParameters = (
{
name = "Use Typo Metrics";
value = 1;
},
{
name = fsType;
value = (
);
},
{
name = "Write lastChange";
value = 0;
},
{
name = "Write DisplayStrings";
value = 0;
}
);
date = "2021-10-14 10:00:00 +0000";
familyName = CLTdotCom;
featurePrefixes = (
{
automatic = 1;
code = "languagesystem DFLT dflt;

languagesystem latn dflt;
languagesystem latn AZE;
languagesystem latn CRT;
languagesystem latn KAZ;
languagesystem latn TAT;
languagesystem latn TRK;
languagesystem latn ROM;
languagesystem latn MOL;
";
name = Languagesystems;
}
);
features = (
{
automatic = 1;
code = "feature locl;
feature sups;
feature frac;
feature ordn;
feature case;
feature subs;
feature sinf;
";
tag = aalt;
},
{
automatic = 1;
code = "lookup ccmp_Other_1 {
	@CombiningTopAccents = [acutecomb brevecomb caroncomb circumflexcomb commaturnedabovecomb dieresiscomb dotaccentcomb gravecomb hungarumlautcomb macroncomb ringcomb tildecomb];
	@CombiningNonTopAccents = [cedillacomb ogonekcomb];
	sub [i j]' @CombiningTopAccents by [idotless jdotless];

glyphs = (
{
glyphname = A;
layers = (
{
anchors = (
{
name = ogonek;
pos = (622,12);
},
{
name = top;
pos = (318,700);
}
);
layerId = m01;
shapes = (
{
closed = 1;
nodes = (
(104,0,l),
(318,620,l),
(310,620,l),
(532,0,l),
(634,0,l),
(370,700,l),
(270,700,l),
(12,0,l)
);
},
{
closed = 1;
nodes = (
(470,195,l),
(470,269,l),
(164,269,l),
(164,195,l)
);
}
);
width = 646;
},
{
anchors = (
{
name = ogonek;
pos = (644,12);
},
{
name = top;
pos = (327,700);
}
);
layerId = "E9FB66CC-5D7A-47B2-9A25-A0E8EEF5BB81";
shapes = (
{
closed = 1;
nodes = (
(149,0,l),
(326,556,l),
(318,556,l),
(500,0,l),
(656,0,l),
(409,700,l),
(255,700,l),
(8,0,l)
);
},
{
closed = 1;
nodes = (
(451,174,l),
(451,271,l),
(197,271,l),
(197,174,l)
);
}
);
width = 664;
}
);
metricRight = "=|";
unicode = 65;
userData = {
KernOnName = A;
};
},
{
glyphname = AE;
layers = (
{
layerId = m01;
shapes = (
{
closed = 1;
nodes = (
(892,0,l),
(892,76,l),
(518,76,l),
(530,64,l),
(530,637,l),
(518,625,l),
(884,625,l),
(884,700,l),
(408,700,l),
(-24,0,l),
(84,0,l),
(450,624,l),
(434,624,l),
(434,0,l)
);
},
{
closed = 1;
nodes = (
(852,323,l),
(852,397,l),
(518,397,l),
(518,323,l)
);
},
{
closed = 1;
nodes = (
(446,205,l),
(446,278,l),
(190,278,l),
(190,205,l)
);
}
);
width = 934;
},
{
associatedMasterId = m01;
layerId = "D31711CA-05EE-4EB0-AA33-8D1A5EFDCDD1";
width = 600;
},
{
associatedMasterId = m01;
layerId = "2743AE31-5E10-493A-AAF8-244AFE4C878D";
width = 767;
},
{
layerId = "E9FB66CC-5D7A-47B2-9A25-A0E8EEF5BB81";
width = 767;
}
);
metricRight = E;
unicode = 198;
},
{
glyphname = B;
layers = (
{
layerId = m01;
shapes = (
{
closed = 1;
nodes = (
(378,0,ls),
(515,0,o),
(600,76,o),
(600,192,cs),
(600,296,o),
(528,370,o),
(412,372,c),
(412,360,l),
(510,368,o),
(576,433,o),
(576,524,cs),
(576,630,o),
(492,700,o),
(366,700,cs),
(82,700,l),
(82,0,l)
);
},
{
closed = 1;
nodes = (
(178,637,l),
(166,625,l),
(354,625,ls),
(430,625,o),
(476,582,o),
(476,512,cs),
(476,441,o),
(429,397,o),
(352,397,cs),
(166,397,l),
(166,323,l),
(372,323,ls),
(450,323,o),
(498,276,o),
(498,200,cs),
(498,123,o),
(449,76,o),
(370,76,cs),
(166,76,l),
(178,64,l)
);
}
);
width = 636;
},
{
layerId = "E9FB66CC-5D7A-47B2-9A25-A0E8EEF5BB81";
shapes = (
{
closed = 1;
nodes = (
(396,0,ls),
(528,0,o),
(616,80,o),
(616,192,cs),
(616,296,o),
(540,372,o),
(424,372,c),
(424,364,l),
(520,372,o),
(588,432,o),
(588,524,cs),
(588,628,o),
(504,700,o),
(380,700,cs),
(72,700,l),
(72,0,l)
);
},
{
closed = 1;
nodes = (
(218,600,l),
(208,590,l),
(356,590,ls),
(406,590,o),
(438,557,o),
(438,504,cs),
(438,449,o),
(405,415,o),
(352,415,cs),
(208,415,l),
(208,306,l),
(370,306,ls),
(427,306,o),
(462,269,o),
(462,210,cs),
(462,149,o),
(425,111,o),
(366,111,cs),
(208,111,l),
(218,101,l)
);
}
);
width = 644;
}
);
metricLeft = H;
unicode = 66;
userData = {
KernOnName = B;
};
},
{
glyphname = C;
layers = (
{
anchors = (
{
name = bottom;
pos = (376,0);
},
{
name = top;
pos = (370,700);
}
);
layerId = m01;
shapes = (
{
closed = 1;
nodes = (
(518,-12,o),
(634,80,o),
(662,224,c),
(566,252,l),
(550,137,o),
(473,66,o),
(366,66,cs),
(231,66,o),
(150,178,o),
(150,354,cs),
(150,527,o),
(234,636,o),
(368,636,cs),
(466,636,o),
(540,574,o),
(560,476,c),
(650,504,l),
(618,632,o),
(506,712,o),
(364,712,cs),
(176,712,o),
(48,568,o),
(48,352,cs),
(48,132,o),
(174,-12,o),
(366,-12,cs)
);
}
);
width = 680;
},
{
anchors = (
{
name = bottom;
pos = (349,0);
},
{
name = top;
pos = (359,700);
}
);
associatedMasterId = m01;
layerId = "1DC20F8F-987D-4BE4-9DF3-F6F99963ED43";
name = "12 set 22, 21:47";
shapes = (
{
closed = 1;
nodes = (
(503,-12,o),
(629,84,o),
(657,220,c),
(569,260,l),
(553,140,o),
(475,66,o),
(367,66,cs),
(235,66,o),
(149,176,o),
(149,348,cs),
(149,524,o),
(233,636,o),
(365,636,cs),
(465,636,o),
(543,572,o),
(567,468,c),
(647,512,l),
(619,628,o),
(501,712,o),
(365,712,cs),
(179,712,o),
(47,561,o),
(47,348,cs),
(47,137,o),
(176,-12,o),
(359,-12,cs)
);
}
);
width = 692;
},
{
anchors = (
{
name = bottom;
pos = (384,0);
},
{
name = top;
pos = (380,700);
}
);
layerId = "E9FB66CC-5D7A-47B2-9A25-A0E8EEF5BB81";
shapes = (
{
closed = 1;
nodes = (
(532,-12,o),
(660,92,o),
(684,244,c),
(536,296,l),
(524,176,o),
(459,100,o),
(368,100,cs),
(264,100,o),
(198,198,o),
(198,354,cs),
(198,506,o),
(264,602,o),
(370,602,cs),
(451,602,o),
(512,544,o),
(528,448,c),
(672,492,l),
(642,622,o),
(520,712,o),
(372,712,cs),
(180,712,o),
(44,564,o),
(44,352,cs),
(44,138,o),
(179,-12,o),
(372,-12,cs)
);
}
);
width = 700;
}
);
metricLeft = O;
unicode = 67;
},
{
glyphname = D;
layers = (
{
anchors = (
{
name = top;
pos = (328,700);
}
);
layerId = m01;
shapes = (
{
closed = 1;
nodes = (
(332,0,ls),
(531,0,o),
(664,142,o),
(664,354,cs),
(664,562,o),
(533,700,o),
(336,700,cs),
(82,700,l),
(82,0,l)
);
},
{
closed = 1;
nodes = (
(178,634,l),
(170,626,l),
(322,626,ls),
(471,626,o),
(562,522,o),
(562,352,cs),
(562,181,o),
(472,76,o),
(324,76,cs),
(170,76,l),
(178,68,l)
);
}
);
width = 712;
},
{
anchors = (
{
name = top;
pos = (337,700);
}
);
layerId = "E9FB66CC-5D7A-47B2-9A25-A0E8EEF5BB81";
shapes = (
{
closed = 1;
nodes = (
(338,0,ls),
(542,0,o),
(676,142,o),
(676,354,cs),
(676,562,o),
(543,700,o),
(342,700,cs),
(72,700,l),
(72,0,l)
);
},
{
closed = 1;
nodes = (
(218,597,l),
(210,589,l),
(331,589,ls),
(450,589,o),
(522,499,o),
(522,351,cs),
(522,203,o),
(450,113,o),
(330,113,cs),
(210,113,l),
(218,105,l)
);
}
);
width = 720;
}
);
metricLeft = H;
metricRight = O;
unicode = 68;
},
{
glyphname = Eth;
layers = (
{
layerId = m01;
shapes = (
{
pos = (-4,0);
ref = D;
},
{
closed = 1;
nodes = (
(298,351,l),
(298,421,l),
(-22,421,l),
(-22,351,l)
);
}
);
width = 708;
},
{
associatedMasterId = m01;
layerId = "D31711CA-05EE-4EB0-AA33-8D1A5EFDCDD1";
width = 600;
},
{
associatedMasterId = m01;
layerId = "2743AE31-5E10-493A-AAF8-244AFE4C878D";
width = 654;
},
{
layerId = "E9FB66CC-5D7A-47B2-9A25-A0E8EEF5BB81";
width = 654;
}
);
metricRight = O;
unicode = 208;
},
{
glyphname = E;
layers = (
{
anchors = (
{
name = ogonek;
pos = (546,12);
},
{
name = top;
pos = (322,700);
}
);
layerId = m01;
shapes = (
{
closed = 1;
nodes = (
(558,0,l),
(558,76,l),
(170,76,l),
(178,68,l),
(178,633,l),
(170,625,l),
(550,625,l),
(550,700,l),
(82,700,l),
(82,0,l)
);
},
{
closed = 1;
nodes = (
(516,323,l),
(516,397,l),
(170,397,l),
(170,323,l)
);
}
);
width = 600;
},
{
anchors = (
{
name = ogonek;
pos = (554,12);
},
{
name = top;
pos = (327,700);
}
);
layerId = "E9FB66CC-5D7A-47B2-9A25-A0E8EEF5BB81";
shapes = (
{
closed = 1;
nodes = (
(566,0,l),
(566,111,l),
(208,111,l),
(218,101,l),
(218,600,l),
(208,590,l),
(559,590,l),
(559,700,l),
(72,700,l),
(72,0,l)
);
},
{
closed = 1;
nodes = (
(526,306,l),
(526,415,l),
(208,415,l),
(208,306,l)
);
}
);
width = 604;
}
);
metricLeft = H;
unicode = 69;
userData = {
KernOnName = E;
};
},
{
glyphname = Schwa;
layers = (
{
layerId = m01;
shapes = (
{
closed = 1;
nodes = (
(540,-12,o),
(668,132,o),
(668,348,cs),
(668,566,o),
(538,712,o),
(344,712,cs),
(196,712,o),
(82,628,o),
(50,500,c),
(150,476,l),
(172,575,o),
(247,636,o),
(346,636,cs),
(482,636,o),
(566,527,o),
(566,348,cs),
(566,173,o),
(484,66,o),
(351,66,cs),
(225,66,o),
(146,151,o),
(144,303,c),
(129,290,l),
(578,290,l),
(578,366,l),
(42,366,l),
(34,139,o),
(157,-12,o),
(349,-12,cs)
);
}
);
width = 716;
},
{
associatedMasterId = m01;
layerId = "D31711CA-05EE-4EB0-AA33-8D1A5EFDCDD1";
width = 600;
},
{
associatedMasterId = m01;
layerId = "2743AE31-5E10-493A-AAF8-244AFE4C878D";
width = 658;
},
{
layerId = "E9FB66CC-5D7A-47B2-9A25-A0E8EEF5BB81";
width = 658;
}
);
metricRight = O;
unicode = 399;
},
{
glyphname = F;
layers = (
{
layerId = m01;
shapes = (
{
closed = 1;
nodes = (
(178,0,l),
(178,633,l),
(170,624,l),
(538,624,l),
(538,700,l),
(82,700,l),
(82,0,l)
);
},
{
closed = 1;
nodes = (
(478,320,l),
(478,396,l),
(170,396,l),
(170,320,l)
);
}
);
width = 552;
},
{
layerId = "E9FB66CC-5D7A-47B2-9A25-A0E8EEF5BB81";
shapes = (
{
closed = 1;
nodes = (
(218,0,l),
(218,598,l),
(210,589,l),
(554,589,l),
(554,700,l),
(72,700,l),
(72,0,l)
);
},
{
closed = 1;
nodes = (
(496,302,l),
(496,413,l),
(210,413,l),
(210,302,l)
);
}
);
width = 568;
}
);
metricLeft = H;
unicode = 70;
},
{
color = 3;
glyphname = G;
layers = (
{
anchors = (
{
name = bottom;
pos = (366,0);
},
{
name = top;
pos = (362,700);
}
);
layerId = m01;
shapes = (
{
closed = 1;
nodes = (
(496,-12,o),
(604,24,o),
(652,88,c),
(652,366,l),
(358,366,l),
(358,290,l),
(568,290,l),
(568,120,l),
(537,87,o),
(475,66,o),
(408,66,cs),
(250,66,o),
(150,179,o),
(150,360,cs),
(150,530,o),
(233,636,o),
(366,636,cs),
(460,636,o),
(534,580,o),
(554,484,c),
(646,508,l),
(618,633,o),
(505,712,o),
(368,712,cs),
(179,712,o),
(48,561,o),
(48,352,cs),
(48,136,o),
(188,-12,o),
(388,-12,cs)
);
}
);
width = 716;
},
{
anchors = (
{
name = bottom;
pos = (384,0);
},
{
name = top;
pos = (380,700);
}
);
layerId = "E9FB66CC-5D7A-47B2-9A25-A0E8EEF5BB81";
shapes = (
{
closed = 1;
nodes = (
(506,-12,o),
(623,39,o),
(672,112,c),
(672,384,l),
(360,384,l),
(360,272,l),
(544,272,l),
(544,164,l),
(513,125,o),
(454,100,o),
(392,100,cs),
(273,100,o),
(198,199,o),
(198,356,cs),
(198,507,o),
(264,602,o),
(368,602,cs),
(449,602,o),
(509,546,o),
(524,456,c),
(672,496,l),
(643,623,o),
(519,712,o),
(372,712,cs),
(179,712,o),
(44,563,o),
(44,352,cs),
(44,138,o),
(186,-12,o),
(388,-12,cs)
);
}
);
width = 728;
},
{
anchors = (
{
name = bottom;
pos = (366,0);
},
{
name = top;
pos = (362,700);
}
);
associatedMasterId = m01;
layerId = "04134514-C966-4C07-AAB4-F660239C0CCB";
name = "24 mar 23, 17:52";
shapes = (
{
closed = 1;
nodes = (
(652,0,l),
(652,366,l),
(358,366,l),
(358,290,l),
(568,290,l),
(568,151,o),
(493,66,o),
(370,66,cs),
(234,66,o),
(150,176,o),
(150,354,cs),
(150,529,o),
(232,636,o),
(366,636,cs),
(462,636,o),
(534,580,o),
(554,484,c),
(646,508,l),
(618,632,o),
(510,712,o),
(366,712,cs),
(175,712,o),
(48,566,o),
(48,348,cs),
(48,132,o),
(170,-12,o),
(354,-12,cs),
(482,-12,o),
(576,60,o),
(584,184,c),
(568,184,l),
(568,0,l)
);
}
);
width = 716;
}
);
metricLeft = O;
note = "Versione senza gamba?";
unicode = 71;
},
{
glyphname = H;
layers = (
{
layerId = m01;
shapes = (
{
closed = 1;
nodes = (
(626,0,l),
(626,700,l),
(530,700,l),
(530,0,l)
);
},
{
closed = 1;
nodes = (
(178,0,l),
(178,700,l),
(82,700,l),
(82,0,l)
);
},
{
closed = 1;
nodes = (
(542,330,l),
(542,406,l),
(166,406,l),
(166,330,l)
);
}
);
width = 708;
},
{
layerId = "E9FB66CC-5D7A-47B2-9A25-A0E8EEF5BB81";
shapes = (
{
closed = 1;
nodes = (
(646,0,l),
(646,700,l),
(500,700,l),
(500,0,l)
);
},
{
closed = 1;
nodes = (
(218,0,l),
(218,700,l),
(72,700,l),
(72,0,l)
);
},
{
closed = 1;
nodes = (
(512,306,l),
(512,418,l),
(206,418,l),
(206,306,l)
);
}
);
width = 718;
}
);
metricRight = "=|";
unicode = 72;
userData = {
KernOnName = H;
KernOnSpecialSpacing = {
};
};
},
{
glyphname = Hbar;
layers = (
{
layerId = m01;
shapes = (
{
pos = (4,0);
ref = H;
},
{
closed = 1;
nodes = (
(688,524,l),
(688,596,l),
(28,596,l),
(28,524,l)
);
}
);
width = 716;
},
{
layerId = "E9FB66CC-5D7A-47B2-9A25-A0E8EEF5BB81";
shapes = (
{
ref = H;
},
{
closed = 1;
nodes = (
(710,496,l),
(710,596,l),
(8,596,l),
(8,496,l)
);
}
);
width = 718;
}
);
unicode = 294;
},
{
glyphname = I;
layers = (
{
anchors = (
{
name = ogonek;
pos = (166,12);
},
{
name = top;
pos = (130,700);
}
);
layerId = m01;
shapes = (
{
closed = 1;
nodes = (
(178,0,l),
(178,700,l),
(82,700,l),
(82,0,l)
);
}
);
width = 260;
},
{
anchors = (
{
name = ogonek;
pos = (212,6);
},
{
name = top;
pos = (145,700);
}
);
layerId = "E9FB66CC-5D7A-47B2-9A25-A0E8EEF5BB81";
shapes = (
{
closed = 1;
nodes = (
(218,0,l),
(218,700,l),
(72,700,l),
(72,0,l)
);
}
);
width = 290;
}
);
metricLeft = H;
metricRight = H;
unicode = 73;
},
{
glyphname = J;
layers = (
{
layerId = m01;
shapes = (
{
closed = 1;
nodes = (
(370,-12,o),
(452,72,o),
(452,204,cs),
(452,700,l),
(356,700,l),
(356,200,ls),
(356,118,o),
(314,68,o),
(238,68,cs),
(150,68,o),
(106,133,o),
(110,240,c),
(14,228,l),
(10,80,o),
(94,-12,o),
(234,-12,cs)
);
}
);
width = 528;
},
{
associatedMasterId = m01;
layerId = "7D2DD99B-747F-4808-A78C-088070CAFE1C";
name = "14 gen 23, 11:52";
shapes = (
{
closed = 1;
nodes = (
(383,-12,o),
(470,78,o),
(470,212,cs),
(470,700,l),
(374,700,l),
(374,212,ls),
(374,123,o),
(329,68,o),
(255,68,cs),
(175,68,o),
(128,136,o),
(132,248,c),
(32,236,l),
(28,87,o),
(116,-12,o),
(252,-12,cs)
);
}
);
width = 540;
},
{
layerId = "E9FB66CC-5D7A-47B2-9A25-A0E8EEF5BB81";
shapes = (
{
closed = 1;
nodes = (
(397,-12,o),
(486,74,o),
(486,212,cs),
(486,700,l),
(340,700,l),
(340,208,ls),
(340,142,o),
(309,102,o),
(251,102,cs),
(181,102,o),
(147,161,o),
(153,260,c),
(8,236,l),
(4,82,o),
(96,-12,o),
(249,-12,cs)
);
}
);
width = 550;
}
);
unicode = 74;
},
{
glyphname = K;
layers = (
{
anchors = (
{
name = bottom;
pos = (350,0);
},
{
name = top;
pos = (320,700);
}
);
layerId = m01;
shapes = (
{
closed = 1;
nodes = (
(178,0,l),
(178,260,l),
(166,230,l),
(614,700,l),
(498,700,l),
(166,348,l),
(178,348,l),
(178,700,l),
(82,700,l),
(82,0,l)
);
},
{
closed = 1;
nodes = (
(638,0,l),
(324,424,l),
(260,356,l),
(520,0,l)
);
}
);
width = 624;
},
{
anchors = (
{
name = bottom;
pos = (372,0);
},
{
name = top;
pos = (344,700);
}
);
layerId = "E9FB66CC-5D7A-47B2-9A25-A0E8EEF5BB81";
shapes = (
{
closed = 1;
nodes = (
(218,0,l),
(218,226,l),
(206,190,l),
(672,700,l),
(504,700,l),
(206,364,l),
(218,364,l),
(218,700,l),
(72,700,l),
(72,0,l)
);
},
{
closed = 1;
nodes = (
(688,0,l),
(390,424,l),
(294,316,l),
(510,0,l)
);
}
);
width = 672;
}
);
metricLeft = H;
unicode = 75;
},
{
glyphname = L;
layers = (
{
anchors = (
{
name = bottom;
pos = (316,0);
},
{
name = top;
pos = (150,700);
},
{
name = topright;
pos = (224,548);
}
);
layerId = m01;
shapes = (
{
closed = 1;
nodes = (
(174,0,l),
(174,700,l),
(82,700,l),
(82,0,l)
);
},
{
closed = 1;
nodes = (
(522,0,l),
(522,82,l),
(166,82,l),
(166,0,l)
);
}
);
width = 536;
},
{
anchors = (
{
name = bottom;
pos = (319,0);
},
{
name = top;
pos = (166,700);
},
{
name = topright;
pos = (265,548);
}
);
layerId = "E9FB66CC-5D7A-47B2-9A25-A0E8EEF5BB81";
shapes = (
{
closed = 1;
nodes = (
(216,0,l),
(216,700,l),
(72,700,l),
(72,0,l)
);
},
{
closed = 1;
nodes = (
(534,0,l),
(534,118,l),
(208,118,l),
(208,0,l)
);
}
);
width = 548;
}
);
metricLeft = H;
unicode = 76;
},
{
glyphname = Lslash;
layers = (
{
layerId = m01;
shapes = (
{
pos = (36,0);
ref = L;
},
{
closed = 1;
nodes = (
(380,436,l),
(350,492,l),
(16,308,l),
(48,252,l)
);
}
);
width = 572;
},
{
associatedMasterId = m01;
layerId = "D31711CA-05EE-4EB0-AA33-8D1A5EFDCDD1";
width = 600;
},
{
associatedMasterId = m01;
layerId = "2743AE31-5E10-493A-AAF8-244AFE4C878D";
width = 586;
},
{
layerId = "E9FB66CC-5D7A-47B2-9A25-A0E8EEF5BB81";
width = 586;
}
);
metricRight = L;
unicode = 321;
},
{
glyphname = M;
layers = (
{
layerId = m01;
shapes = (
{
closed = 1;
nodes = (
(168,0,l),
(168,568,l),
(384,0,l),
(470,0,l),
(684,572,l),
(684,0,l),
(778,0,l),
(778,700,l),
(650,700,l),
(432,114,l),
(206,700,l),
(82,700,l),
(82,0,l)
);
}
);
width = 860;
},
{
layerId = "E9FB66CC-5D7A-47B2-9A25-A0E8EEF5BB81";
shapes = (
{
closed = 1;
nodes = (
(202,0,l),
(202,506,l),
(388,0,l),
(482,0,l),
(668,510,l),
(668,0,l),
(810,0,l),
(810,700,l),
(628,700,l),
(451,221,l),
(270,700,l),
(72,700,l),
(72,0,l)
);
}
);
width = 882;
}
);
metricLeft = H;
metricRight = H;
unicode = 77;
},
{
glyphname = N;
layers = (
{
anchors = (
{
name = bottom;
pos = (364,0);
},
{
name = top;
pos = (360,700);
}
);
layerId = m01;
shapes = (
{
closed = 1;
nodes = (
(170,0,l),
(170,578,l),
(524,0,l),
(634,0,l),
(634,700,l),
(546,700,l),
(546,136,l),
(200,700,l),
(82,700,l),
(82,0,l)
);
}
);
width = 716;
},
{
anchors = (
{
name = bottom;
pos = (371,0);
},
{
name = top;
pos = (367,700);
}
);
layerId = "E9FB66CC-5D7A-47B2-9A25-A0E8EEF5BB81";
shapes = (
{
closed = 1;
nodes = (
(204,0,l),
(204,497,l),
(501,0,l),
(658,0,l),
(658,700,l),
(526,700,l),
(526,224,l),
(243,700,l),
(72,700,l),
(72,0,l)
);
}
);
width = 730;
}
);
metricLeft = H;
metricRight = H;
unicode = 78;
},
{
glyphname = O;
layers = (
{
anchors = (
{
name = top;
pos = (372,700);
}
);
layerId = m01;
shapes = (
{
closed = 1;
nodes = (
(566,-12,o),
(696,133,o),
(696,350,cs),
(696,567,o),
(566,712,o),
(372,712,cs),
(178,712,o),
(48,567,o),
(48,350,cs),
(48,133,o),
(178,-12,o),
(372,-12,cs)
);
},
{
closed = 1;
nodes = (
(234,66,o),
(150,174,o),
(150,351,cs),
(150,528,o),
(234,636,o),
(372,636,cs),
(510,636,o),
(594,528,o),
(594,351,cs),
(594,174,o),
(510,66,o),
(372,66,cs)
);
}
);
width = 744;
},
{
anchors = (
{
name = top;
pos = (377,700);
}
);
layerId = "E9FB66CC-5D7A-47B2-9A25-A0E8EEF5BB81";
shapes = (
{
closed = 1;
nodes = (
(577,-12,o),
(710,133,o),
(710,350,cs),
(710,567,o),
(577,712,o),
(377,712,cs),
(177,712,o),
(44,567,o),
(44,350,cs),
(44,133,o),
(177,-12,o),
(377,-12,cs)
);
},
{
closed = 1;
nodes = (
(266,100,o),
(198,195,o),
(198,351,cs),
(198,507,o),
(266,602,o),
(377,602,cs),
(488,602,o),
(556,507,o),
(556,351,cs),
(556,195,o),
(488,100,o),
(377,100,cs)
);
}
);
width = 754;
}
);
metricRight = "=|";
unicode = 79;
userData = {
KernOnName = O;
};
},
{
glyphname = Oslash;
layers = (
{
layerId = m01;
shapes = (
{
closed = 1;
nodes = (
(572,742,l),
(504,768,l),
(168,-40,l),
(236,-68,l)
);
},
{
ref = O;
}
);
width = 744;
},
{
associatedMasterId = m01;
layerId = "D31711CA-05EE-4EB0-AA33-8D1A5EFDCDD1";
width = 600;
},
{
associatedMasterId = m01;
layerId = "2743AE31-5E10-493A-AAF8-244AFE4C878D";
width = 672;
},
{
layerId = "E9FB66CC-5D7A-47B2-9A25-A0E8EEF5BB81";
width = 672;
}
);
metricLeft = O;
metricRight = O;
unicode = 216;
},
{
glyphname = OE;
layers = (
{
layerId = m01;
shapes = (
{
closed = 1;
nodes = (
(1040,0,l),
(1040,76,l),
(666,76,l),
(678,64,l),
(678,637,l),
(666,625,l),
(1032,625,l),
(1032,700,l),
(582,700,l),
(582,0,l)
);
},
{
closed = 1;
nodes = (
(1000,323,l),
(1000,397,l),
(666,397,l),
(666,323,l)
);
},
{
closed = 1;
nodes = (
(549,-12,o),
(672,133,o),
(672,350,cs),
(672,567,o),
(549,712,o),
(364,712,cs),
(174,712,o),
(48,567,o),
(48,350,cs),
(48,133,o),
(174,-12,o),
(364,-12,cs)
);
},
{
closed = 1;
nodes = (
(231,66,o),
(150,174,o),
(150,351,cs),
(150,528,o),
(231,636,o),
(364,636,cs),
(497,636,o),
(578,528,o),
(578,351,cs),
(578,174,o),
(497,66,o),
(364,66,cs)
);
}
);
width = 1082;
},
{
associatedMasterId = m01;
layerId = "D31711CA-05EE-4EB0-AA33-8D1A5EFDCDD1";
width = 600;
},
{
associatedMasterId = m01;
layerId = "2743AE31-5E10-493A-AAF8-244AFE4C878D";
width = 841;
},
{
layerId = "E9FB66CC-5D7A-47B2-9A25-A0E8EEF5BB81";
width = 841;
}
);
metricLeft = O;
metricRight = E;
unicode = 338;
},
{
glyphname = P;
layers = (
{
layerId = m01;
shapes = (
{
closed = 1;
nodes = (
(178,0,l),
(178,632,l),
(170,624,l),
(348,624,ls),
(427,624,o),
(476,577,o),
(476,500,cs),
(476,421,o),
(427,372,o),
(346,372,cs),
(170,372,l),
(170,296,l),
(334,296,ls),
(479,296,o),
(576,378,o),
(576,500,cs),
(576,620,o),
(481,700,o),
(338,700,cs),
(82,700,l),
(82,0,l)
);
}
);
width = 596;
},
{
layerId = "E9FB66CC-5D7A-47B2-9A25-A0E8EEF5BB81";
shapes = (
{
closed = 1;
nodes = (
(218,0,l),
(218,597,l),
(210,589,l),
(332,589,ls),
(400,589,o),
(442,551,o),
(442,487,cs),
(442,423,o),
(400,383,o),
(331,383,cs),
(210,383,l),
(210,273,l),
(337,273,ls),
(491,273,o),
(596,359,o),
(596,488,cs),
(596,615,o),
(493,700,o),
(341,700,cs),
(72,700,l),
(72,0,l)
);
}
);
width = 612;
}
);
metricLeft = H;
unicode = 80;
userData = {
KernOnName = P;
};
},
{
glyphname = Thorn;
layers = (
{
layerId = m01;
shapes = (
{
closed = 1;
nodes = (
(178,0,l),
(178,154,l),
(166,142,l),
(342,142,ls),
(485,142,o),
(578,224,o),
(578,350,cs),
(578,469,o),
(487,546,o),
(346,546,cs),
(166,546,l),
(178,534,l),
(178,700,l),
(82,700,l),
(82,0,l)
);
},
{
closed = 1;
nodes = (
(178,482,l),
(166,470,l),
(336,470,ls),
(424,470,o),
(476,424,o),
(476,346,cs),
(476,266,o),
(423,218,o),
(334,218,cs),
(166,218,l),
(178,206,l)
);
}
);
width = 616;
},
{
associatedMasterId = m01;
layerId = "B69E3AF5-959A-4FAF-83E7-E5718DF89813";
name = "12 set 22, 23:53";
shapes = (
{
ref = I;
},
{
closed = 1;
nodes = (
(324,151,ls),
(462,151,o),
(560,236,o),
(560,356,cs),
(560,471,o),
(464,552,o),
(328,552,cs),
(140,552,l),
(140,476,l),
(314,476,ls),
(402,476,o),
(458,428,o),
(458,354,cs),
(458,275,o),
(401,225,o),
(312,225,cs),
(140,225,l),
(140,151,l)
);
}
);
width = 596;
},
{
associatedMasterId = m01;
layerId = "D31711CA-05EE-4EB0-AA33-8D1A5EFDCDD1";
width = 600;
},
{
associatedMasterId = m01;
layerId = "2743AE31-5E10-493A-AAF8-244AFE4C878D";
width = 608;
},
{
layerId = "E9FB66CC-5D7A-47B2-9A25-A0E8EEF5BB81";
width = 608;
}
);
metricLeft = H;
unicode = 222;
},
{
glyphname = Q;
layers = (
{
background = {
shapes = (
{
pos = (2,0);
ref = O;
}
);
};
layerId = m01;
shapes = (
{
closed = 1;
nodes = (
(696,-88,l),
(669,-22,o),
(601,31,o),
(526,44,c),
(526,32,l),
(627,83,o),
(696,206,o),
(696,358,cs),
(696,566,o),
(566,712,o),
(371,712,cs),
(178,712,o),
(48,568,o),
(48,352,cs),
(48,136,o),
(178,-8,o),
(372,-8,cs),
(394,-8,ls),
(490,-8,o),
(567,-57,o),
(598,-136,c)
);
},
{
closed = 1;
nodes = (
(234,66,o),
(150,174,o),
(150,351,cs),
(150,528,o),
(234,636,o),
(372,636,cs),
(510,636,o),
(594,528,o),
(594,351,cs),
(594,174,o),
(510,66,o),
(372,66,cs)
);
}
);
width = 744;
},
{
associatedMasterId = m01;
layerId = "45E5A33A-547C-4877-A6AC-802D78D21235";
name = "13 mar 22, 15:28";
shapes = (
{
closed = 1;
nodes = (
(684,-96,l),
(664,-12,o),
(600,44,o),
(524,44,c),
(528,32,l),
(629,93,o),
(688,213,o),
(688,356,cs),
(688,573,o),
(561,712,o),
(364,712,cs),
(167,712,o),
(40,570,o),
(40,350,cs),
(40,130,o),
(167,-12,o),
(364,-12,cs),
(424,-12,ls),
(500,-12,o),
(564,-52,o),
(584,-124,c)
);
},
{
closed = 1;
nodes = (
(220,72,o),
(136,175,o),
(136,351,cs),
(136,527,o),
(220,630,o),
(364,630,cs),
(508,630,o),
(592,527,o),
(592,351,cs),
(592,175,o),
(508,72,o),
(364,72,cs)
);
}
);
width = 728;
},
{
associatedMasterId = m01;
layerId = "8EFA0C37-2990-44F8-95FA-B27B9C3E40BD";
name = "17 gen 22, 10:31";
shapes = (
{
ref = O;
},
{
closed = 1;
nodes = (
(439,127,o),
(472,89,o),
(502,48,cs),
(534,6,o),
(563,-39,o),
(632,-82,c),
(688,-26,l),
(619,17,o),
(586,57,o),
(556,100,cs),
(526,141,o),
(499,185,o),
(432,226,c),
(372,168,l)
);
}
);
width = 728;
},
{
associatedMasterId = m01;
background = {
shapes = (
{
ref = O;
}
);
};
layerId = "37E318CB-27DE-4B86-8E5A-D40B51532E7F";
name = "Before Nunz";
shapes = (
{
closed = 1;
nodes = (
(694,-88,l),
(667,-21,o),
(600,31,o),
(524,44,c),
(524,32,l),
(627,83,o),
(694,209,o),
(694,352,cs),
(694,570,o),
(566,712,o),
(370,712,cs),
(174,712,o),
(46,570,o),
(46,352,cs),
(46,134,o),
(174,-8,o),
(370,-8,cs),
(489,-8,o),
(565,-56,o),
(596,-136,c)
);
},
{
closed = 1;
nodes = (
(230,66,o),
(148,172,o),
(148,351,cs),
(148,530,o),
(230,636,o),
(370,636,cs),
(510,636,o),
(592,530,o),
(592,351,cs),
(592,172,o),
(510,66,o),
(370,66,cs)
);
}
);
width = 740;
},
{
background = {
shapes = (
{
closed = 1;
nodes = (
(577,-12,o),
(711,133,o),
(711,350,cs),
(711,567,o),
(577,712,o),
(377,712,cs),
(177,712,o),
(43,567,o),
(43,350,cs),
(43,133,o),
(177,-12,o),
(377,-12,cs)
);
},
{
closed = 1;
nodes = (
(266,100,o),
(198,195,o),
(198,351,cs),
(198,507,o),
(266,602,o),
(377,602,cs),
(488,602,o),
(556,507,o),
(556,351,cs),
(556,195,o),
(488,100,o),
(377,100,cs)
);
}
);
};
layerId = "E9FB66CC-5D7A-47B2-9A25-A0E8EEF5BB81";
shapes = (
{
closed = 1;
nodes = (
(710,-80,l),
(682,-19,o),
(611,35,o),
(544,52,c),
(544,40,l),
(649,93,o),
(709,211,o),
(709,356,cs),
(709,568,o),
(577,712,o),
(377,712,cs),
(177,712,o),
(44,567,o),
(44,350,cs),
(44,133,o),
(176,-12,o),
(376,-12,cs),
(378,-12,ls),
(468,-12,o),
(541,-68,o),
(568,-156,c)
);
},
{
closed = 1;
nodes = (
(266,100,o),
(198,195,o),
(198,351,cs),
(198,507,o),
(266,602,o),
(377,602,cs),
(488,602,o),
(556,507,o),
(556,351,cs),
(556,195,o),
(488,100,o),
(377,100,cs)
);
}
);
width = 754;
}
);
metricLeft = O;
metricRight = O;
unicode = 81;
},
{
glyphname = R;
layers = (
{
anchors = (
{
name = bottom;
pos = (354,0);
},
{
name = top;
pos = (318,700);
}
);
layerId = m01;
shapes = (
{
closed = 1;
nodes = (
(178,0,l),
(178,636,l),
(166,624,l),
(356,624,ls),
(435,624,o),
(484,580,o),
(484,508,cs),
(484,434,o),
(435,388,o),
(354,388,cs),
(166,388,l),
(166,312,l),
(302,312,ls),
(358,312,o),
(401,283,o),
(422,232,cs),
(518,0,l),
(632,0,l),
(506,268,ls),
(487,308,o),
(453,332,o),
(414,334,c),
(414,322,l),
(516,334,o),
(584,408,o),
(584,508,cs),
(584,623,o),
(494,700,o),
(358,700,cs),
(82,700,l),
(82,0,l)
);
}
);
width = 668;
},
{
anchors = (
{
name = bottom;
pos = (328,0);
},
{
name = top;
pos = (300,700);
}
);
associatedMasterId = m01;
layerId = "0FB5F24F-DEDD-4369-8C3C-D7923435B138";
name = "13 set 22, 00:52";
shapes = (
{
ref = I;
},
{
closed = 1;
nodes = (
(292,299,ls),
(346,299,o),
(387,273,o),
(404,228,cs),
(488,0,l),
(604,0,l),
(488,256,ls),
(470,296,o),
(436,324,o),
(396,332,c),
(396,324,l),
(501,340,o),
(576,416,o),
(576,512,cs),
(576,622,o),
(482,700,o),
(348,700,cs),
(140,700,l),
(140,624,l),
(334,624,ls),
(419,624,o),
(474,576,o),
(474,502,cs),
(474,423,o),
(418,373,o),
(332,373,cs),
(140,373,l),
(140,299,l)
);
}
);
width = 637;
},
{
anchors = (
{
name = bottom;
pos = (355,0);
},
{
name = top;
pos = (319,700);
}
);
layerId = "E9FB66CC-5D7A-47B2-9A25-A0E8EEF5BB81";
shapes = (
{
closed = 1;
nodes = (
(218,0,l),
(218,599,l),
(208,589,l),
(338,589,ls),
(404,589,o),
(444,553,o),
(444,494,cs),
(444,435,o),
(404,397,o),
(337,397,cs),
(208,397,l),
(208,290,l),
(306,290,ls),
(349,290,o),
(384,267,o),
(398,228,cs),
(482,0,l),
(652,0,l),
(538,258,ls),
(520,298,o),
(487,322,o),
(448,323,c),
(448,313,l),
(535,331,o),
(596,404,o),
(596,498,cs),
(596,618,o),
(500,700,o),
(360,700,cs),
(72,700,l),
(72,0,l)
);
}
);
width = 682;
}
);
metricLeft = H;
unicode = 82;
userData = {
KernOnName = R;
};
},
{
glyphname = S;
layers = (
{
anchors = (
{
name = bottom;
pos = (320,0);
},
{
name = top;
pos = (304,700);
}
);
layerId = m01;
name = Regular;
shapes = (
{
closed = 1;
nodes = (
(476,-12,o),
(572,60,o),
(572,176,cs),
(572,420,o),
(154,356,o),
(154,532,cs),
(154,596,o),
(208,638,o),
(292,638,cs),
(384,638,o),
(446,588,o),
(460,500,c),
(560,520,l),
(540,640,o),
(444,712,o),
(296,712,cs),
(148,712,o),
(56,644,o),
(56,532,cs),
(56,288,o),
(472,358,o),
(472,174,cs),
(472,106,o),
(419,64,o),
(324,64,cs),
(212,64,o),
(140,122,o),
(130,228,c),
(28,208,l),
(45,72,o),
(155,-12,o),
(320,-12,cs)
);
}
);
width = 612;
},
{
anchors = (
{
name = bottom;
pos = (328,0);
},
{
name = top;
pos = (312,700);
}
);
associatedMasterId = m01;
layerId = "3A5F3F82-AD06-4F78-AE6A-AB7CBE115A5E";
name = "5 ott 22, 22:51";
shapes = (
{
closed = 1;
nodes = (
(481,-12,o),
(580,63,o),
(580,182,cs),
(580,426,o),
(162,364,o),
(162,536,cs),
(162,598,o),
(215,638,o),
(296,638,cs),
(388,638,o),
(453,587,o),
(468,500,c),
(570,524,l),
(547,638,o),
(441,712,o),
(300,712,cs),
(157,712,o),
(64,639,o),
(64,526,cs),
(64,286,o),
(480,352,o),
(480,172,cs),
(480,107,o),
(422,64,o),
(334,64,cs),
(228,64,o),
(158,124,o),
(142,228,c),
(36,208,l),
(56,75,o),
(172,-12,o),
(332,-12,cs)
);
}
);
width = 622;
},
{
anchors = (
{
name = bottom;
pos = (328,0);
},
{
name = top;
pos = (312,700);
}
);
associatedMasterId = m01;
layerId = "7674669D-F290-41A5-8E78-832FEF8118AC";
name = Nunz;
shapes = (
{
closed = 1;
nodes = (
(485,-11,o),
(585,66,o),
(585,190,cs),
(585,454,o),
(156,334,o),
(156,522,cs),
(156,591,o),
(211,638,o),
(295,638,cs),
(383,638,o),
(446,591,o),
(465,502,c),
(566,531,l),
(538,644,o),
(435,712,o),
(302,712,cs),
(152,712,o),
(61,632,o),
(61,513,cs),
(61,250,o),
(485,371,o),
(488,187,cs),
(489,115,o),
(428,65,o),
(334,65,cs),
(231,65,o),
(164,122,o),
(143,221,c),
(39,196,l),
(64,69,o),
(174,-11,o),
(328,-11,cs)
);
}
);
width = 622;
},
{
layerId = "E9FB66CC-5D7A-47B2-9A25-A0E8EEF5BB81";
width = 606;
}
);
note = "Falls to the right";
unicode = 83;
userData = {
KernOnName = S;
};
},
{
glyphname = T;
layers = (
{
anchors = (
{
name = bottom;
pos = (288,0);
},
{
name = center;
pos = (288,350);
},
{
name = top;
pos = (288,700);
}
);
layerId = m01;
shapes = (
{
closed = 1;
nodes = (
(336,0,l),
(336,635,l),
(240,635,l),
(240,0,l)
);
},
{
closed = 1;
nodes = (
(566,623,l),
(566,700,l),
(10,700,l),
(10,623,l)
);
}
);
width = 576;
},
{
anchors = (
{
name = bottom;
pos = (295,0);
},
{
name = center;
pos = (295,350);
},
{
name = top;
pos = (295,700);
}
);
layerId = "E9FB66CC-5D7A-47B2-9A25-A0E8EEF5BB81";
shapes = (
{
closed = 1;
nodes = (
(369,0,l),
(369,597,l),
(222,597,l),
(222,0,l)
);
},
{
closed = 1;
nodes = (
(580,587,l),
(580,700,l),
(10,700,l),
(10,587,l)
);
}
);
width = 590;
}
);
metricRight = "=|";
unicode = 84;
userData = {
KernOnName = T;
};
},
{
glyphname = U;
layers = (
{
anchors = (
{
name = ogonek;
pos = (458,12);
},
{
name = top;
pos = (356,700);
}
);
layerId = m01;
shapes = (
{
closed = 1;
nodes = (
(530,-12,o),
(634,90,o),
(634,260,cs),
(634,700,l),
(544,700,l),
(544,254,ls),
(544,136,o),
(477,70,o),
(358,70,cs),
(239,70,o),
(172,136,o),
(172,254,cs),
(172,703,l),
(76,703,l),
(76,260,ls),
(76,90,o),
(180,-12,o),
(356,-12,cs)
);
}
);
width = 710;
},
{
anchors = (
{
name = ogonek;
pos = (466,12);
},
{
name = top;
pos = (357,700);
}
);
layerId = "E9FB66CC-5D7A-47B2-9A25-A0E8EEF5BB81";
shapes = (
{
closed = 1;
nodes = (
(537,-12,o),
(646,94,o),
(646,268,cs),
(646,700,l),
(510,700,l),
(510,261,ls),
(510,157,o),
(456,99,o),
(360,99,cs),
(264,99,o),
(210,157,o),
(210,261,cs),
(210,703,l),
(64,703,l),
(64,268,ls),
(64,94,o),
(174,-12,o),
(356,-12,cs)
);
}
);
width = 710;
}
);
metricLeft = "=|";
metricRight = "=J";
unicode = 85;
userData = {
KernOnName = U;
};
},
{
glyphname = Uogonek;
layers = (
{
layerId = m01;
shapes = (
{
closed = 1;
nodes = (
(498,-148,l),
(442,-180,o),
(394,-160,o),
(394,-112,cs),
(394,-64,o),
(442,-12,o),
(518,28,c),
(422,12,l),
(362,-25,o),
(322,-82,o),
(322,-136,cs),
(322,-220,o),
(422,-248,o),
(514,-204,c)
);
},
{
ref = U;
}
);
width = 710;
},
{
associatedMasterId = m01;
layerId = "FD721580-ACC0-4080-9CF2-94C9D876CD69";
name = "13 nov 22, 11:19";
shapes = (
{
ref = U;
},
{
pos = (458,12);
ref = ogonekcomb;
}
);
width = 710;
},
{
associatedMasterId = m01;
layerId = "D31711CA-05EE-4EB0-AA33-8D1A5EFDCDD1";
width = 600;
},
{
associatedMasterId = m01;
layerId = "2743AE31-5E10-493A-AAF8-244AFE4C878D";
width = 655;
},
{
layerId = "E9FB66CC-5D7A-47B2-9A25-A0E8EEF5BB81";
width = 655;
}
);
metricLeft = "=|";
metricRight = "=J";
unicode = 370;
},
{
glyphname = V;
layers = (
{
layerId = m01;
shapes = (
{
closed = 1;
nodes = (
(362,0,l),
(610,700,l),
(516,700,l),
(310,104,l),
(318,104,l),
(108,700,l),
(6,700,l),
(258,0,l)
);
}
);
width = 616;
},
{
associatedMasterId = m01;
layerId = "793C5E9A-EB2D-4164-9C8C-EF959FFA5A55";
name = "13 mar 22, 16:11";
shapes = (
{
closed = 1;
nodes = (
(104,700,l),
(322,96,l),
(538,700,l),
(636,700,l),
(371,0,l),
(269,0,l),
(4,700,l)
);
}
);
width = 640;
},
{
layerId = "E9FB66CC-5D7A-47B2-9A25-A0E8EEF5BB81";
shapes = (
{
closed = 1;
nodes = (
(402,0,l),
(642,700,l),
(500,700,l),
(326,168,l),
(334,168,l),
(156,700,l),
(-2,700,l),
(242,0,l)
);
}
);
width = 640;
}
);
metricRight = "=|";
unicode = 86;
userData = {
KernOnName = V;
};
},
{
glyphname = W;
layers = (
{
layerId = m01;
shapes = (
{
closed = 1;
nodes = (
(314,0,l),
(466,612,l),
(450,612,l),
(600,0,l),
(710,0,l),
(896,700,l),
(802,700,l),
(652,80,l),
(668,80,l),
(512,700,l),
(408,700,l),
(258,80,l),
(274,80,l),
(110,700,l),
(10,700,l),
(206,0,l)
);
}
);
width = 908;
},
{
associatedMasterId = m01;
layerId = "08C06934-6483-4449-8C01-03894C49C3C9";
name = "13 mar 22, 16:49";
shapes = (
{
closed = 1;
nodes = (
(296,0,l),
(459,588,l),
(622,0,l),
(722,0,l),
(912,700,l),
(816,700,l),
(674,120,l),
(514,700,l),
(406,700,l),
(248,116,l),
(106,700,l),
(8,700,l),
(194,0,l)
);
}
);
width = 920;
},
{
layerId = "E9FB66CC-5D7A-47B2-9A25-A0E8EEF5BB81";
width = 754;
}
);
unicode = 87;
userData = {
KernOnName = W;
};
},
{
glyphname = X;
layers = (
{
layerId = m01;
shapes = (
{
closed = 1;
nodes = (
(106,0,l),
(589,700,l),
(482,700,l),
(-2,0,l)
);
},
{
closed = 1;
nodes = (
(594,0,l),
(122,700,l),
(10,700,l),
(480,0,l)
);
}
);
width = 592;
},
{
associatedMasterId = m01;
layerId = "D0A7B26D-A2F9-4E96-BD90-4F706C87CB1B";
name = "13 set 22, 18:39";
shapes = (
{
closed = 1;
nodes = (
(129,0,l),
(313,284,l),
(499,0,l),
(613,0,l),
(371,360,l),
(603,700,l),
(497,700,l),
(319,432,l),
(149,700,l),
(37,700,l),
(261,356,l),
(25,0,l)
);
}
);
width = 639;
},
{
layerId = "E9FB66CC-5D7A-47B2-9A25-A0E8EEF5BB81";
width = 596;
}
);
metricRight = "=|";
unicode = 88;
userData = {
KernOnName = X;
};
},
{
glyphname = Y;
layers = (
{
anchors = (
{
name = top;
pos = (302,700);
}
);
layerId = m01;
shapes = (
{
closed = 1;
nodes = (
(352,0,l),
(352,278,l),
(590,700,l),
(486,700,l),
(304,360,l),
(312,360,l),
(116,700,l),
(8,700,l),
(256,280,l),
(256,0,l)
);
}
);
width = 600;
},
{
anchors = (
{
name = top;
pos = (320,700);
}
);
layerId = "E9FB66CC-5D7A-47B2-9A25-A0E8EEF5BB81";
shapes = (
{
closed = 1;
nodes = (
(388,0,l),
(388,280,l),
(624,700,l),
(480,700,l),
(322,380,l),
(330,380,l),
(164,700,l),
(-4,700,l),
(242,282,l),
(242,0,l)
);
}
);
width = 626;
}
);
unicode = 89;
userData = {
KernOnName = Y;
};
},
{
glyphname = Z;
layers = (
{
anchors = (
{
name = top;
pos = (278,700);
}
);
layerId = m01;
shapes = (
{
closed = 1;
nodes = (
(532,0,l),
(532,77,l),
(228,77,ls),
(196,77,o),
(164,75,o),
(140,71,c),
(530,640,l),
(530,700,l),
(40,700,l),
(40,624,l),
(332,624,ls),
(364,624,o),
(396,626,o),
(420,630,c),
(28,61,l),
(28,0,l)
);
}
);
width = 560;
},
{
anchors = (
{
name = top;
pos = (294,700);
}
);
layerId = "E9FB66CC-5D7A-47B2-9A25-A0E8EEF5BB81";
shapes = (
{
closed = 1;
nodes = (
(564,0,l),
(564,113,l),
(288,113,ls),
(256,113,o),
(224,111,o),
(200,107,c),
(562,616,l),
(562,700,l),
(40,700,l),
(40,588,l),
(304,588,ls),
(336,588,o),
(368,590,o),
(392,594,c),
(28,84,l),
(28,0,l)
);
}
);
width = 592;
}
);
metricRight = "=|";
unicode = 90;
},
{
color = 8;
glyphname = G.ss01;
layers = (
{
layerId = "E9FB66CC-5D7A-47B2-9A25-A0E8EEF5BB81";
width = 658;
},
{
anchors = (
{
name = bottom;
pos = (366,0);
},
{
name = top;
pos = (362,700);
}
);
layerId = m01;
name = Regular;
shapes = (
{
closed = 1;
nodes = (
(652,0,l),
(652,366,l),
(358,366,l),
(358,290,l),
(568,290,l),
(568,151,o),
(493,66,o),
(370,66,cs),
(234,66,o),
(150,176,o),
(150,354,cs),
(150,529,o),
(232,636,o),
(366,636,cs),
(462,636,o),
(534,580,o),
(554,484,c),
(646,508,l),
(618,632,o),
(510,712,o),
(366,712,cs),
(175,712,o),
(48,566,o),
(48,348,cs),
(48,132,o),
(170,-12,o),
(354,-12,cs),
(482,-12,o),
(576,60,o),
(584,184,c),
(568,184,l),
(568,0,l)
);
}
);
width = 716;
}
);
metricLeft = O;
note = "Versione senza gamba?";
},
{
color = 3;
glyphname = a;
layers = (
{
anchors = (
{
name = ogonek;
pos = (486,12);
},
{
name = top;
pos = (274,548);
}
);
layerId = m01;
shapes = (
{
closed = 1;
nodes = (
(306,-12,o),
(388,52,o),
(404,156,c),
(396,156,l),
(396,80,o),
(402,32,o),
(414,0,c),
(498,0,l),
(488,36,o),
(484,80,o),
(484,128,cs),
(484,376,ls),
(484,486,o),
(402,560,o),
(278,560,cs),
(167,560,o),
(73,497,o),
(42,400,c),
(128,372,l),
(146,444,o),
(202,488,o),
(276,488,cs),
(350,488,o),
(396,444,o),
(396,372,cs),
(396,284,ls),
(396,146,o),
(332,62,o),
(228,62,cs),
(165,62,o),
(124,94,o),
(124,148,cs),
(124,198,o),
(159,244,o),
(304,264,cs),
(404,278,l),
(404,340,l),
(228,316,ls),
(96,298,o),
(32,233,o),
(32,141,cs),
(32,48,o),
(100,-12,o),
(202,-12,cs)
);
}
);
width = 544;
},
{
anchors = (
{
name = ogonek;
pos = (513,12);
},
{
name = top;
pos = (281,548);
}
);
layerId = "E9FB66CC-5D7A-47B2-9A25-A0E8EEF5BB81";
shapes = (
{
closed = 1;
nodes = (
(301,-12,o),
(374,54,o),
(382,156,c),
(374,156,l),
(374,84,o),
(384,34,o),
(400,0,c),
(524,0,l),
(514,36,o),
(510,80,o),
(510,128,cs),
(510,368,ls),
(510,481,o),
(418,560,o),
(288,560,cs),
(180,560,o),
(74,501,o),
(32,416,c),
(148,352,l),
(168,418,o),
(219,460,o),
(280,460,cs),
(336,460,o),
(374,424,o),
(374,372,cs),
(374,282,ls),
(374,171,o),
(325,98,o),
(245,98,cs),
(198,98,o),
(168,124,o),
(168,163,cs),
(168,203,o),
(200,239,o),
(304,256,cs),
(382,269,l),
(382,344,l),
(264,328,ls),
(100,306,o),
(28,231,o),
(28,139,cs),
(28,49,o),
(97,-12,o),
(197,-12,cs)
);
}
);
width = 560;
}
);
unicode = 97;
userData = {
KernOnName = a;
};
},
{
color = 4;
glyphname = b;
layers = (
{
background = {
shapes = (
{
closed = 1;
nodes = (
(477,-12,o),
(570,102,o),
(570,274,cs),
(570,446,o),
(477,560,o),
(338,560,cs),
(234,560,o),
(154,496,o),
(138,400,c),
(154,400,l),
(154,732,l),
(66,732,l),
(66,0,l),
(152,0,l),
(152,152,l),
(136,152,l),
(152,54,o),
(233,-12,o),
(338,-12,cs)
);
}
);
};
layerId = m01;
shapes = (
{
closed = 1;
nodes = (
(475,-12,o),
(568,102,o),
(568,274,cs),
(568,446,o),
(475,560,o),
(336,560,cs),
(237,560,o),
(162,504,o),
(146,420,c),
(154,420,l),
(154,732,l),
(66,732,l),
(66,0,l),
(152,0,l),
(152,120,l),
(144,120,l),
(168,40,o),
(244,-12,o),
(336,-12,cs)
);
},
{
closed = 1;
nodes = (
(214,62,o),
(154,143,o),
(154,274,cs),
(154,406,o),
(216,484,o),
(316,484,cs),
(416,484,o),
(476,403,o),
(476,272,cs),
(476,140,o),
(414,62,o),
(314,62,cs)
);
}
);
width = 604;
},
{
associatedMasterId = m01;
layerId = "DF1F1C6B-A7A3-4503-A181-FE9A43471BE5";
name = "11 set 22, 23:19";
shapes = (
{
closed = 1;
nodes = (
(152,0,l),
(152,400,l),
(154,400,l),
(154,700,l),
(66,700,l),
(66,0,l)
);
},
{
closed = 1;
nodes = (
(468,-12,o),
(564,107,o),
(564,276,cs),
(564,442,o),
(470,560,o),
(338,560,cs),
(206,560,o),
(112,444,o),
(112,272,cs),
(112,106,o),
(200,-12,o),
(332,-12,cs)
);
},
{
closed = 1;
nodes = (
(213,66,o),
(152,140,o),
(152,256,cs),
(152,296,ls),
(152,410,o),
(214,484,o),
(310,484,cs),
(409,484,o),
(473,403,o),
(473,276,cs),
(473,148,o),
(408,66,o),
(308,66,cs)
);
}
);
width = 599;
},
{
layerId = "E9FB66CC-5D7A-47B2-9A25-A0E8EEF5BB81";
shapes = (
{
closed = 1;
nodes = (
(494,-12,o),
(588,106,o),
(588,274,cs),
(588,442,o),
(496,560,o),
(364,560,cs),
(274,560,o),
(200,506,o),
(184,430,c),
(192,430,l),
(192,732,l),
(56,732,l),
(56,0,l),
(188,0,l),
(188,110,l),
(180,110,l),
(200,38,o),
(274,-12,o),
(360,-12,cs)
);
},
{
closed = 1;
nodes = (
(241,94,o),
(192,163,o),
(192,274,cs),
(192,383,o),
(241,452,o),
(319,452,cs),
(397,452,o),
(446,383,o),
(446,272,cs),
(446,163,o),
(397,94,o),
(319,94,cs)
);
}
);
width = 618;
}
);
metricLeft = l;
metricRight = o;
unicode = 98;
},
{
color = 4;
glyphname = c;
layers = (
{
anchors = (
{
name = bottom;
pos = (282,0);
},
{
name = top;
pos = (290,548);
}
);
layerId = m01;
shapes = (
{
closed = 1;
nodes = (
(414,-12,o),
(506,63,o),
(522,176,c),
(438,196,l),
(426,112,o),
(372,62,o),
(292,62,cs),
(191,62,o),
(129,144,o),
(129,278,cs),
(129,408,o),
(190,488,o),
(290,488,cs),
(362,488,o),
(414,444,o),
(430,368,c),
(514,396,l),
(486,496,o),
(398,560,o),
(286,560,cs),
(136,560,o),
(36,446,o),
(36,274,cs),
(36,102,o),
(138,-12,o),
(290,-12,cs)
);
}
);
width = 548;
},
{
anchors = (
{
name = bottom;
pos = (254,0);
},
{
name = top;
pos = (288,548);
}
);
associatedMasterId = m01;
layerId = "AFBA1447-087E-4C67-BB58-58A10C8EF605";
name = "18 set 22, 12:16";
shapes = (
{
closed = 1;
nodes = (
(399,-12,o),
(494,64,o),
(520,180,c),
(436,208,l),
(420,116,o),
(364,62,o),
(284,62,cs),
(185,62,o),
(126,142,o),
(126,278,cs),
(126,410,o),
(185,488,o),
(286,488,cs),
(359,488,o),
(412,442,o),
(430,364,c),
(512,396,l),
(484,496,o),
(394,560,o),
(284,560,cs),
(134,560,o),
(34,448,o),
(34,275,cs),
(34,101,o),
(131,-12,o),
(280,-12,cs)
);
}
);
width = 544;
},
{
anchors = (
{
name = bottom;
pos = (287,0);
},
{
name = top;
pos = (294,548);
}
);
layerId = "E9FB66CC-5D7A-47B2-9A25-A0E8EEF5BB81";
shapes = (
{
closed = 1;
nodes = (
(421,-12,o),
(522,68,o),
(538,180,c),
(404,216,l),
(398,138,o),
(356,90,o),
(296,90,cs),
(221,90,o),
(174,163,o),
(174,278,cs),
(174,390,o),
(219,460,o),
(290,460,cs),
(346,460,o),
(386,416,o),
(398,344,c),
(532,380,l),
(508,488,o),
(410,560,o),
(290,560,cs),
(134,560,o),
(30,443,o),
(30,276,cs),
(30,106,o),
(137,-12,o),
(293,-12,cs)
);
}
);
width = 558;
}
);
metricLeft = o;
unicode = 99;
userData = {
KernOnName = c;
};
},
{
color = 4;
glyphname = d;
layers = (
{
anchors = (
{
name = topright;
pos = (540,548);
}
);
layerId = m01;
shapes = (
{
closed = 1;
nodes = (
(368,-12,o),
(446,44,o),
(462,128,c),
(454,128,l),
(454,0,l),
(540,0,l),
(540,732,l),
(452,732,l),
(452,428,l),
(460,428,l),
(436,507,o),
(359,560,o),
(267,560,cs),
(128,560,o),
(36,446,o),
(36,274,cs),
(36,102,o),
(128,-12,o),
(267,-12,cs)
);
},
{
closed = 1;
nodes = (
(189,64,o),
(128,145,o),
(128,276,cs),
(128,406,o),
(190,486,o),
(291,486,cs),
(391,486,o),
(452,405,o),
(452,274,cs),
(452,144,o),
(390,64,o),
(289,64,cs)
);
}
);
width = 606;
},
{
anchors = (
{
name = topright;
pos = (541,548);
}
);
associatedMasterId = m01;
layerId = "216E8A61-D8BA-4F2B-B3F4-B0E52532D57C";
name = "11 set 22, 23:35";
shapes = (
{
closed = 1;
nodes = (
(405,-12,o),
(499,108,o),
(499,284,cs),
(499,448,o),
(405,560,o),
(269,560,cs),
(132,560,o),
(35,440,o),
(35,272,cs),
(35,104,o),
(132,-12,o),
(269,-12,cs)
);
},
{
closed = 1;
nodes = (
(192,64,o),
(126,145,o),
(126,272,cs),
(126,400,o),
(192,482,o),
(295,482,cs),
(392,482,o),
(455,409,o),
(455,296,cs),
(455,248,ls),
(455,136,o),
(392,64,o),
(295,64,cs)
);
},
{
closed = 1;
nodes = (
(541,0,l),
(541,700,l),
(453,700,l),
(453,420,l),
(455,420,l),
(455,0,l)
);
}
);
width = 607;
},
{
anchors = (
{
name = topright;
pos = (540,548);
}
);
associatedMasterId = m01;
layerId = "4A874CFF-28CC-4C9B-841E-9DCD97E23F05";
name = "15 gen 23, 17:50";
shapes = (
{
closed = 1;
nodes = (
(374,-12,o),
(454,52,o),
(470,148,c),
(454,148,l),
(454,0,l),
(540,0,l),
(540,732,l),
(452,732,l),
(452,396,l),
(468,396,l),
(452,494,o),
(372,560,o),
(268,560,cs),
(129,560,o),
(36,446,o),
(36,274,cs),
(36,102,o),
(130,-12,o),
(270,-12,cs)
);
},
{
closed = 1;
nodes = (
(190,64,o),
(128,144,o),
(128,274,cs),
(128,403,o),
(190,482,o),
(290,482,cs),
(390,482,o),
(452,402,o),
(452,272,cs),
(452,143,o),
(390,64,o),
(290,64,cs)
);
}
);
width = 606;
},
{
anchors = (
{
name = topright;
pos = (564,548);
}
);
layerId = "E9FB66CC-5D7A-47B2-9A25-A0E8EEF5BB81";
shapes = (
{
closed = 1;
nodes = (
(348,-12,o),
(424,42,o),
(440,118,c),
(432,118,l),
(432,0,l),
(564,0,l),
(564,732,l),
(428,732,l),
(428,438,l),
(436,438,l),
(416,510,o),
(342,560,o),
(257,560,cs),
(124,560,o),
(30,442,o),
(30,274,cs),
(30,106,o),
(124,-12,o),
(257,-12,cs)
);
},
{
closed = 1;
nodes = (
(221,96,o),
(172,165,o),
(172,276,cs),
(172,385,o),
(221,454,o),
(300,454,cs),
(379,454,o),
(428,385,o),
(428,274,cs),
(428,165,o),
(379,96,o),
(300,96,cs)
);
}
);
width = 620;
}
);
metricLeft = o;
metricRight = l;
unicode = 100;
userData = {
KernOnName = d;
};
},
{
glyphname = dcroat;
layers = (
{
layerId = m01;
shapes = (
{
pos = (1,0);
ref = d;
},
{
closed = 1;
nodes = (
(609,628,l),
(609,692,l),
(305,692,l),
(305,628,l)
);
}
);
width = 605;
},
{
associatedMasterId = m01;
layerId = "D31711CA-05EE-4EB0-AA33-8D1A5EFDCDD1";
width = 600;
},
{
associatedMasterId = m01;
layerId = "2743AE31-5E10-493A-AAF8-244AFE4C878D";
width = 602.5;
},
{
layerId = "E9FB66CC-5D7A-47B2-9A25-A0E8EEF5BB81";
width = 602.5;
}
);
metricLeft = "=o+1";
unicode = 273;
},
{
color = 4;
glyphname = e;
layers = (
{
anchors = (
{
name = ogonek;
pos = (374,12);
},
{
name = top;
pos = (286,548);
}
);
layerId = m01;
shapes = (
{
closed = 1;
nodes = (
(406,-12,o),
(500,56,o),
(526,160,c),
(442,184,l),
(426,108,o),
(370,62,o),
(294,62,cs),
(192,62,o),
(128,142,o),
(128,276,cs),
(128,407,o),
(189,488,o),
(288,488,cs),
(377,488,o),
(433,423,o),
(435,318,c),
(443,326,l),
(119,326,l),
(119,255,l),
(527,255,l),
(539,439,o),
(444,560,o),
(288,560,cs),
(137,560,o),
(36,446,o),
(36,275,cs),
(36,103,o),
(138,-12,o),
(290,-12,cs)
);
}
);
width = 564;
},
{
anchors = (
{
name = ogonek;
pos = (383,12);
},
{
name = top;
pos = (291,548);
}
);
layerId = "E9FB66CC-5D7A-47B2-9A25-A0E8EEF5BB81";
shapes = (
{
closed = 1;
nodes = (
(417,-12,o),
(517,58,o),
(542,160,c),
(414,196,l),
(404,126,o),
(359,86,o),
(301,86,cs),
(222,86,o),
(172,160,o),
(172,278,cs),
(172,392,o),
(220,464,o),
(295,464,cs),
(361,464,o),
(403,408,o),
(405,324,c),
(413,332,l),
(164,332,l),
(164,248,l),
(540,248,l),
(556,432,o),
(455,560,o),
(293,560,cs),
(137,560,o),
(30,444,o),
(30,275,cs),
(30,105,o),
(139,-12,o),
(296,-12,cs)
);
}
);
width = 574;
}
);
metricLeft = o;
unicode = 101;
},
{
glyphname = eogonek;
layers = (
{
background = {
shapes = (
{
closed = 1;
nodes = (
(338,-248,o),
(430,-204,c),
(414,-148,l),
(358,-180,o),
(310,-160,o),
(310,-112,cs),
(310,-73,o),
(339,-30,o),
(386,0,c),
(338,12,l),
(278,-25,o),
(238,-82,o),
(238,-136,cs),
(238,-220,o)
);
}
);
};
layerId = m01;
shapes = (
{
pos = (2,0);
ref = e;
},
{
closed = 1;
nodes = (
(338,-248,o),
(430,-204,c),
(414,-148,l),
(358,-180,o),
(310,-160,o),
(310,-112,cs),
(310,-68,o),
(354,-14,o),
(434,30,c),
(346,12,l),
(278,-28,o),
(238,-84,o),
(238,-136,cs),
(238,-220,o)
);
}
);
width = 564;
},
{
associatedMasterId = m01;
layerId = "8A2F9909-238F-4814-93BF-B3FA69A977F2";
name = "13 nov 22, 11:22";
shapes = (
{
ref = e;
},
{
pos = (374,12);
ref = ogonekcomb;
}
);
width = 564;
},
{
associatedMasterId = m01;
layerId = "D31711CA-05EE-4EB0-AA33-8D1A5EFDCDD1";
width = 600;
},
{
associatedMasterId = m01;
layerId = "2743AE31-5E10-493A-AAF8-244AFE4C878D";
width = 582;
},
{
layerId = "E9FB66CC-5D7A-47B2-9A25-A0E8EEF5BB81";
width = 582;
}
);
unicode = 281;
},
{
glyphname = schwa;
layers = (
{
layerId = m01;
shapes = (
{
closed = 1;
nodes = (
(431,-12,o),
(532,102,o),
(532,272,cs),
(532,445,o),
(430,560,o),
(276,560,cs),
(160,560,o),
(66,493,o),
(42,392,c),
(124,372,l),
(140,444,o),
(197,488,o),
(274,488,cs),
(377,488,o),
(440,406,o),
(440,272,cs),
(440,142,o),
(380,62,o),
(282,62,cs),
(190,62,o),
(132,130,o),
(130,240,c),
(118,228,l),
(452,228,l),
(452,300,l),
(38,300,l),
(26,113,o),
(123,-12,o),
(280,-12,cs)
);
}
);
width = 568;
},
{
associatedMasterId = m01;
layerId = "D441F9BC-D45D-4772-8C45-C958A36D7302";
name = "14 gen 23, 13:40";
shapes = (
{
closed = 1;
nodes = (
(158,560,o),
(64,494,o),
(36,396,c),
(116,368,l),
(132,440,o),
(191,488,o),
(271,488,cs),
(373,488,o),
(435,410,o),
(435,278,cs),
(435,142,o),
(373,62,o),
(275,62,cs),
(183,62,o),
(128,132,o),
(128,240,c),
(116,228,l),
(446,228,l),
(446,300,l),
(36,300,l),
(22,112,o),
(116,-12,o),
(276,-12,cs),
(428,-12,o),
(526,102,o),
(526,273,cs),
(526,445,o),
(424,560,o),
(272,560,cs)
);
}
);
width = 560;
},
{
associatedMasterId = m01;
layerId = "D31711CA-05EE-4EB0-AA33-8D1A5EFDCDD1";
width = 600;
},
{
associatedMasterId = m01;
layerId = "2743AE31-5E10-493A-AAF8-244AFE4C878D";
width = 584;
},
{
layerId = "E9FB66CC-5D7A-47B2-9A25-A0E8EEF5BB81";
width = 584;
}
);
metricLeft = "=o+1";
metricRight = o;
unicode = 601;
},
{
color = 3;
glyphname = f;
layers = (
{
layerId = m01;
shapes = (
{
closed = 1;
nodes = (
(180,0,l),
(180,604,ls),
(180,665,o),
(226,687,o),
(300,656,c),
(316,726,l),
(180,774,o),
(92,724,o),
(92,616,cs),
(92,0,l)
);
},
{
closed = 1;
nodes = (
(284,474,l),
(284,544,l),
(16,544,l),
(16,474,l)
);
}
);
width = 300;
},
{
associatedMasterId = m01;
layerId = "7246D8C4-97F5-4955-BF21-40AB0C0A9464";
name = "4 feb 23, 19:42";
shapes = (
{
closed = 1;
nodes = (
(180,0,l),
(180,612,ls),
(180,651,o),
(200,670,o),
(241,670,cs),
(255,670,o),
(270,668,o),
(288,664,c),
(296,734,l),
(268,741,o),
(242,745,o),
(219,745,cs),
(138,745,o),
(92,702,o),
(92,624,cs),
(92,0,l)
);
},
{
closed = 1;
nodes = (
(284,474,l),
(284,544,l),
(16,544,l),
(16,474,l)
);
}
);
width = 296;
},
{
layerId = "E9FB66CC-5D7A-47B2-9A25-A0E8EEF5BB81";
shapes = (
{
closed = 1;
nodes = (
(216,0,l),
(216,580,ls),
(216,636,o),
(261,658,o),
(334,628,c),
(348,723,l),
(184,779,o),
(80,722,o),
(80,592,cs),
(80,0,l)
);
},
{
closed = 1;
nodes = (
(319,450,l),
(319,548,l),
(12,548,l),
(12,450,l)
);
}
);
width = 340;
}
);
note = "Controlla curva";
unicode = 102;
},
{
color = 3;
glyphname = g;
layers = (
{
anchors = (
{
name = top;
pos = (282,548);
}
);
associatedMasterId = m01;
layerId = "D5B64889-74F9-4E9C-9E94-DF77E25E62A9";
name = "12 set 22, 13:29";
shapes = (
{
closed = 1;
nodes = (
(402,-236,o),
(546,-148,o),
(546,-36,cs),
(546,40,o),
(482,92,o),
(386,92,cs),
(326,92,o),
(230,76,o),
(174,76,cs),
(134,76,o),
(114,89,o),
(114,114,cs),
(114,142,o),
(140,166,o),
(178,176,c),
(142,204,l),
(70,180,o),
(30,132,o),
(30,84,cs),
(30,32,o),
(74,0,o),
(138,0,cs),
(194,0,o),
(294,18,o),
(358,18,cs),
(422,18,o),
(454,-8,o),
(454,-48,cs),
(454,-112,o),
(358,-164,o),
(230,-164,cs),
(138,-164,o),
(94,-136,o),
(94,-88,cs),
(94,-45,o),
(129,-2,o),
(190,28,c),
(122,28,l),
(51,-2,o),
(6,-56,o),
(6,-112,cs),
(6,-192,o),
(86,-236,o),
(210,-236,cs)
);
},
{
closed = 1;
nodes = (
(393,148,o),
(482,233,o),
(482,354,cs),
(482,475,o),
(393,560,o),
(268,560,cs),
(143,560,o),
(54,475,o),
(54,354,cs),
(54,233,o),
(143,148,o),
(268,148,cs)
);
},
{
closed = 1;
nodes = (
(191,212,o),
(142,268,o),
(142,355,cs),
(142,442,o),
(191,498,o),
(268,498,cs),
(345,498,o),
(394,442,o),
(394,355,cs),
(394,268,o),
(345,212,o),
(268,212,cs)
);
},
{
closed = 1;
nodes = (
(458,492,o),
(502,517,o),
(562,492,c),
(578,568,l),
(495,596,o),
(431,554,o),
(422,468,c),
(450,428,l)
);
}
);
width = 584;
},
{
anchors = (
{
name = top;
pos = (304,548);
}
);
associatedMasterId = m01;
layerId = "9D8B6137-7F92-486E-A31D-877262EF3637";
name = Nunz;
shapes = (
{
closed = 1;
nodes = (
(434,-236,o),
(537,-152,o),
(537,-10,cs),
(537,548,l),
(451,548,l),
(451,396,l),
(467,396,l),
(451,494,o),
(370,560,o),
(264,560,cs),
(127,560,o),
(35,446,o),
(35,274,cs),
(35,110,o),
(127,0,o),
(264,0,cs),
(366,0,o),
(449,64,o),
(465,160,c),
(449,160,l),
(449,-18,ls),
(449,-112,o),
(391,-162,o),
(293,-162,cs),
(210,-162,o),
(150,-122,o),
(123,-69,c),
(59,-123,l),
(95,-191,o),
(178,-236,o),
(286,-236,cs)
);
},
{
closed = 1;
nodes = (
(188,76,o),
(127,154,o),
(127,280,cs),
(127,405,o),
(188,482,o),
(287,482,cs),
(387,482,o),
(449,404,o),
(449,276,cs),
(449,152,o),
(387,76,o),
(287,76,cs)
);
}
);
width = 601;
},
{
anchors = (
{
name = top;
pos = (308,548);
}
);
layerId = m01;
name = Regular;
shapes = (
{
closed = 1;
nodes = (
(440,-236,o),
(538,-150,o),
(538,-20,cs),
(538,548,l),
(452,548,l),
(452,396,l),
(468,396,l),
(452,494,o),
(371,560,o),
(266,560,cs),
(128,560,o),
(36,446,o),
(36,276,cs),
(36,110,o),
(127,0,o),
(264,0,cs),
(369,0,o),
(450,64,o),
(466,160,c),
(450,160,l),
(450,-32,ls),
(450,-112,o),
(390,-162,o),
(294,-162,cs),
(209,-162,o),
(144,-124,o),
(128,-64,c),
(42,-94,l),
(74,-179,o),
(174,-236,o),
(292,-236,cs)
);
},
{
closed = 1;
nodes = (
(190,72,o),
(128,151,o),
(128,278,cs),
(128,403,o),
(190,482,o),
(289,482,cs),
(388,482,o),
(450,402,o),
(450,274,cs),
(450,150,o),
(388,72,o),
(289,72,cs)
);
}
);
width = 604;
},
{
anchors = (
{
name = top;
pos = (307,548);
}
);
associatedMasterId = m01;
layerId = "22182064-454C-462D-B202-FCBCB140EC7F";
name = "Before Nunz";
shapes = (
{
closed = 1;
nodes = (
(440,-236,o),
(540,-152,o),
(540,-10,cs),
(540,548,l),
(454,548,l),
(454,396,l),
(470,396,l),
(454,495,o),
(374,560,o),
(267,560,cs),
(126,560,o),
(35,447,o),
(35,274,cs),
(35,113,o),
(126,0,o),
(267,0,cs),
(373,0,o),
(452,63,o),
(468,160,c),
(452,160,l),
(452,-18,ls),
(452,-112,o),
(394,-162,o),
(296,-162,cs),
(206,-162,o),
(148,-120,o),
(140,-48,c),
(42,-64,l),
(62,-168,o),
(156,-236,o),
(292,-236,cs)
);
},
{
closed = 1;
nodes = (
(186,76,o),
(127,153,o),
(127,272,cs),
(127,404,o),
(187,482,o),
(289,482,cs),
(391,482,o),
(452,403,o),
(452,270,cs),
(452,153,o),
(391,76,o),
(287,76,cs)
);
}
);
width = 604;
},
{
anchors = (
{
name = top;
pos = (312,548);
}
);
layerId = "E9FB66CC-5D7A-47B2-9A25-A0E8EEF5BB81";
shapes = (
{
closed = 1;
nodes = (
(456,-236,o),
(564,-148,o),
(564,-24,cs),
(564,548,l),
(432,548,l),
(432,438,l),
(440,438,l),
(420,510,o),
(348,560,o),
(260,560,cs),
(125,560,o),
(30,445,o),
(30,282,cs),
(30,119,o),
(123,4,o),
(256,4,cs),
(346,4,o),
(420,58,o),
(436,134,c),
(428,134,l),
(428,-28,ls),
(428,-89,o),
(383,-128,o),
(312,-128,cs),
(244,-128,o),
(187,-89,o),
(164,-28,c),
(40,-96,l),
(79,-178,o),
(188,-236,o),
(308,-236,cs)
);
},
{
closed = 1;
nodes = (
(221,110,o),
(172,176,o),
(172,282,cs),
(172,386,o),
(221,452,o),
(300,452,cs),
(379,452,o),
(428,386,o),
(428,280,cs),
(428,176,o),
(379,110,o),
(300,110,cs)
);
}
);
width = 620;
}
);
metricLeft = o;
metricRight = idotless;
unicode = 103;
userData = {
KernOnName = g;
};
},
{
color = 4;
glyphname = h;
layers = (
{
layerId = m01;
shapes = (
{
closed = 1;
nodes = (
(154,0,l),
(154,260,ls),
(154,399,o),
(213,484,o),
(308,484,cs),
(384,484,o),
(430,428,o),
(430,336,cs),
(430,0,l),
(518,0,l),
(518,364,ls),
(518,482,o),
(444,560,o),
(334,560,cs),
(234,560,o),
(162,496,o),
(146,400,c),
(154,400,l),
(154,732,l),
(66,732,l),
(66,0,l)
);
}
);
width = 574;
},
{
associatedMasterId = m01;
layerId = "E1A0DAC2-6347-4596-8713-2E21D7845637";
name = "26 apr 22, 22:13";
shapes = (
{
closed = 1;
nodes = (
(508,0,l),
(508,376,ls),
(508,488,o),
(444,560,o),
(342,560,cs),
(226,560,o),
(130,468,o),
(122,328,c),
(148,248,l),
(148,392,o),
(211,484,o),
(310,484,cs),
(378,484,o),
(420,440,o),
(420,360,cs),
(420,0,l)
);
},
{
closed = 1;
nodes = (
(148,0,l),
(148,340,l),
(146,340,l),
(146,700,l),
(60,700,l),
(60,0,l)
);
}
);
width = 562;
},
{
layerId = "E9FB66CC-5D7A-47B2-9A25-A0E8EEF5BB81";
shapes = (
{
closed = 1;
nodes = (
(192,0,l),
(192,264,ls),
(192,380,o),
(239,450,o),
(314,450,cs),
(374,450,o),
(410,406,o),
(410,332,cs),
(410,0,l),
(546,0,l),
(546,364,ls),
(546,482,o),
(473,560,o),
(364,560,cs),
(266,560,o),
(196,496,o),
(184,400,c),
(192,400,l),
(192,732,l),
(56,732,l),
(56,0,l)
);
}
);
width = 592;
}
);
metricLeft = l;
unicode = 104;
},
{
glyphname = idotless;
layers = (
{
anchors = (
{
name = bottom;
pos = (110,0);
},
{
name = ogonek;
pos = (142,12);
},
{
name = top;
pos = (110,548);
}
);
layerId = m01;
shapes = (
{
closed = 1;
nodes = (
(154,0,l),
(154,548,l),
(66,548,l),
(66,0,l)
);
}
);
width = 220;
},
{
associatedMasterId = m01;
layerId = "D31711CA-05EE-4EB0-AA33-8D1A5EFDCDD1";
width = 600;
},
{
anchors = (
{
name = bottom;
pos = (124,0);
},
{
name = ogonek;
pos = (186,11);
},
{
name = top;
pos = (124,548);
}
);
associatedMasterId = m01;
layerId = "2743AE31-5E10-493A-AAF8-244AFE4C878D";
shapes = (
{
closed = 1;
nodes = (
(192,0,l),
(192,548,l),
(56,548,l),
(56,0,l)
);
}
);
width = 248;
},
{
anchors = (
{
name = bottom;
pos = (124,0);
},
{
name = ogonek;
pos = (186,11);
},
{
name = top;
pos = (124,548);
}
);
layerId = "E9FB66CC-5D7A-47B2-9A25-A0E8EEF5BB81";
shapes = (
{
closed = 1;
nodes = (
(192,0,l),
(192,548,l),
(56,548,l),
(56,0,l)
);
}
);
width = 248;
}
);
metricRight = "=|";
unicode = 305;
},
{
glyphname = idieresis;
layers = (
{
layerId = m01;
shapes = (
{
closed = 1;
nodes = (
(58,608,l),
(58,698,l),
(-24,698,l),
(-24,608,l)
);
},
{
closed = 1;
nodes = (
(218,608,l),
(218,698,l),
(136,698,l),
(136,608,l)
);
},
{
ref = idotless;
}
);
width = 218;
},
{
associatedMasterId = m01;
layerId = "2743AE31-5E10-493A-AAF8-244AFE4C878D";
width = 409;
},
{
layerId = "E9FB66CC-5D7A-47B2-9A25-A0E8EEF5BB81";
width = 409;
}
);
unicode = 239;
},
{
glyphname = jdotless;
layers = (
{
anchors = (
{
name = top;
pos = (112,548);
}
);
layerId = m01;
shapes = (
{
closed = 1;
nodes = (
(68,-263,o),
(156,-218,o),
(156,-108,cs),
(156,548,l),
(68,548,l),
(68,-104,ls),
(68,-160,o),
(20,-178,o),
(-52,-146,c),
(-64,-220,l)
);
}
);
width = 222;
},
{
anchors = (
{
name = top;
pos = (126,548);
}
);
associatedMasterId = m01;
layerId = "2743AE31-5E10-493A-AAF8-244AFE4C878D";
shapes = (
{
closed = 1;
nodes = (
(91,-265,o),
(194,-213,o),
(194,-84,cs),
(194,548,l),
(58,548,l),
(58,-68,ls),
(58,-125,o),
(10,-144,o),
(-60,-114,c),
(-72,-218,l)
);
}
);
width = 250;
},
{
anchors = (
{
name = top;
pos = (126,548);
}
);
layerId = "E9FB66CC-5D7A-47B2-9A25-A0E8EEF5BB81";
shapes = (
{
closed = 1;
nodes = (
(91,-264,o),
(194,-216,o),
(194,-88,cs),
(194,548,l),
(58,548,l),
(58,-64,ls),
(58,-122,o),
(9,-142,o),
(-60,-112,c),
(-72,-216,l)
);
}
);
width = 250;
}
);
metricRight = idotless;
unicode = 567;
},
{
color = 2;
glyphname = k;
layers = (
{
anchors = (
{
name = bottom;
pos = (288,0);
}
);
layerId = m01;
shapes = (
{
closed = 1;
nodes = (
(154,0,l),
(154,212,l),
(146,196,l),
(504,548,l),
(392,548,l),
(146,292,l),
(154,292,l),
(154,732,l),
(66,732,l),
(66,0,l)
);
},
{
closed = 1;
nodes = (
(524,0,l),
(276,356,l),
(216,292,l),
(418,0,l)
);
}
);
width = 520;
},
{
anchors = (
{
name = bottom;
pos = (284,0);
}
);
associatedMasterId = m01;
layerId = "4688B124-F733-41B0-9212-61B2CA7705F1";
name = "14 gen 23, 11:49";
shapes = (
{
closed = 1;
nodes = (
(154,0,l),
(154,216,l),
(142,192,l),
(492,548,l),
(384,548,l),
(142,292,l),
(154,293,l),
(154,732,l),
(66,732,l),
(66,0,l)
);
},
{
closed = 1;
nodes = (
(520,0,l),
(276,356,l),
(216,292,l),
(414,0,l)
);
}
);
width = 524;
},
{
anchors = (
{
name = bottom;
pos = (304,0);
}
);
layerId = "E9FB66CC-5D7A-47B2-9A25-A0E8EEF5BB81";
shapes = (
{
closed = 1;
nodes = (
(192,0,l),
(192,172,l),
(184,156,l),
(550,548,l),
(398,548,l),
(184,308,l),
(192,308,l),
(192,732,l),
(56,732,l),
(56,0,l)
);
},
{
closed = 1;
nodes = (
(566,0,l),
(344,364,l),
(252,266,l),
(406,0,l)
);
}
);
width = 556;
}
);
metricLeft = l;
unicode = 107;
userData = {
KernOnName = k;
};
},
{
color = 4;
glyphname = l;
layers = (
{
anchors = (
{
name = bottom;
pos = (111,0);
},
{
name = top;
pos = (112,712);
},
{
name = topright;
pos = (154,548);
}
);
layerId = m01;
shapes = (
{
closed = 1;
nodes = (
(154,0,l),
(154,732,l),
(66,732,l),
(66,0,l)
);
}
);
width = 220;
},
{
anchors = (
{
name = bottom;
pos = (125,0);
},
{
name = top;
pos = (126,712);
},
{
name = topright;
pos = (192,548);
}
);
layerId = "E9FB66CC-5D7A-47B2-9A25-A0E8EEF5BB81";
shapes = (
{
closed = 1;
nodes = (
(192,0,l),
(192,732,l),
(56,732,l),
(56,0,l)
);
}
);
width = 248;
}
);
metricRight = "=|";
unicode = 108;
userData = {
KernOnName = l;
};
},
{
glyphname = lslash;
layers = (
{
layerId = m01;
shapes = (
{
pos = (58,0);
ref = l;
},
{
closed = 1;
nodes = (
(318,468,l),
(286,524,l),
(18,364,l),
(54,308,l)
);
}
);
width = 336;
},
{
associatedMasterId = m01;
layerId = "2743AE31-5E10-493A-AAF8-244AFE4C878D";
width = 468;
},
{
layerId = "E9FB66CC-5D7A-47B2-9A25-A0E8EEF5BB81";
width = 468;
}
);
metricRight = "=|";
unicode = 322;
},
{
color = 4;
glyphname = m;
layers = (
{
background = {
shapes = (
{
closed = 1;
nodes = (
(154,0,l),
(154,323,l),
(149,323,l),
(149,547,l),
(66,547,l),
(66,0,l)
);
},
{
closed = 1;
nodes = (
(482,0,l),
(482,376,ls),
(482,488,o),
(423,560,o),
(330,560,cs),
(223,560,o),
(137,468,o),
(130,328,c),
(154,252,l),
(154,396,o),
(208,484,o),
(296,484,cs),
(359,484,o),
(393,440,o),
(393,360,cs),
(393,0,l)
);
},
{
closed = 1;
nodes = (
(810,0,l),
(810,376,ls),
(810,488,o),
(751,560,o),
(658,560,cs),
(551,560,o),
(465,468,o),
(458,328,c),
(482,252,l),
(482,396,o),
(536,484,o),
(624,484,cs),
(687,484,o),
(722,440,o),
(722,360,cs),
(722,0,l)
);
}
);
};
layerId = m01;
shapes = (
{
closed = 1;
nodes = (
(154,0,l),
(154,280,ls),
(154,406,o),
(205,484,o),
(287,484,cs),
(353,484,o),
(394,433,o),
(394,349,cs),
(394,0,l),
(482,0,l),
(482,280,ls),
(482,406,o),
(533,484,o),
(615,484,cs),
(682,484,o),
(723,433,o),
(723,349,cs),
(723,0,l),
(810,0,l),
(810,364,ls),
(810,484,o),
(744,560,o),
(640,560,cs),
(548,560,o),
(480,500,o),
(468,408,c),
(476,408,l),
(468,499,o),
(403,560,o),
(314,560,cs),
(224,560,o),
(156,499,o),
(144,408,c),
(152,408,l),
(152,548,l),
(66,548,l),
(66,0,l)
);
}
);
width = 868;
},
{
associatedMasterId = m01;
layerId = "E454A4E7-AF7A-4EED-9B0B-2E804DD0A3A2";
name = "11 set 22, 23:02";
shapes = (
{
closed = 1;
nodes = (
(152,0,l),
(152,323,l),
(147,323,l),
(147,547,l),
(64,547,l),
(64,0,l)
);
},
{
closed = 1;
nodes = (
(480,0,l),
(480,376,ls),
(480,488,o),
(421,560,o),
(328,560,cs),
(221,560,o),
(135,468,o),
(128,328,c),
(152,252,l),
(152,396,o),
(206,484,o),
(294,484,cs),
(357,484,o),
(391,440,o),
(391,360,cs),
(391,0,l)
);
},
{
closed = 1;
nodes = (
(808,0,l),
(808,376,ls),
(808,488,o),
(749,560,o),
(656,560,cs),
(549,560,o),
(463,468,o),
(456,328,c),
(480,252,l),
(480,396,o),
(534,484,o),
(622,484,cs),
(685,484,o),
(720,440,o),
(720,360,cs),
(720,0,l)
);
}
);
width = 866;
},
{
layerId = "E9FB66CC-5D7A-47B2-9A25-A0E8EEF5BB81";
shapes = (
{
closed = 1;
nodes = (
(192,0,l),
(192,282,ls),
(192,385,o),
(232,450,o),
(297,450,cs),
(348,450,o),
(380,410,o),
(380,345,cs),
(380,0,l),
(516,0,l),
(516,282,ls),
(516,385,o),
(557,450,o),
(622,450,cs),
(673,450,o),
(705,410,o),
(705,345,cs),
(705,0,l),
(840,0,l),
(840,368,ls),
(840,482,o),
(771,560,o),
(671,560,cs),
(583,560,o),
(514,498,o),
(504,408,c),
(512,408,l),
(504,498,o),
(436,560,o),
(348,560,cs),
(260,560,o),
(190,498,o),
(182,408,c),
(190,408,l),
(190,548,l),
(56,548,l),
(56,0,l)
);
}
);
width = 888;
}
);
metricLeft = idotless;
metricRight = n;
unicode = 109;
},
{
color = 4;
glyphname = n;
layers = (
{
anchors = (
{
name = bottom;
pos = (298,0);
},
{
name = top;
pos = (302,548);
}
);
layerId = m01;
shapes = (
{
closed = 1;
nodes = (
(154,0,l),
(154,260,ls),
(154,399,o),
(213,484,o),
(308,484,cs),
(384,484,o),
(430,428,o),
(430,336,cs),
(430,0,l),
(518,0,l),
(518,364,ls),
(518,482,o),
(444,560,o),
(334,560,cs),
(234,560,o),
(160,496,o),
(144,400,c),
(152,400,l),
(152,548,l),
(66,548,l),
(66,0,l)
);
}
);
width = 576;
},
{
anchors = (
{
name = bottom;
pos = (307,0);
},
{
name = top;
pos = (313,548);
}
);
layerId = "E9FB66CC-5D7A-47B2-9A25-A0E8EEF5BB81";
shapes = (
{
closed = 1;
nodes = (
(192,0,l),
(192,264,ls),
(192,378,o),
(239,450,o),
(314,450,cs),
(373,450,o),
(410,404,o),
(410,332,cs),
(410,0,l),
(546,0,l),
(546,364,ls),
(546,480,o),
(470,560,o),
(364,560,cs),
(268,560,o),
(192,494,o),
(180,400,c),
(188,400,l),
(188,548,l),
(56,548,l),
(56,0,l)
);
}
);
width = 594;
}
);
metricLeft = idotless;
unicode = 110;
userData = {
KernOnName = n;
};
},
{
color = 4;
glyphname = o;
layers = (
{
anchors = (
{
name = top;
pos = (290,548);
}
);
layerId = m01;
shapes = (
{
closed = 1;
nodes = (
(442,-12,o),
(544,102,o),
(544,274,cs),
(544,446,o),
(442,560,o),
(290,560,cs),
(138,560,o),
(36,446,o),
(36,274,cs),
(36,102,o),
(138,-12,o),
(290,-12,cs)
);
},
{
closed = 1;
nodes = (
(190,62,o),
(128,143,o),
(128,275,cs),
(128,407,o),
(190,488,o),
(290,488,cs),
(390,488,o),
(452,407,o),
(452,275,cs),
(452,143,o),
(390,62,o),
(290,62,cs)
);
}
);
width = 580;
},
{
anchors = (
{
name = top;
pos = (288,548);
}
);
associatedMasterId = m01;
layerId = "739FF066-FBC0-4B68-9645-E09EC83B9A46";
name = "11 set 22, 23:11";
shapes = (
{
closed = 1;
nodes = (
(437,-12,o),
(542,106,o),
(542,274,cs),
(542,442,o),
(437,560,o),
(288,560,cs),
(139,560,o),
(34,442,o),
(34,274,cs),
(34,106,o),
(139,-12,o),
(288,-12,cs)
);
},
{
closed = 1;
nodes = (
(189,62,o),
(126,145,o),
(126,275,cs),
(126,405,o),
(189,488,o),
(288,488,cs),
(387,488,o),
(450,405,o),
(450,275,cs),
(450,145,o),
(387,62,o),
(288,62,cs)
);
}
);
width = 576;
},
{
anchors = (
{
name = top;
pos = (296,548);
}
);
layerId = "E9FB66CC-5D7A-47B2-9A25-A0E8EEF5BB81";
shapes = (
{
closed = 1;
nodes = (
(452,-12,o),
(562,106,o),
(562,274,cs),
(562,442,o),
(452,560,o),
(296,560,cs),
(140,560,o),
(30,442,o),
(30,274,cs),
(30,106,o),
(140,-12,o),
(296,-12,cs)
);
},
{
closed = 1;
nodes = (
(221,92,o),
(174,163,o),
(174,275,cs),
(174,387,o),
(221,458,o),
(296,458,cs),
(371,458,o),
(418,387,o),
(418,275,cs),
(418,163,o),
(371,92,o),
(296,92,cs)
);
}
);
width = 592;
}
);
metricRight = "=|";
unicode = 111;
userData = {
KernOnName = o;
};
},
{
glyphname = oslash;
layers = (
{
layerId = m01;
shapes = (
{
closed = 1;
nodes = (
(456,588,l),
(394,614,l),
(120,-38,l),
(184,-66,l)
);
},
{
ref = o;
}
);
width = 580;
},
{
associatedMasterId = m01;
layerId = "2743AE31-5E10-493A-AAF8-244AFE4C878D";
width = 590;
},
{
layerId = "E9FB66CC-5D7A-47B2-9A25-A0E8EEF5BB81";
width = 590;
}
);
unicode = 248;
},
{
color = 4;
glyphname = p;
layers = (
{
layerId = m01;
shapes = (
{
closed = 1;
nodes = (
(476,-12,o),
(568,102,o),
(568,274,cs),
(568,446,o),
(476,560,o),
(338,560,cs),
(238,560,o),
(160,504,o),
(144,420,c),
(152,420,l),
(152,548,l),
(66,548,l),
(66,-224,l),
(154,-224,l),
(154,120,l),
(146,120,l),
(170,41,o),
(247,-12,o),
(338,-12,cs)
);
},
{
closed = 1;
nodes = (
(214,62,o),
(154,143,o),
(154,274,cs),
(154,406,o),
(216,484,o),
(316,484,cs),
(416,484,o),
(476,403,o),
(476,272,cs),
(476,140,o),
(414,62,o),
(314,62,cs)
);
}
);
width = 604;
},
{
associatedMasterId = m01;
layerId = "19FF2719-39FC-4DDB-BAAE-075D8FBE288A";
name = "11 set 22, 23:29";
shapes = (
{
closed = 1;
nodes = (
(152,-224,l),
(152,128,l),
(150,128,l),
(150,548,l),
(64,548,l),
(64,-224,l)
);
},
{
closed = 1;
nodes = (
(466,-12,o),
(562,107,o),
(562,276,cs),
(562,442,o),
(467,560,o),
(332,560,cs),
(200,560,o),
(106,441,o),
(106,272,cs),
(106,106,o),
(199,-12,o),
(330,-12,cs)
);
},
{
closed = 1;
nodes = (
(211,66,o),
(150,140,o),
(150,256,cs),
(150,296,ls),
(150,410,o),
(212,484,o),
(308,484,cs),
(407,484,o),
(471,403,o),
(471,276,cs),
(471,148,o),
(406,66,o),
(306,66,cs)
);
}
);
width = 597;
},
{
associatedMasterId = m01;
layerId = "FE399968-B9E6-4FEC-91AF-9EDD39271E22";
name = "15 gen 23, 17:47";
shapes = (
{
closed = 1;
nodes = (
(477,-12,o),
(570,102,o),
(570,274,cs),
(570,446,o),
(477,560,o),
(338,560,cs),
(233,560,o),
(152,496,o),
(136,400,c),
(152,400,l),
(152,548,l),
(66,548,l),
(66,-224,l),
(154,-224,l),
(154,152,l),
(138,152,l),
(154,54,o),
(235,-12,o),
(340,-12,cs)
);
},
{
closed = 1;
nodes = (
(216,66,o),
(154,146,o),
(154,276,cs),
(154,405,o),
(216,484,o),
(316,484,cs),
(416,484,o),
(478,404,o),
(478,274,cs),
(478,145,o),
(416,66,o),
(316,66,cs)
);
}
);
width = 606;
},
{
layerId = "E9FB66CC-5D7A-47B2-9A25-A0E8EEF5BB81";
shapes = (
{
closed = 1;
nodes = (
(495,-12,o),
(588,106,o),
(588,274,cs),
(588,442,o),
(494,560,o),
(360,560,cs),
(270,560,o),
(196,506,o),
(180,430,c),
(188,430,l),
(188,548,l),
(56,548,l),
(56,-224,l),
(192,-224,l),
(192,110,l),
(184,110,l),
(204,38,o),
(277,-12,o),
(363,-12,cs)
);
},
{
closed = 1;
nodes = (
(241,94,o),
(192,163,o),
(192,274,cs),
(192,383,o),
(241,452,o),
(320,452,cs),
(397,452,o),
(446,383,o),
(446,272,cs),
(446,163,o),
(397,94,o),
(318,94,cs)
);
}
);
width = 618;
}
);
metricLeft = idotless;
metricRight = o;
unicode = 112;
},
{
glyphname = thorn;
layers = (
{
layerId = m01;
shapes = (
{
closed = 1;
nodes = (
(154,-224,l),
(154,152,l),
(138,152,l),
(154,53,o),
(234,-12,o),
(340,-12,cs),
(479,-12,o),
(570,101,o),
(570,274,cs),
(570,447,o),
(478,560,o),
(338,560,cs),
(233,560,o),
(154,497,o),
(138,400,c),
(154,400,l),
(154,735,l),
(66,735,l),
(66,-224,l)
);
},
{
closed = 1;
nodes = (
(216,66,o),
(154,147,o),
(154,278,cs),
(154,406,o),
(216,484,o),
(316,484,cs),
(416,484,o),
(478,405,o),
(478,276,cs),
(478,146,o),
(416,66,o),
(316,66,cs)
);
}
);
width = 606;
},
{
associatedMasterId = m01;
layerId = "2743AE31-5E10-493A-AAF8-244AFE4C878D";
width = 603;
},
{
layerId = "E9FB66CC-5D7A-47B2-9A25-A0E8EEF5BB81";
width = 603;
}
);
metricLeft = l;
metricRight = o;
unicode = 254;
},
{
color = 4;
glyphname = q;
layers = (
{
layerId = m01;
shapes = (
{
closed = 1;
nodes = (
(540,-224,l),
(540,548,l),
(454,548,l),
(454,428,l),
(462,428,l),
(438,507,o),
(361,560,o),
(269,560,cs),
(129,560,o),
(36,446,o),
(36,274,cs),
(36,102,o),
(129,-12,o),
(269,-12,cs),
(368,-12,o),
(444,44,o),
(460,128,c),
(452,128,l),
(452,-224,l)
);
},
{
closed = 1;
nodes = (
(189,62,o),
(128,143,o),
(128,274,cs),
(128,404,o),
(190,484,o),
(291,484,cs),
(391,484,o),
(452,403,o),
(452,272,cs),
(452,142,o),
(390,62,o),
(289,62,cs)
);
}
);
width = 606;
},
{
associatedMasterId = m01;
layerId = "A5CA06CC-D337-4C92-8910-F5DBA94E0DFD";
name = "11 set 22, 23:33";
shapes = (
{
closed = 1;
nodes = (
(405,-12,o),
(499,108,o),
(499,284,cs),
(499,448,o),
(405,560,o),
(269,560,cs),
(132,560,o),
(35,440,o),
(35,272,cs),
(35,104,o),
(132,-12,o),
(269,-12,cs)
);
},
{
closed = 1;
nodes = (
(192,64,o),
(126,145,o),
(126,272,cs),
(126,400,o),
(192,482,o),
(295,482,cs),
(392,482,o),
(455,409,o),
(455,296,cs),
(455,248,ls),
(455,136,o),
(392,64,o),
(295,64,cs)
);
},
{
closed = 1;
nodes = (
(541,-224,l),
(541,548,l),
(455,548,l),
(455,128,l),
(453,128,l),
(453,-224,l)
);
}
);
width = 605;
},
{
associatedMasterId = m01;
layerId = "4B9445FE-FA28-49BB-BADA-EA97DD2C659C";
name = "15 gen 23, 17:50";
shapes = (
{
closed = 1;
nodes = (
(540,-224,l),
(540,548,l),
(454,548,l),
(454,396,l),
(470,396,l),
(454,494,o),
(373,560,o),
(267,560,cs),
(128,560,o),
(36,446,o),
(36,274,cs),
(36,102,o),
(128,-12,o),
(267,-12,cs),
(372,-12,o),
(452,52,o),
(468,148,c),
(452,148,l),
(452,-224,l)
);
},
{
closed = 1;
nodes = (
(190,64,o),
(128,144,o),
(128,274,cs),
(128,403,o),
(190,482,o),
(290,482,cs),
(390,482,o),
(452,402,o),
(452,272,cs),
(452,143,o),
(390,64,o),
(290,64,cs)
);
}
);
width = 606;
},
{
layerId = "E9FB66CC-5D7A-47B2-9A25-A0E8EEF5BB81";
shapes = (
{
closed = 1;
nodes = (
(564,-224,l),
(564,548,l),
(432,548,l),
(432,438,l),
(440,438,l),
(420,510,o),
(346,560,o),
(260,560,cs),
(125,560,o),
(30,442,o),
(30,274,cs),
(30,106,o),
(123,-12,o),
(256,-12,cs),
(346,-12,o),
(420,42,o),
(436,118,c),
(428,118,l),
(428,-224,l)
);
},
{
closed = 1;
nodes = (
(221,96,o),
(172,165,o),
(172,276,cs),
(172,385,o),
(221,454,o),
(300,454,cs),
(379,454,o),
(428,385,o),
(428,274,cs),
(428,165,o),
(379,96,o),
(300,96,cs)
);
}
);
width = 620;
}
);
metricLeft = o;
metricRight = idotless;
unicode = 113;
},
{
color = 4;
glyphname = r;
layers = (
{
anchors = (
{
name = bottom;
pos = (112,0);
},
{
name = top;
pos = (214,548);
}
);
layerId = m01;
shapes = (
{
closed = 1;
nodes = (
(154,0,l),
(154,292,ls),
(154,436,o),
(229,500,o),
(350,464,c),
(370,548,l),
(241,588,o),
(148,524,o),
(144,388,c),
(152,388,l),
(152,548,l),
(66,548,l),
(66,0,l)
);
}
);
width = 372;
},
{
anchors = (
{
name = bottom;
pos = (110,0);
},
{
name = top;
pos = (212,548);
}
);
associatedMasterId = m01;
layerId = "65B2E9C1-B927-45BD-8284-3CF38FADF18C";
name = "14 gen 23, 11:53";
shapes = (
{
closed = 1;
nodes = (
(152,0,l),
(152,268,ls),
(152,430,o),
(223,504,o),
(340,462,c),
(364,548,l),
(240,593,o),
(151,529,o),
(142,388,c),
(150,388,l),
(150,548,l),
(64,548,l),
(64,0,l)
);
}
);
width = 372;
},
{
anchors = (
{
name = bottom;
pos = (126,0);
},
{
name = top;
pos = (204,548);
}
);
layerId = "E9FB66CC-5D7A-47B2-9A25-A0E8EEF5BB81";
shapes = (
{
closed = 1;
nodes = (
(192,0,l),
(192,276,ls),
(192,400,o),
(264,450,o),
(376,418,c),
(398,550,l),
(266,586,o),
(180,516,o),
(180,384,c),
(188,384,l),
(188,548,l),
(56,548,l),
(56,0,l)
);
}
);
width = 396;
}
);
metricLeft = idotless;
unicode = 114;
userData = {
KernOnName = r;
};
},
{
color = 2;
glyphname = s;
layers = (
{
anchors = (
{
name = bottom;
pos = (244,0);
},
{
name = top;
pos = (234,548);
}
);
layerId = m01;
name = Regular;
shapes = (
{
closed = 1;
nodes = (
(372,-12,o),
(452,50,o),
(452,146,cs),
(452,342,o),
(124,290,o),
(124,418,cs),
(124,462,o),
(164,490,o),
(228,490,cs),
(302,490,o),
(350,454,o),
(358,390,c),
(442,408,l),
(426,499,o),
(344,560,o),
(228,560,cs),
(114,560,o),
(40,502,o),
(40,412,cs),
(40,224,o),
(366,282,o),
(366,142,cs),
(366,90,o),
(323,58,o),
(252,58,cs),
(172,58,o),
(117,101,o),
(108,172,c),
(20,156,l),
(34,56,o),
(120,-12,o),
(248,-12,cs)
);
}
);
width = 480;
},
{
anchors = (
{
name = bottom;
pos = (252,0);
},
{
name = top;
pos = (242,548);
}
);
associatedMasterId = m01;
layerId = "716FA0A4-726F-4708-906B-DB04000941F2";
name = "14 gen 23, 11:56";
shapes = (
{
closed = 1;
nodes = (
(378,-12,o),
(460,54,o),
(460,152,cs),
(460,348,o),
(130,284,o),
(130,416,cs),
(130,462,o),
(170,492,o),
(232,492,cs),
(302,492,o),
(354,454,o),
(362,390,c),
(448,410,l),
(428,502,o),
(342,560,o),
(234,560,cs),
(121,560,o),
(46,499,o),
(46,408,cs),
(46,220,o),
(374,276,o),
(374,140,cs),
(374,89,o),
(330,58,o),
(262,58,cs),
(182,58,o),
(126,99,o),
(116,172,c),
(26,156,l),
(38,56,o),
(129,-12,o),
(256,-12,cs)
);
}
);
width = 488;
},
{
anchors = (
{
name = bottom;
pos = (256,0);
},
{
name = top;
pos = (246,548);
}
);
layerId = "E9FB66CC-5D7A-47B2-9A25-A0E8EEF5BB81";
shapes = (
{
closed = 1;
nodes = (
(399,-12,o),
(486,52,o),
(486,152,cs),
(486,352,o),
(164,312,o),
(164,412,cs),
(164,443,o),
(193,462,o),
(240,462,cs),
(300,462,o),
(343,430,o),
(350,380,c),
(476,416,l),
(448,508,o),
(362,560,o),
(242,560,cs),
(116,560,o),
(32,503,o),
(32,400,cs),
(32,193,o),
(352,232,o),
(352,136,cs),
(352,106,o),
(321,86,o),
(272,86,cs),
(206,86,o),
(159,121,o),
(152,176,c),
(16,148,l),
(32,52,o),
(124,-12,o),
(260,-12,cs)
);
}
);
width = 508;
}
);
note = "Falls to the left";
unicode = 115;
userData = {
KernOnName = s;
};
},
{
color = 3;
glyphname = t;
layers = (
{
anchors = (
{
name = bottom;
pos = (192,0);
},
{
name = topright;
pos = (184,570);
}
);
layerId = m01;
shapes = (
{
closed = 1;
nodes = (
(300,72,l),
(224,40,o),
(176,64,o),
(176,124,cs),
(176,702,l),
(90,654,l),
(90,536,l),
(88,536,l),
(88,116,ls),
(88,0,o),
(172,-38,o),
(312,2,c)
);
},
{
closed = 1;
nodes = (
(296,474,l),
(296,544,l),
(4,544,l),
(4,474,l)
);
}
);
width = 328;
},
{
anchors = (
{
name = bottom;
pos = (196,0);
},
{
name = topright;
pos = (190,570);
}
);
associatedMasterId = m01;
layerId = "7F47835E-AF98-4634-9DAB-ECCC418EF20D";
name = "15 gen 23, 19:28";
shapes = (
{
closed = 1;
nodes = (
(286,70,l),
(218,50,o),
(180,68,o),
(180,118,cs),
(180,702,l),
(94,654,l),
(94,528,l),
(92,528,l),
(92,108,ls),
(92,8,o),
(168,-34,o),
(292,-2,c)
);
},
{
closed = 1;
nodes = (
(288,474,l),
(288,544,l),
(8,544,l),
(8,474,l)
);
}
);
width = 312;
},
{
anchors = (
{
name = bottom;
pos = (206,0);
},
{
name = topright;
pos = (222,570);
}
);
layerId = "E9FB66CC-5D7A-47B2-9A25-A0E8EEF5BB81";
shapes = (
{
closed = 1;
nodes = (
(336,108,l),
(264,78,o),
(214,100,o),
(214,160,cs),
(214,719,l),
(82,654,l),
(82,536,l),
(78,536,l),
(78,136,ls),
(78,4,o),
(184,-44,o),
(352,8,c)
);
},
{
closed = 1;
nodes = (
(336,446,l),
(336,544,l),
(4,544,l),
(4,446,l)
);
}
);
width = 368;
}
);
note = "Controlla curva";
unicode = 116;
userData = {
KernOnName = t;
};
},
{
color = 4;
glyphname = u;
layers = (
{
anchors = (
{
name = ogonek;
pos = (494,12);
},
{
name = top;
pos = (280,548);
}
);
background = {
shapes = (
{
closed = 1;
nodes = (
(342,-12,o),
(416,50,o),
(432,144,c),
(420,144,l),
(420,0,l),
(506,0,l),
(506,548,l),
(418,548,l),
(418,282,ls),
(418,146,o),
(361,62,o),
(268,62,cs),
(192,62,o),
(146,122,o),
(146,220,cs),
(146,548,l),
(58,548,l),
(58,192,ls),
(58,70,o),
(133,-12,o),
(246,-12,cs)
);
}
);
};
layerId = m01;
shapes = (
{
closed = 1;
nodes = (
(339,-12,o),
(412,49,o),
(428,140,c),
(420,140,l),
(420,0,l),
(506,0,l),
(506,548,l),
(418,548,l),
(418,282,ls),
(418,146,o),
(361,62,o),
(268,62,cs),
(192,62,o),
(146,122,o),
(146,220,cs),
(146,548,l),
(58,548,l),
(58,192,ls),
(58,70,o),
(132,-12,o),
(244,-12,cs)
);
}
);
width = 572;
},
{
anchors = (
{
name = ogonek;
pos = (503,0);
},
{
name = top;
pos = (285,548);
}
);
associatedMasterId = m01;
layerId = "2FB28215-A010-4110-B878-EBE15CE4BAE9";
name = "12 set 22, 00:37";
shapes = (
{
closed = 1;
nodes = (
(347,-12,o),
(437,84,o),
(441,220,c),
(415,296,l),
(415,156,o),
(355,64,o),
(255,64,cs),
(187,64,o),
(147,108,o),
(147,184,cs),
(147,548,l),
(59,548,l),
(59,172,ls),
(59,60,o),
(123,-12,o),
(227,-12,cs)
);
},
{
closed = 1;
nodes = (
(503,0,l),
(503,548,l),
(415,548,l),
(415,220,l),
(417,220,l),
(417,0,l)
);
}
);
width = 567;
},
{
anchors = (
{
name = ogonek;
pos = (522,12);
},
{
name = top;
pos = (289,548);
}
);
layerId = "E9FB66CC-5D7A-47B2-9A25-A0E8EEF5BB81";
shapes = (
{
closed = 1;
nodes = (
(324,-12,o),
(398,49,o),
(410,136,c),
(402,136,l),
(402,0,l),
(534,0,l),
(534,548,l),
(398,548,l),
(398,276,ls),
(398,165,o),
(353,96,o),
(282,96,cs),
(222,96,o),
(184,145,o),
(184,224,cs),
(184,548,l),
(48,548,l),
(48,188,ls),
(48,71,o),
(124,-12,o),
(232,-12,cs)
);
}
);
width = 590;
}
);
metricRight = idotless;
unicode = 117;
userData = {
KernOnName = u;
};
},
{
color = 4;
glyphname = v;
layers = (
{
background = {
shapes = (
{
closed = 1;
nodes = (
(310,0,l),
(500,548,l),
(410,548,l),
(264,96,l),
(102,548,l),
(8,548,l),
(214,0,l)
);
}
);
};
layerId = m01;
shapes = (
{
closed = 1;
nodes = (
(308,0,l),
(496,548,l),
(412,548,l),
(260,84,l),
(268,84,l),
(102,548,l),
(8,548,l),
(212,0,l)
);
}
);
width = 504;
},
{
associatedMasterId = m01;
layerId = "0C99DB98-26D5-46CC-93A5-80DADC753B7F";
name = "12 set 22, 14:37";
shapes = (
{
closed = 1;
nodes = (
(307,0,l),
(503,548,l),
(413,548,l),
(265,100,l),
(105,548,l),
(11,548,l),
(215,0,l)
);
}
);
width = 514;
},
{
layerId = "E9FB66CC-5D7A-47B2-9A25-A0E8EEF5BB81";
shapes = (
{
closed = 1;
nodes = (
(344,0,l),
(526,548,l),
(392,548,l),
(270,132,l),
(278,132,l),
(148,548,l),
(4,548,l),
(192,0,l)
);
}
);
width = 530;
}
);
metricRight = "=|";
unicode = 118;
},
{
color = 3;
glyphname = w;
layers = (
{
layerId = m01;
shapes = (
{
closed = 1;
nodes = (
(263,0,l),
(376,444,l),
(368,444,l),
(479,0,l),
(577,0,l),
(730,548,l),
(646,548,l),
(528,84,l),
(536,84,l),
(420,548,l),
(332,548,l),
(216,84,l),
(224,84,l),
(102,548,l),
(10,548,l),
(164,0,l)
);
}
);
width = 742;
},
{
associatedMasterId = m01;
layerId = "212E25D6-9797-4AAC-B7D3-A7988D284FB7";
name = "12 set 22, 14:46";
shapes = (
{
closed = 1;
nodes = (
(267,0,l),
(391,424,l),
(383,424,l),
(496,0,l),
(590,0,l),
(747,548,l),
(663,548,l),
(547,84,l),
(555,84,l),
(427,548,l),
(351,548,l),
(223,84,l),
(233,84,l),
(109,548,l),
(15,548,l),
(171,0,l)
);
}
);
width = 762;
},
{
associatedMasterId = m01;
layerId = "B5DB4E24-52AF-4678-B9C8-113F4177C386";
name = "18 set 22, 12:42";
shapes = (
{
closed = 1;
nodes = (
(266,0,l),
(390,424,l),
(382,424,l),
(495,0,l),
(589,0,l),
(746,548,l),
(662,548,l),
(543,84,l),
(551,84,l),
(428,548,l),
(348,548,l),
(222,84,l),
(232,84,l),
(108,548,l),
(14,548,l),
(170,0,l)
);
}
);
width = 760;
},
{
layerId = "E9FB66CC-5D7A-47B2-9A25-A0E8EEF5BB81";
shapes = (
{
closed = 1;
nodes = (
(287,0,l),
(380,352,l),
(372,352,l),
(474,0,l),
(626,0,l),
(758,548,l),
(632,548,l),
(548,134,l),
(556,134,l),
(444,548,l),
(332,548,l),
(224,130,l),
(232,130,l),
(142,548,l),
(2,548,l),
(133,0,l)
);
}
);
width = 764;
}
);
unicode = 119;
userData = {
KernOnName = w;
};
},
{
color = 2;
glyphname = x;
layers = (
{
background = {
shapes = (
{
closed = 1;
nodes = (
(468,0,l),
(284,278,l),
(464,548,l),
(368,548,l),
(236,346,l),
(112,548,l),
(8,548,l),
(180,274,l),
(0,0,l),
(98,0,l),
(228,208,l),
(362,0,l)
);
}
);
};
layerId = m01;
shapes = (
{
closed = 1;
nodes = (
(476,0,l),
(290,282,l),
(472,548,l),
(377,548,l),
(243,348,l),
(112,548,l),
(8,548,l),
(190,276,l),
(0,0,l),
(98,0,l),
(236,206,l),
(371,0,l)
);
}
);
width = 476;
},
{
layerId = "E9FB66CC-5D7A-47B2-9A25-A0E8EEF5BB81";
shapes = (
{
closed = 1;
nodes = (
(516,0,l),
(326,284,l),
(506,548,l),
(366,548,l),
(258,384,l),
(152,548,l),
(-8,548,l),
(176,272,l),
(-10,0,l),
(132,0,l),
(244,168,l),
(354,0,l)
);
}
);
width = 506;
},
{
associatedMasterId = m01;
background = {
shapes = (
{
closed = 1;
nodes = (
(468,0,l),
(284,278,l),
(464,548,l),
(368,548,l),
(236,346,l),
(112,548,l),
(8,548,l),
(180,274,l),
(0,0,l),
(98,0,l),
(228,208,l),
(362,0,l)
);
}
);
};
layerId = "33E478D4-ED93-4F16-B0E9-C993E55FA811";
name = "26 feb 23, 17:50";
shapes = (
{
closed = 1;
nodes = (
(476,0,l),
(112,548,l),
(8,548,l),
(371,0,l)
);
},
{
closed = 1;
nodes = (
(98,0,l),
(472,548,l),
(375,548,l),
(0,0,l)
);
}
);
width = 476;
},
{
associatedMasterId = "E9FB66CC-5D7A-47B2-9A25-A0E8EEF5BB81";
layerId = "442051E3-370E-4C2A-A23B-5913F78A970B";
name = "26 feb 23, 17:52";
shapes = (
{
closed = 1;
nodes = (
(516,0,l),
(152,548,l),
(-8,548,l),
(354,0,l)
);
},
{
closed = 1;
nodes = (
(132,0,l),
(506,548,l),
(366,548,l),
(-10,0,l)
);
}
);
width = 506;
}
);
metricRight = "=|";
unicode = 120;
userData = {
KernOnName = x;
};
},
{
color = 3;
glyphname = y;
layers = (
{
anchors = (
{
name = top;
pos = (260,548);
}
);
layerId = m01;
shapes = (
{
closed = 1;
nodes = (
(122,-260,o),
(216,-222,o),
(256,-116,cs),
(508,548,l),
(420,548,l),
(256,96,l),
(264,96,l),
(104,548,l),
(8,548,l),
(220,-12,l),
(220,4,l),
(184,-92,ls),
(158,-163,o),
(95,-183,o),
(20,-144,c),
(6,-220,l)
);
}
);
width = 516;
},
{
anchors = (
{
name = top;
pos = (264,548);
}
);
associatedMasterId = m01;
layerId = "F1CC2DB7-665C-449D-BA14-66198D3FED25";
name = "18 set 22, 12:45";
shapes = (
{
closed = 1;
nodes = (
(119,-262,o),
(216,-226,o),
(254,-124,cs),
(504,548,l),
(414,548,l),
(252,88,l),
(264,88,l),
(106,548,l),
(12,548,l),
(214,0,l),
(182,-88,ls),
(155,-162,o),
(93,-181,o),
(14,-140,c),
(8,-216,l)
);
}
);
width = 516;
},
{
anchors = (
{
name = top;
pos = (270,548);
}
);
layerId = "E9FB66CC-5D7A-47B2-9A25-A0E8EEF5BB81";
shapes = (
{
closed = 1;
nodes = (
(136,-264,o),
(248,-228,o),
(288,-120,cs),
(536,548,l),
(400,548,l),
(266,130,l),
(274,130,l),
(148,548,l),
(0,548,l),
(196,-16,l),
(196,0,l),
(168,-68,ls),
(146,-122,o),
(89,-134,o),
(20,-100,c),
(-2,-216,l)
);
}
);
width = 540;
}
);
metricRight = v;
unicode = 121;
userData = {
KernOnName = y;
};
},
{
color = 4;
glyphname = z;
layers = (
{
anchors = (
{
name = top;
pos = (238,548);
}
);
layerId = m01;
shapes = (
{
closed = 1;
nodes = (
(448,0,l),
(448,70,l),
(224,70,ls),
(192,70,o),
(160,68,o),
(136,64,c),
(440,488,l),
(440,548,l),
(32,548,l),
(32,479,l),
(246,479,ls),
(278,479,o),
(310,481,o),
(334,485,c),
(28,60,l),
(28,0,l)
);
}
);
width = 474;
},
{
anchors = (
{
name = top;
pos = (245,548);
}
);
layerId = "E9FB66CC-5D7A-47B2-9A25-A0E8EEF5BB81";
shapes = (
{
closed = 1;
nodes = (
(462,1,l),
(462,102,l),
(282,102,ls),
(250,102,o),
(218,100,o),
(194,96,c),
(456,461,l),
(456,549,l),
(26,548,l),
(26,448,l),
(200,448,ls),
(232,448,o),
(264,450,o),
(288,454,c),
(24,86,l),
(24,0,l)
);
}
);
width = 484;
}
);
unicode = 122;
userData = {
KernOnName = z;
};
},
{
glyphname = t_t.liga;
layers = (
{
layerId = m01;
shapes = (
{
ref = t;
},
{
pos = (300,0);
ref = t;
},
{
closed = 1;
nodes = (
(316,474,l),
(316,544,l),
(292,544,l),
(292,474,l)
);
}
);
width = 628;
},
{
associatedMasterId = m01;
layerId = "2743AE31-5E10-493A-AAF8-244AFE4C878D";
width = 614;
},
{
layerId = "E9FB66CC-5D7A-47B2-9A25-A0E8EEF5BB81";
width = 614;
}
);
metricLeft = t;
metricRight = t;
},
{
glyphname = t_t_t_i.liga;
layers = (
{
layerId = m01;
shapes = (
{
closed = 1;
nodes = (
(1078,0,l),
(1078,544,l),
(990,544,l),
(990,0,l)
);
},
{
ref = t;
},
{
pos = (300,0);
ref = t;
},
{
closed = 1;
nodes = (
(316,474,l),
(316,544,l),
(292,544,l),
(292,474,l)
);
},
{
pos = (600,0);
ref = t;
},
{
closed = 1;
nodes = (
(616,474,l),
(616,544,l),
(592,544,l),
(592,474,l)
);
},
{
closed = 1;
nodes = (
(1002,474,l),
(1002,544,l),
(892,544,l),
(892,474,l)
);
},
{
closed = 1;
nodes = (
(1081,628,l),
(1081,724,l),
(987,724,l),
(987,628,l)
);
}
);
width = 1144;
},
{
associatedMasterId = m01;
layerId = "2743AE31-5E10-493A-AAF8-244AFE4C878D";
width = 872;
},
{
layerId = "E9FB66CC-5D7A-47B2-9A25-A0E8EEF5BB81";
width = 872;
}
);
metricLeft = t;
metricRight = i;
},
{
glyphname = ordfeminine;
layers = (
{
layerId = m01;
shapes = (
{
closed = 1;
nodes = (
(230,324,o),
(284,369,o),
(292,436,c),
(284,436,l),
(284,385,o),
(288,354,o),
(296,332,c),
(368,332,l),
(362,356,o),
(358,386,o),
(358,418,cs),
(358,576,ls),
(358,655,o),
(301,708,o),
(216,708,cs),
(137,708,o),
(68,663,o),
(44,596,c),
(112,572,l),
(123,618,o),
(160,646,o),
(210,646,cs),
(256,646,o),
(284,619,o),
(284,576,cs),
(284,528,ls),
(284,442,o),
(244,390,o),
(180,390,cs),
(140,390,o),
(116,409,o),
(116,440,cs),
(116,468,o),
(137,490,o),
(172,496,cs),
(296,518,l),
(292,572,l),
(160,548,ls),
(84,534,o),
(38,488,o),
(38,428,cs),
(38,366,o),
(86,324,o),
(158,324,cs)
);
}
);
width = 412;
},
{
associatedMasterId = m01;
layerId = "2743AE31-5E10-493A-AAF8-244AFE4C878D";
width = 506;
},
{
layerId = "E9FB66CC-5D7A-47B2-9A25-A0E8EEF5BB81";
width = 506;
}
);
unicode = 170;
userData = {
KernOnSpecialSpacing = {
L = superiors;
R = superiors;
};
};
},
{
glyphname = ordmasculine;
layers = (
{
layerId = m01;
shapes = (
{
closed = 1;
nodes = (
(307,324,o),
(376,401,o),
(376,516,cs),
(376,631,o),
(307,708,o),
(204,708,cs),
(101,708,o),
(32,631,o),
(32,516,cs),
(32,401,o),
(101,324,o),
(204,324,cs)
);
},
{
closed = 1;
nodes = (
(147,392,o),
(112,440,o),
(112,517,cs),
(112,594,o),
(147,641,o),
(204,641,cs),
(261,641,o),
(296,594,o),
(296,517,cs),
(296,440,o),
(261,392,o),
(204,392,cs)
);
}
);
width = 408;
},
{
associatedMasterId = m01;
layerId = "2743AE31-5E10-493A-AAF8-244AFE4C878D";
width = 504;
},
{
layerId = "E9FB66CC-5D7A-47B2-9A25-A0E8EEF5BB81";
width = 504;
}
);
metricRight = "=|";
unicode = 186;
userData = {
KernOnSpecialSpacing = {
L = superiors;
R = superiors;
};
};
},
{
glyphname = zero;
layers = (
{
layerId = m01;
shapes = (
{
closed = 1;
nodes = (
(493,-12,o),
(600,131,o),
(600,350,cs),
(600,569,o),
(493,712,o),
(328,712,cs),
(163,712,o),
(56,569,o),
(56,350,cs),
(56,131,o),
(163,-12,o),
(328,-12,cs)
);
},
{
closed = 1;
nodes = (
(216,70,o),
(150,174,o),
(150,351,cs),
(150,528,o),
(216,632,o),
(328,632,cs),
(440,632,o),
(506,528,o),
(506,351,cs),
(506,174,o),
(440,70,o),
(328,70,cs)
);
}
);
width = 656;
},
{
associatedMasterId = m01;
layerId = "2743AE31-5E10-493A-AAF8-244AFE4C878D";
shapes = (
{
closed = 1;
nodes = (
(502,-12,o),
(610,131,o),
(610,350,cs),
(610,570,o),
(502,712,o),
(330,712,cs),
(159,712,o),
(50,570,o),
(50,350,cs),
(50,131,o),
(159,-12,o),
(330,-12,cs)
);
},
{
closed = 1;
nodes = (
(244,98,o),
(194,191,o),
(194,351,cs),
(194,512,o),
(244,605,o),
(330,605,cs),
(416,605,o),
(466,512,o),
(466,351,cs),
(466,191,o),
(416,98,o),
(330,98,cs)
);
}
);
width = 660;
},
{
layerId = "E9FB66CC-5D7A-47B2-9A25-A0E8EEF5BB81";
shapes = (
{
closed = 1;
nodes = (
(502,-12,o),
(610,131,o),
(610,350,cs),
(610,570,o),
(502,712,o),
(330,712,cs),
(159,712,o),
(50,570,o),
(50,350,cs),
(50,131,o),
(159,-12,o),
(330,-12,cs)
);
},
{
closed = 1;
nodes = (
(244,98,o),
(194,191,o),
(194,351,cs),
(194,512,o),
(244,605,o),
(330,605,cs),
(416,605,o),
(466,512,o),
(466,351,cs),
(466,191,o),
(416,98,o),
(330,98,cs)
);
}
);
width = 660;
}
);
metricRight = "=|";
unicode = 48;
},
{
glyphname = one;
layers = (
{
layerId = m01;
shapes = (
{
closed = 1;
nodes = (
(276,0,l),
(276,700,l),
(196,700,l),
(165,625,o),
(93,572,o),
(8,560,c),
(12,472,l),
(96,484,o),
(166,528,o),
(194,580,c),
(186,580,l),
(186,0,l)
);
}
);
width = 352;
},
{
associatedMasterId = m01;
layerId = "2743AE31-5E10-493A-AAF8-244AFE4C878D";
shapes = (
{
closed = 1;
nodes = (
(324,0,l),
(324,700,l),
(199,700,l),
(160,633,o),
(88,584,o),
(7,568,c),
(15,426,l),
(92,440,o),
(161,488,o),
(191,546,c),
(183,546,l),
(183,0,l)
);
}
);
width = 390;
},
{
layerId = "E9FB66CC-5D7A-47B2-9A25-A0E8EEF5BB81";
shapes = (
{
closed = 1;
nodes = (
(324,0,l),
(324,700,l),
(199,700,l),
(160,633,o),
(88,584,o),
(7,568,c),
(15,426,l),
(92,440,o),
(161,488,o),
(191,546,c),
(183,546,l),
(183,0,l)
);
}
);
width = 390;
}
);
unicode = 49;
},
{
glyphname = two;
layers = (
{
layerId = m01;
shapes = (
{
closed = 1;
nodes = (
(532,0,l),
(532,78,l),
(160,78,l),
(200,238,o),
(526,292,o),
(526,508,cs),
(526,628,o),
(432,712,o),
(300,712,cs),
(168,712,o),
(68,632,o),
(44,512,c),
(134,488,l),
(150,581,o),
(214,638,o),
(298,638,cs),
(378,638,o),
(432,590,o),
(432,512,cs),
(432,316,o),
(51,291,o),
(51,20,cs),
(51,0,l)
);
}
);
width = 580;
},
{
associatedMasterId = m01;
layerId = "2743AE31-5E10-493A-AAF8-244AFE4C878D";
width = 590;
},
{
layerId = "E9FB66CC-5D7A-47B2-9A25-A0E8EEF5BB81";
width = 590;
}
);
unicode = 50;
},
{
glyphname = three;
layers = (
{
layerId = m01;
shapes = (
{
closed = 1;
nodes = (
(446,-12,o),
(544,70,o),
(544,192,cs),
(544,285,o),
(487,355,o),
(394,374,c),
(394,366,l),
(474,390,o),
(520,451,o),
(520,532,cs),
(520,644,o),
(432,712,o),
(298,712,cs),
(162,712,o),
(66,636,o),
(50,520,c),
(138,500,l),
(150,588,o),
(210,640,o),
(298,640,cs),
(380,640,o),
(428,594,o),
(428,524,cs),
(428,446,o),
(375,404,o),
(284,404,cs),
(234,404,l),
(234,332,l),
(290,332,ls),
(390,332,o),
(450,280,o),
(450,196,cs),
(450,113,o),
(392,62,o),
(298,62,cs),
(195,62,o),
(130,124,o),
(126,224,c),
(32,212,l),
(40,78,o),
(147,-12,o),
(300,-12,cs)
);
}
);
width = 592;
},
{
associatedMasterId = m01;
layerId = "58079D75-D1D9-4B0E-B614-F47C8C06ABA4";
name = "17 set 22, 23:18";
shapes = (
{
closed = 1;
nodes = (
(437,-12,o),
(536,70,o),
(536,198,cs),
(536,292,o),
(483,362,o),
(392,388,c),
(392,380,l),
(468,404,o),
(512,464,o),
(512,536,cs),
(512,643,o),
(423,712,o),
(284,712,cs),
(143,712,o),
(49,634,o),
(44,512,c),
(136,500,l),
(144,585,o),
(200,634,o),
(288,634,cs),
(370,634,o),
(418,595,o),
(418,528,cs),
(418,459,o),
(364,416,o),
(272,416,cs),
(224,416,l),
(224,344,l),
(280,344,ls),
(381,344,o),
(440,292,o),
(440,204,cs),
(440,118,o),
(384,68,o),
(288,68,cs),
(185,68,o),
(122,130,o),
(118,234,c),
(24,218,l),
(28,78,o),
(130,-12,o),
(284,-12,cs)
);
}
);
width = 572;
},
{
associatedMasterId = m01;
layerId = "2743AE31-5E10-493A-AAF8-244AFE4C878D";
width = 596;
},
{
layerId = "E9FB66CC-5D7A-47B2-9A25-A0E8EEF5BB81";
width = 596;
}
);
metricRight = eight;
unicode = 51;
},
{
glyphname = four;
layers = (
{
layerId = m01;
shapes = (
{
closed = 1;
nodes = (
(456,0,l),
(456,700,l),
(368,700,l),
(12,254,l),
(12,174,l),
(546,174,l),
(546,250,l),
(100,250,l),
(366,588,l),
(366,0,l)
);
}
);
width = 580;
},
{
associatedMasterId = m01;
background = {
shapes = (
{
closed = 1;
nodes = (
(433,168,l),
(527,168,l),
(527,246,l),
(433,246,l),
(433,700,l),
(362,700,l),
(43,246,l),
(43,168,l),
(347,168,l),
(347,0,l),
(433,0,l)
);
},
{
closed = 1;
nodes = (
(347,562,l),
(347,246,l),
(128,246,l)
);
}
);
};
layerId = "1DF57487-6768-4F70-AA48-F402B1C9BFB8";
name = "17 set 22, 23:25";
shapes = (
{
closed = 1;
nodes = (
(437,0,l),
(437,700,l),
(341,700,l),
(12,248,l),
(12,168,l),
(540,168,l),
(540,246,l),
(104,246,l),
(347,588,l),
(347,0,l)
);
}
);
width = 556;
},
{
associatedMasterId = m01;
layerId = "2743AE31-5E10-493A-AAF8-244AFE4C878D";
width = 590;
},
{
layerId = "E9FB66CC-5D7A-47B2-9A25-A0E8EEF5BB81";
width = 590;
}
);
unicode = 52;
},
{
glyphname = five;
layers = (
{
layerId = m01;
shapes = (
{
closed = 1;
nodes = (
(437,-12,o),
(538,86,o),
(538,232,cs),
(538,375,o),
(446,470,o),
(308,470,cs),
(220,470,o),
(148,430,o),
(128,368,c),
(140,368,l),
(176,624,l),
(498,624,l),
(498,700,l),
(108,700,l),
(60,344,l),
(144,312,l),
(168,365,o),
(220,398,o),
(288,398,cs),
(383,398,o),
(442,334,o),
(442,230,cs),
(442,126,o),
(382,62,o),
(284,62,cs),
(194,62,o),
(132,116,o),
(122,204,c),
(32,184,l),
(48,66,o),
(150,-12,o),
(286,-12,cs)
);
}
);
width = 580;
},
{
associatedMasterId = m01;
layerId = "E6565ECA-7807-46DA-B685-F1571C78D1FB";
name = "13 nov 22, 13:13";
shapes = (
{
closed = 1;
nodes = (
(40,163,l),
(68,56,o),
(162,-12,o),
(290,-12,cs),
(443,-12,o),
(542,84,o),
(542,232,cs),
(542,375,o),
(451,468,o),
(312,468,cs),
(228,468,o),
(166,436,o),
(140,380,c),
(149,376,l),
(183,624,l),
(494,624,l),
(494,700,l),
(116,700,l),
(68,344,l),
(152,312,l),
(177,366,o),
(231,398,o),
(296,398,cs),
(390,398,o),
(448,336,o),
(448,232,cs),
(448,125,o),
(390,62,o),
(292,62,cs),
(201,62,o),
(141,116,o),
(116,210,c)
);
}
);
width = 580;
},
{
associatedMasterId = m01;
layerId = "837BEE61-FC70-4AA9-8428-7EDF1BD7C06A";
name = "29 Sep 22, 23:52";
shapes = (
{
closed = 1;
nodes = (
(443,-12,o),
(542,84,o),
(542,232,cs),
(542,375,o),
(451,468,o),
(312,468,cs),
(228,468,o),
(166,436,o),
(140,380,c),
(153,376,l),
(183,624,l),
(494,624,l),
(494,700,l),
(116,700,l),
(68,344,l),
(152,312,l),
(177,366,o),
(231,398,o),
(296,398,cs),
(390,398,o),
(448,336,o),
(448,232,cs),
(448,125,o),
(390,62,o),
(292,62,cs),
(194,62,o),
(132,125,o),
(124,232,c),
(32,216,l),
(40,78,o),
(142,-12,o),
(290,-12,cs)
);
}
);
width = 580;
},
{
associatedMasterId = m01;
layerId = "2743AE31-5E10-493A-AAF8-244AFE4C878D";
width = 590;
},
{
layerId = "E9FB66CC-5D7A-47B2-9A25-A0E8EEF5BB81";
width = 590;
}
);
unicode = 53;
},
{
glyphname = six;
layers = (
{
layerId = m01;
shapes = (
{
closed = 1;
nodes = (
(472,-12,o),
(572,84,o),
(572,228,cs),
(572,368,o),
(475,464,o),
(328,464,cs),
(232,464,o),
(158,420,o),
(134,344,c),
(146,344,l),
(150,528,o),
(222,640,o),
(336,640,cs),
(405,640,o),
(454,597,o),
(466,526,c),
(554,548,l),
(530,648,o),
(446,712,o),
(338,712,cs),
(166,712,o),
(54,554,o),
(54,316,cs),
(54,112,o),
(153,-12,o),
(321,-12,cs)
);
},
{
closed = 1;
nodes = (
(218,62,o),
(156,126,o),
(156,228,cs),
(156,330,o),
(218,394,o),
(316,394,cs),
(414,394,o),
(476,330,o),
(476,228,cs),
(476,126,o),
(414,62,o),
(316,62,cs)
);
}
);
width = 622;
},
{
associatedMasterId = m01;
layerId = "2743AE31-5E10-493A-AAF8-244AFE4C878D";
width = 611;
},
{
layerId = "E9FB66CC-5D7A-47B2-9A25-A0E8EEF5BB81";
width = 611;
}
);
metricLeft = "=zero-2";
unicode = 54;
},
{
glyphname = seven;
layers = (
{
layerId = m01;
shapes = (
{
closed = 1;
nodes = (
(204,0,l),
(212,228,o),
(304,442,o),
(472,626,c),
(472,700,l),
(8,700,l),
(8,618,l),
(360,618,l),
(212,450,o),
(124,236,o),
(112,0,c)
);
}
);
width = 480;
},
{
associatedMasterId = m01;
layerId = "2743AE31-5E10-493A-AAF8-244AFE4C878D";
width = 540;
},
{
layerId = "E9FB66CC-5D7A-47B2-9A25-A0E8EEF5BB81";
width = 540;
}
);
unicode = 55;
userData = {
KernOnName = seven;
};
},
{
glyphname = eight;
layers = (
{
layerId = m01;
shapes = (
{
closed = 1;
nodes = (
(472,-12,o),
(576,68,o),
(576,192,cs),
(576,284,o),
(518,356,o),
(426,384,c),
(426,372,l),
(506,396,o),
(552,454,o),
(552,530,cs),
(552,638,o),
(457,712,o),
(312,712,cs),
(167,712,o),
(72,638,o),
(72,530,cs),
(72,454,o),
(118,396,o),
(198,372,c),
(198,384,l),
(106,356,o),
(48,284,o),
(48,192,cs),
(48,68,o),
(152,-12,o),
(312,-12,cs)
);
},
{
closed = 1;
nodes = (
(208,62,o),
(142,114,o),
(142,202,cs),
(142,290,o),
(208,342,o),
(312,342,cs),
(416,342,o),
(482,290,o),
(482,202,cs),
(482,114,o),
(416,62,o),
(312,62,cs)
);
},
{
closed = 1;
nodes = (
(219,408,o),
(164,451,o),
(164,524,cs),
(164,597,o),
(219,640,o),
(312,640,cs),
(405,640,o),
(460,597,o),
(460,524,cs),
(460,451,o),
(405,408,o),
(312,408,cs)
);
}
);
width = 624;
},
{
associatedMasterId = m01;
layerId = "08197FF4-0668-4781-B489-596F5CD947A0";
name = "17 set 22, 23:13";
shapes = (
{
closed = 1;
nodes = (
(467,-12,o),
(572,70,o),
(572,198,cs),
(572,326,o),
(467,408,o),
(304,408,cs),
(141,408,o),
(36,326,o),
(36,198,cs),
(36,70,o),
(141,-12,o),
(304,-12,cs)
);
},
{
closed = 1;
nodes = (
(194,62,o),
(130,115,o),
(130,206,cs),
(130,297,o),
(194,350,o),
(304,350,cs),
(414,350,o),
(478,297,o),
(478,206,cs),
(478,115,o),
(414,62,o),
(304,62,cs)
);
},
{
closed = 1;
nodes = (
(158,712,o),
(64,643,o),
(64,536,cs),
(64,429,o),
(158,360,o),
(304,360,cs),
(450,360,o),
(544,429,o),
(544,536,cs),
(544,643,o),
(450,712,o),
(304,712,cs)
);
},
{
closed = 1;
nodes = (
(397,640,o),
(452,599,o),
(452,528,cs),
(452,457,o),
(397,416,o),
(304,416,cs),
(211,416,o),
(156,457,o),
(156,528,cs),
(156,599,o),
(211,640,o),
(304,640,cs)
);
}
);
width = 608;
},
{
associatedMasterId = m01;
layerId = "2743AE31-5E10-493A-AAF8-244AFE4C878D";
width = 612;
},
{
layerId = "E9FB66CC-5D7A-47B2-9A25-A0E8EEF5BB81";
width = 612;
}
);
metricRight = "=|";
unicode = 56;
},
{
glyphname = nine;
layers = (
{
layerId = m01;
name = Regular;
shapes = (
{
closed = 1;
nodes = (
(444,-12,o),
(556,140,o),
(556,384,cs),
(556,592,o),
(458,712,o),
(294,712,cs),
(150,712,o),
(54,619,o),
(54,480,cs),
(54,345,o),
(145,254,o),
(282,254,cs),
(381,254,o),
(458,302,o),
(478,376,c),
(466,376,l),
(464,176,o),
(398,62,o),
(280,62,cs),
(206,62,o),
(152,107,o),
(140,180,c),
(48,160,l),
(69,57,o),
(160,-12,o),
(276,-12,cs)
);
},
{
closed = 1;
nodes = (
(206,324,o),
(146,384,o),
(146,482,cs),
(146,580,o),
(206,640,o),
(300,640,cs),
(394,640,o),
(454,580,o),
(454,482,cs),
(454,384,o),
(394,324,o),
(300,324,cs)
);
}
);
width = 610;
},
{
associatedMasterId = m01;
layerId = "1009C81D-0DF1-4292-8FEA-9B724190B5E1";
name = "14 gen 23, 14:10";
shapes = (
{
closed = 1;
nodes = (
(448,-12,o),
(550,140,o),
(550,392,cs),
(550,592,o),
(452,712,o),
(288,712,cs),
(141,712,o),
(44,618,o),
(44,476,cs),
(44,346,o),
(134,257,o),
(268,254,cs),
(371,252,o),
(452,301,o),
(472,376,c),
(460,376,l),
(456,183,o),
(396,64,o),
(276,64,cs),
(203,64,o),
(148,110,o),
(132,184,c),
(44,152,l),
(68,54,o),
(160,-12,o),
(276,-12,cs)
);
},
{
closed = 1;
nodes = (
(198,324,o),
(140,384,o),
(140,482,cs),
(140,578,o),
(198,640,o),
(292,640,cs),
(388,640,o),
(448,577,o),
(448,479,cs),
(448,383,o),
(386,324,o),
(292,324,cs)
);
}
);
width = 598;
},
{
associatedMasterId = m01;
layerId = "C33A69F2-8DDE-41D9-9E25-18598F73B183";
name = "13 nov 22, 13:54";
shapes = (
{
closed = 1;
nodes = (
(147,712,o),
(47,617,o),
(47,472,cs),
(47,350,o),
(139,261,o),
(271,258,cs),
(370,256,o),
(447,311,o),
(472,389,c),
(464,369,l),
(464,169,o),
(406,64,o),
(290,64,cs),
(214,64,o),
(159,108,o),
(136,180,c),
(52,152,l),
(81,48,o),
(164,-12,o),
(286,-12,cs),
(463,-12,o),
(553,124,o),
(553,386,cs),
(553,600,o),
(462,712,o),
(287,712,cs)
);
},
{
closed = 1;
nodes = (
(391,638,o),
(453,575,o),
(453,482,cs),
(453,387,o),
(391,331,o),
(294,331,cs),
(201,331,o),
(141,390,o),
(141,482,cs),
(141,577,o),
(199,638,o),
(290,638,cs)
);
}
);
width = 600;
},
{
associatedMasterId = m01;
layerId = "F46F4083-53E4-41D9-A31D-2A72206D767B";
name = "28 Sep 22, 14:15";
shapes = (
{
closed = 1;
nodes = (
(456,-12,o),
(556,184,o),
(556,400,cs),
(556,604,o),
(456,712,o),
(288,712,cs),
(143,712,o),
(48,620,o),
(48,478,cs),
(48,340,o),
(140,250,o),
(282,250,cs),
(376,250,o),
(448,290,o),
(474,356,c),
(462,358,l),
(454,172,o),
(383,62,o),
(272,62,cs),
(196,62,o),
(144,112,o),
(130,192,c),
(44,164,l),
(68,57,o),
(156,-12,o),
(268,-12,cs)
);
},
{
closed = 1;
nodes = (
(199,320,o),
(140,379,o),
(140,478,cs),
(140,578,o),
(199,640,o),
(298,640,cs),
(396,640,o),
(454,578,o),
(454,478,cs),
(454,379,o),
(396,320,o),
(298,320,cs)
);
}
);
width = 604;
},
{
associatedMasterId = m01;
layerId = "2743AE31-5E10-493A-AAF8-244AFE4C878D";
width = 605;
},
{
layerId = "E9FB66CC-5D7A-47B2-9A25-A0E8EEF5BB81";
width = 605;
}
);
metricRight = "=zero-2";
unicode = 57;
},
{
glyphname = fraction;
layers = (
{
layerId = m01;
shapes = (
{
closed = 1;
nodes = (
(440,660,l),
(380,708,l),
(-140,40,l),
(-80,-8,l)
);
}
);
width = 300;
},
{
associatedMasterId = m01;
layerId = "B418C856-9B9E-4990-9EAD-9739E0F38F8F";
name = "14 gen 23, 22:34";
shapes = (
{
closed = 1;
nodes = (
(472,664,l),
(412,712,l),
(-136,36,l),
(-76,-12,l)
);
}
);
width = 336;
},
{
associatedMasterId = m01;
layerId = "2743AE31-5E10-493A-AAF8-244AFE4C878D";
width = 450;
},
{
layerId = "E9FB66CC-5D7A-47B2-9A25-A0E8EEF5BB81";
width = 450;
}
);
metricRight = "=|";
unicode = 8260;
userData = {
KernOnSpecialSpacing = {
L = fraction;
R = fraction;
};
};
},
{
glyphname = zerosuperior;
layers = (
{
layerId = m01;
shapes = (
{
closed = 1;
nodes = (
(316,308,o),
(389,394,o),
(389,523,cs),
(389,653,o),
(316,740,o),
(207,740,cs),
(98,740,o),
(25,653,o),
(25,523,cs),
(25,394,o),
(98,308,o),
(207,308,cs)
);
},
{
closed = 1;
nodes = (
(141,374,o),
(103,430,o),
(103,524,cs),
(103,618,o),
(141,674,o),
(207,674,cs),
(273,674,o),
(311,618,o),
(311,524,cs),
(311,430,o),
(273,374,o),
(207,374,cs)
);
}
);
width = 414;
},
{
associatedMasterId = m01;
layerId = "2743AE31-5E10-493A-AAF8-244AFE4C878D";
width = 507;
},
{
layerId = "E9FB66CC-5D7A-47B2-9A25-A0E8EEF5BB81";
width = 507;
}
);
metricRight = "=|";
unicode = 8304;
userData = {
KernOnSpecialSpacing = {
L = superiors;
R = superiors;
};
};
},
{
glyphname = onesuperior;
layers = (
{
layerId = m01;
shapes = (
{
closed = 1;
nodes = (
(197,316,l),
(197,732,l),
(131,732,l),
(111,688,o),
(65,656,o),
(13,648,c),
(17,568,l),
(61,576,o),
(103,600,o),
(123,628,c),
(123,316,l)
);
}
);
width = 249;
},
{
associatedMasterId = m01;
layerId = "2743AE31-5E10-493A-AAF8-244AFE4C878D";
width = 424.5;
},
{
layerId = "E9FB66CC-5D7A-47B2-9A25-A0E8EEF5BB81";
width = 424.5;
}
);
unicode = 185;
userData = {
KernOnSpecialSpacing = {
L = superiors;
R = superiors;
};
};
},
{
glyphname = foursuperior;
layers = (
{
layerId = m01;
shapes = (
{
closed = 1;
nodes = (
(296,316,l),
(296,732,l),
(226,732,l),
(14,476,l),
(14,410,l),
(352,410,l),
(352,474,l),
(88,474,l),
(222,640,l),
(222,316,l)
);
}
);
width = 364;
},
{
associatedMasterId = m01;
layerId = "2743AE31-5E10-493A-AAF8-244AFE4C878D";
width = 482;
},
{
layerId = "E9FB66CC-5D7A-47B2-9A25-A0E8EEF5BB81";
width = 482;
}
);
unicode = 8308;
userData = {
KernOnSpecialSpacing = {
L = superiors;
R = superiors;
};
};
},
{
color = 1;
glyphname = .notdef;
layers = (
{
layerId = m01;
shapes = (
{
closed = 1;
nodes = (
(641,0,l),
(641,700,l),
(65,700,l),
(65,0,l)
);
},
{
closed = 1;
nodes = (
(137,632,l),
(569,632,l),
(569,70,l),
(137,70,l)
);
}
);
width = 706;
},
{
associatedMasterId = m01;
layerId = "2743AE31-5E10-493A-AAF8-244AFE4C878D";
width = 653;
},
{
layerId = "E9FB66CC-5D7A-47B2-9A25-A0E8EEF5BB81";
width = 653;
}
);
metricRight = "=|";
},
{
glyphname = period;
layers = (
{
layerId = m01;
shapes = (
{
closed = 1;
nodes = (
(164,0,l),
(164,112,l),
(56,112,l),
(56,0,l)
);
}
);
width = 220;
},
{
associatedMasterId = m01;
layerId = "2743AE31-5E10-493A-AAF8-244AFE4C878D";
width = 410;
},
{
layerId = "E9FB66CC-5D7A-47B2-9A25-A0E8EEF5BB81";
shapes = (
{
closed = 1;
nodes = (
(196,0,l),
(196,152,l),
(40,152,l),
(40,0,l)
);
}
);
width = 236;
}
);
metricRight = "=|";
unicode = 46;
userData = {
KernOnName = period;
KernOnSpecialSpacing = {
L = period;
R = period;
};
};
},
{
glyphname = comma;
layers = (
{
layerId = m01;
shapes = (
{
closed = 1;
nodes = (
(124,-110,o),
(162,-60,o),
(162,0,cs),
(162,112,l),
(52,112,l),
(52,0,l),
(112,0,l),
(112,-8,ls),
(112,-40,o),
(86,-70,o),
(42,-82,c),
(60,-128,l)
);
}
);
width = 212;
},
{
associatedMasterId = m01;
layerId = "A243CDD8-8C6C-4B12-9F07-8D2E2A9150E5";
name = "15.10.21, 14:20";
shapes = (
{
closed = 1;
nodes = (
(100,-104,l),
(168,112,l),
(76,112,l),
(28,-104,l)
);
}
);
width = 208;
},
{
associatedMasterId = m01;
layerId = "2743AE31-5E10-493A-AAF8-244AFE4C878D";
width = 406;
},
{
layerId = "E9FB66CC-5D7A-47B2-9A25-A0E8EEF5BB81";
shapes = (
{
closed = 1;
nodes = (
(137,-136,o),
(192,-71,o),
(192,12,cs),
(192,152,l),
(42,152,l),
(42,0,l),
(118,0,l),
(118,-4,ls),
(118,-49,o),
(86,-80,o),
(28,-92,c),
(50,-156,l)
);
}
);
width = 228;
}
);
metricLeft = "=|-8";
unicode = 44;
userData = {
KernOnSpecialSpacing = {
L = period;
R = period;
};
};
},
{
glyphname = exclam;
layers = (
{
layerId = m01;
shapes = (
{
closed = 1;
nodes = (
(147,196,l),
(170,556,l),
(170,700,l),
(66,700,l),
(66,556,l),
(87,196,l)
);
},
{
pos = (8,0);
ref = period;
}
);
width = 236;
},
{
associatedMasterId = m01;
layerId = "2743AE31-5E10-493A-AAF8-244AFE4C878D";
width = 418;
},
{
layerId = "E9FB66CC-5D7A-47B2-9A25-A0E8EEF5BB81";
shapes = (
{
closed = 1;
nodes = (
(168,216,l),
(200,560,l),
(200,700,l),
(52,700,l),
(52,560,l),
(80,216,l)
);
},
{
pos = (8,0);
ref = period;
}
);
width = 252;
}
);
metricRight = "=|";
unicode = 33;
userData = {
KernOnSpecialSpacing = {
L = "spaced-off";
};
};
},
{
color = 3;
glyphname = question;
layers = (
{
layerId = m01;
shapes = (
{
closed = 1;
nodes = (
(292,256,l),
(274,265,o),
(264,283,o),
(264,302,cs),
(264,390,o),
(468,396,o),
(468,548,cs),
(468,646,o),
(388,712,o),
(268,712,cs),
(154,712,o),
(60,648,o),
(32,552,c),
(120,524,l),
(138,595,o),
(194,638,o),
(268,638,cs),
(332,638,o),
(372,605,o),
(372,552,cs),
(372,440,o),
(172,440,o),
(172,312,cs),
(172,264,o),
(200,222,o),
(244,200,c)
);
},
{
pos = (144,0);
ref = period;
}
);
width = 508;
},
{
associatedMasterId = m01;
layerId = "ABBD0F9D-32C8-4402-A67D-54C91D0F8ABA";
name = "14 gen 23, 22:44";
shapes = (
{
closed = 1;
nodes = (
(325,196,l),
(335,338,o),
(518,378,o),
(518,527,cs),
(518,640,o),
(428,712,o),
(289,712,cs),
(158,712,o),
(72,632,o),
(52,508,c),
(137,488,l),
(153,582,o),
(210,638,o),
(293,638,cs),
(373,638,o),
(424,591,o),
(424,519,cs),
(424,409,o),
(257,373,o),
(247,196,c)
);
},
{
pos = (164,0);
ref = period;
}
);
width = 600;
},
{
associatedMasterId = m01;
layerId = "2743AE31-5E10-493A-AAF8-244AFE4C878D";
width = 554;
},
{
layerId = "E9FB66CC-5D7A-47B2-9A25-A0E8EEF5BB81";
width = 554;
}
);
unicode = 63;
userData = {
KernOnSpecialSpacing = {
L = "spaced-off";
};
};
},
{
glyphname = bullet;
layers = (
{
layerId = m01;
shapes = (
{
closed = 1;
nodes = (
(317,200,o),
(376,260,o),
(376,348,cs),
(376,436,o),
(317,496,o),
(230,496,cs),
(143,496,o),
(84,436,o),
(84,348,cs),
(84,260,o),
(143,200,o),
(230,200,cs)
);
}
);
width = 460;
},
{
associatedMasterId = m01;
layerId = "2743AE31-5E10-493A-AAF8-244AFE4C878D";
width = 530;
},
{
layerId = "E9FB66CC-5D7A-47B2-9A25-A0E8EEF5BB81";
shapes = (
{
closed = 1;
nodes = (
(317,200,o),
(376,260,o),
(376,348,cs),
(376,436,o),
(317,496,o),
(230,496,cs),
(143,496,o),
(84,436,o),
(84,348,cs),
(84,260,o),
(143,200,o),
(230,200,cs)
);
}
);
width = 460;
}
);
metricRight = "=|";
unicode = 8226;
userData = {
KernOnSpecialSpacing = {
L = NoKerning;
R = NoKerning;
};
};
},
{
glyphname = asterisk;
layers = (
{
associatedMasterId = m01;
layerId = "A3F85A9A-676C-4F69-A8BC-F50507D5C3AE";
name = "14 gen 23, 14:51";
shapes = (
{
closed = 1;
nodes = (
(352,432,l),
(352,492,l),
(338,582,l),
(352,672,l),
(352,732,l),
(284,732,l),
(284,672,l),
(298,582,l),
(284,492,l),
(284,432,l)
);
}
);
width = 600;
},
{
layerId = m01;
name = Regular;
shapes = (
{
closed = 1;
nodes = (
(312,481,l),
(276,529,l),
(237,568,l),
(293,577,l),
(348,596,l),
(327,661,l),
(271,642,l),
(221,617,l),
(230,672,l),
(230,732,l),
(162,732,l),
(162,672,l),
(171,617,l),
(121,643,l),
(65,660,l),
(44,596,l),
(100,578,l),
(155,569,l),
(115,529,l),
(80,481,l),
(136,440,l),
(171,489,l),
(196,538,l),
(221,489,l),
(257,440,l)
);
}
);
width = 392;
},
{
associatedMasterId = m01;
layerId = "2743AE31-5E10-493A-AAF8-244AFE4C878D";
width = 496;
},
{
layerId = "E9FB66CC-5D7A-47B2-9A25-A0E8EEF5BB81";
width = 496;
}
);
metricRight = "=|";
unicode = 42;
userData = {
KernOnSpecialSpacing = {
L = quotes;
R = quotes;
};
};
},
{
glyphname = numbersign;
layers = (
{
layerId = m01;
shapes = (
{
closed = 1;
nodes = (
(404,0,l),
(552,700,l),
(478,700,l),
(330,0,l)
);
},
{
closed = 1;
nodes = (
(566,182,l),
(580,250,l),
(44,250,l),
(30,182,l)
);
},
{
closed = 1;
nodes = (
(172,0,l),
(320,700,l),
(246,700,l),
(98,0,l)
);
},
{
closed = 1;
nodes = (
(608,452,l),
(622,520,l),
(86,520,l),
(72,452,l)
);
}
);
width = 652;
},
{
associatedMasterId = m01;
layerId = "2743AE31-5E10-493A-AAF8-244AFE4C878D";
width = 626;
},
{
layerId = "E9FB66CC-5D7A-47B2-9A25-A0E8EEF5BB81";
width = 626;
}
);
unicode = 35;
},
{
glyphname = slash;
layers = (
{
layerId = m01;
shapes = (
{
closed = 1;
nodes = (
(103,-115,l),
(424,712,l),
(338,712,l),
(16,-115,l)
);
}
);
width = 440;
},
{
associatedMasterId = m01;
layerId = "2743AE31-5E10-493A-AAF8-244AFE4C878D";
width = 520;
},
{
layerId = "E9FB66CC-5D7A-47B2-9A25-A0E8EEF5BB81";
width = 520;
}
);
metricRight = "=|";
unicode = 47;
userData = {
KernOnSpecialSpacing = {
L = slash;
R = slash;
};
};
},
{
glyphname = hyphen;
layers = (
{
layerId = m01;
shapes = (
{
closed = 1;
nodes = (
(332,232,l),
(332,312,l),
(60,312,l),
(60,232,l)
);
}
);
width = 392;
},
{
associatedMasterId = m01;
layerId = "2743AE31-5E10-493A-AAF8-244AFE4C878D";
width = 496;
},
{
layerId = "E9FB66CC-5D7A-47B2-9A25-A0E8EEF5BB81";
width = 496;
}
);
metricRight = "=|";
unicode = 45;
userData = {
KernOnName = hyphen;
KernOnSpecialSpacing = {
L = hyphen;
R = hyphen;
};
};
},
{
glyphname = endash;
layers = (
{
layerId = m01;
shapes = (
{
closed = 1;
nodes = (
(372,235,l),
(372,309,l),
(0,309,l),
(0,235,l)
);
}
);
width = 372;
},
{
associatedMasterId = m01;
layerId = "2743AE31-5E10-493A-AAF8-244AFE4C878D";
width = 486;
},
{
layerId = "E9FB66CC-5D7A-47B2-9A25-A0E8EEF5BB81";
width = 486;
}
);
unicode = 8211;
userData = {
KernOnSpecialSpacing = {
L = dashes;
R = dashes;
};
};
},
{
glyphname = emdash;
layers = (
{
layerId = m01;
shapes = (
{
closed = 1;
nodes = (
(952,235,l),
(952,309,l),
(0,309,l),
(0,235,l)
);
}
);
width = 952;
},
{
associatedMasterId = m01;
layerId = "2743AE31-5E10-493A-AAF8-244AFE4C878D";
width = 776;
},
{
layerId = "E9FB66CC-5D7A-47B2-9A25-A0E8EEF5BB81";
width = 776;
}
);
unicode = 8212;
userData = {
KernOnSpecialSpacing = {
L = dashes;
R = dashes;
};
};
},
{
glyphname = underscore;
layers = (
{
layerId = m01;
shapes = (
{
closed = 1;
nodes = (
(500,-191,l),
(500,-121,l),
(0,-121,l),
(0,-191,l)
);
}
);
width = 500;
},
{
associatedMasterId = m01;
layerId = "2743AE31-5E10-493A-AAF8-244AFE4C878D";
width = 550;
},
{
layerId = "E9FB66CC-5D7A-47B2-9A25-A0E8EEF5BB81";
width = 550;
}
);
unicode = 95;
userData = {
KernOnSpecialSpacing = {
L = underscore;
R = underscore;
};
};
},
{
glyphname = parenleft;
layers = (
{
layerId = m01;
shapes = (
{
closed = 1;
nodes = (
(268,-224,l),
(180,-102,o),
(128,72,o),
(128,248,cs),
(128,424,o),
(178,588,o),
(264,712,c),
(192,712,l),
(98,592,o),
(36,412,o),
(36,244,cs),
(36,80,o),
(98,-100,o),
(196,-224,c)
);
}
);
width = 268;
},
{
associatedMasterId = m01;
layerId = "2743AE31-5E10-493A-AAF8-244AFE4C878D";
width = 434;
},
{
layerId = "E9FB66CC-5D7A-47B2-9A25-A0E8EEF5BB81";
width = 434;
}
);
unicode = 40;
userData = {
KernOnSpecialSpacing = {
R = parenthesis;
};
};
},
{
glyphname = braceleft;
layers = (
{
layerId = m01;
shapes = (
{
closed = 1;
nodes = (
(256,-154,l),
(178,-179,o),
(136,-156,o),
(144,-94,cs),
(172,126,ls),
(181,199,o),
(150,244,o),
(88,244,c),
(88,236,l),
(150,236,o),
(181,281,o),
(172,354,cs),
(144,572,ls),
(136,634,o),
(178,657,o),
(256,632,c),
(264,698,l),
(126,738,o),
(46,689,o),
(60,574,cs),
(88,350,ls),
(94,304,o),
(72,276,o),
(28,276,cs),
(0,276,l),
(0,200,l),
(28,200,ls),
(72,200,o),
(94,176,o),
(88,130,cs),
(60,-96,ls),
(46,-211,o),
(126,-262,o),
(264,-222,c)
);
}
);
width = 280;
},
{
associatedMasterId = m01;
layerId = "2743AE31-5E10-493A-AAF8-244AFE4C878D";
width = 440;
},
{
layerId = "E9FB66CC-5D7A-47B2-9A25-A0E8EEF5BB81";
width = 440;
}
);
unicode = 123;
userData = {
KernOnSpecialSpacing = {
R = parenthesis;
};
};
},
{
glyphname = bracketleft;
layers = (
{
layerId = m01;
shapes = (
{
closed = 1;
nodes = (
(308,-224,l),
(308,-149,l),
(156,-149,l),
(168,-161,l),
(168,650,l),
(156,638,l),
(308,638,l),
(308,712,l),
(82,712,l),
(82,-224,l)
);
}
);
width = 324;
},
{
associatedMasterId = m01;
layerId = "2743AE31-5E10-493A-AAF8-244AFE4C878D";
width = 462;
},
{
layerId = "E9FB66CC-5D7A-47B2-9A25-A0E8EEF5BB81";
width = 462;
}
);
metricLeft = H;
unicode = 91;
userData = {
KernOnSpecialSpacing = {
L = NoKerning;
R = parenthesis;
};
};
},
{
glyphname = guillemetleft;
layers = (
{
layerId = m01;
shapes = (
{
closed = 1;
nodes = (
(284,142,l),
(84,268,l),
(84,256,l),
(282,378,l),
(282,468,l),
(32,302,l),
(32,222,l),
(284,52,l)
);
},
{
closed = 1;
nodes = (
(538,142,l),
(338,268,l),
(338,256,l),
(536,378,l),
(536,468,l),
(286,302,l),
(286,222,l),
(538,52,l)
);
}
);
width = 594;
},
{
associatedMasterId = m01;
layerId = "2743AE31-5E10-493A-AAF8-244AFE4C878D";
width = 597;
},
{
layerId = "E9FB66CC-5D7A-47B2-9A25-A0E8EEF5BB81";
width = 597;
}
);
metricLeft = guilsinglleft;
metricRight = guilsinglleft;
unicode = 171;
userData = {
KernOnSpecialSpacing = {
L = quotes;
R = quotes;
};
};
},
{
glyphname = guilsinglleft;
layers = (
{
layerId = m01;
shapes = (
{
closed = 1;
nodes = (
(312,144,l),
(92,268,l),
(92,256,l),
(310,376,l),
(310,468,l),
(32,300,l),
(32,224,l),
(312,52,l)
);
}
);
width = 368;
},
{
associatedMasterId = m01;
layerId = "2743AE31-5E10-493A-AAF8-244AFE4C878D";
width = 484;
},
{
layerId = "E9FB66CC-5D7A-47B2-9A25-A0E8EEF5BB81";
width = 484;
}
);
unicode = 8249;
userData = {
KernOnSpecialSpacing = {
L = quotes;
R = quotes;
};
};
},
{
glyphname = quotesingle;
layers = (
{
layerId = m01;
shapes = (
{
closed = 1;
nodes = (
(134,424,l),
(148,700,l),
(56,700,l),
(70,424,l)
);
}
);
width = 200;
},
{
associatedMasterId = m01;
layerId = "2743AE31-5E10-493A-AAF8-244AFE4C878D";
width = 400;
},
{
layerId = "E9FB66CC-5D7A-47B2-9A25-A0E8EEF5BB81";
width = 400;
}
);
unicode = 39;
userData = {
KernOnSpecialSpacing = {
L = quotes;
R = quotes;
};
};
},
{
color = 8;
glyphname = apple;
layers = (
{
associatedMasterId = m01;
layerId = "A52731E9-F5DA-41DA-B3E8-8B5DDB658555";
name = "16.10.21, 17:12";
shapes = (
{
closed = 1;
nodes = (
(720,0,l),
(720,84,l),
(366,84,ls),
(221,84,o),
(136,182,o),
(136,350,cs),
(136,527,o),
(216,630,o),
(354,630,cs),
(448,630,o),
(520,575,o),
(550,480,c),
(644,504,l),
(612,632,o),
(500,712,o),
(356,712,cs),
(164,712,o),
(40,572,o),
(40,354,cs),
(40,139,o),
(165,0,o),
(360,0,cs)
);
},
{
closed = 1;
nodes = (
(786,0,l),
(786,700,l),
(700,700,l),
(700,0,l)
);
},
{
closed = 1;
nodes = (
(1030,-12,o),
(1054,-8,o),
(1070,-4,c),
(1066,70,l),
(1058,68,o),
(1048,66,o),
(1036,66,cs),
(994,66,o),
(972,90,o),
(972,134,cs),
(972,664,l),
(888,628,l),
(888,488,l),
(886,488,l),
(886,140,ls),
(886,40,o),
(926,-12,o),
(1006,-12,cs)
);
},
{
closed = 1;
nodes = (
(1066,438,l),
(1066,508,l),
(766,508,l),
(766,438,l)
);
}
);
width = 1086;
},
{
layerId = m01;
name = Regular;
shapes = (
{
ref = C;
},
{
alignment = -1;
pos = (636,0);
ref = l;
},
{
pos = (808,0);
ref = t;
}
);
width = 1120;
},
{
associatedMasterId = m01;
layerId = "2743AE31-5E10-493A-AAF8-244AFE4C878D";
width = 860;
},
{
layerId = "E9FB66CC-5D7A-47B2-9A25-A0E8EEF5BB81";
width = 860;
}
);
metricLeft = O;
metricRight = t;
unicode = 63743;
},
{
glyphname = at;
layers = (
{
layerId = m01;
shapes = (
{
closed = 1;
nodes = (
(816,28,o),
(916,130,o),
(916,310,cs),
(916,551,o),
(746,712,o),
(491,712,cs),
(218,712,o),
(36,527,o),
(36,250,cs),
(36,-13,o),
(210,-188,o),
(472,-188,cs),
(578,-188,o),
(690,-158,o),
(752,-112,c),
(707,-40,l),
(651,-82,o),
(564,-107,o),
(478,-107,cs),
(254,-107,o),
(116,29,o),
(116,250,cs),
(116,486,o),
(259,631,o),
(491,631,cs),
(705,631,o),
(836,504,o),
(836,297,cs),
(836,152,o),
(776,94,o),
(708,94,cs),
(648,94,o),
(640,138,o),
(652,196,cs),
(716,498,l),
(632,498,l),
(606,378,l),
(618,378,l),
(622,454,o),
(560,508,o),
(476,508,cs),
(340,508,o),
(224,364,o),
(224,200,cs),
(224,92,o),
(282,28,o),
(380,28,cs),
(466,28,o),
(547,78,o),
(571,154,c),
(559,154,l),
(543,78,o),
(592,28,o),
(684,28,cs)
);
},
{
closed = 1;
nodes = (
(348,94,o),
(312,137,o),
(312,208,cs),
(312,332,o),
(392,440,o),
(488,440,cs),
(550,440,o),
(589,397,o),
(589,324,cs),
(589,200,o),
(510,94,o),
(412,94,cs)
);
}
);
width = 950;
},
{
associatedMasterId = m01;
layerId = "2743AE31-5E10-493A-AAF8-244AFE4C878D";
width = 775;
},
{
layerId = "E9FB66CC-5D7A-47B2-9A25-A0E8EEF5BB81";
width = 775;
}
);
metricRight = "=|-2";
unicode = 64;
userData = {
KernOnSpecialSpacing = {
L = symbols;
R = symbols;
};
};
},
{
glyphname = ampersand;
layers = (
{
layerId = m01;
shapes = (
{
closed = 1;
nodes = (
(656,36,l),
(636,95,o),
(589,162,o),
(524,220,cs),
(382,347,o),
(192,413,o),
(192,543,cs),
(192,603,o),
(233,640,o),
(300,640,cs),
(374,640,o),
(426,593,o),
(436,517,c),
(524,544,l),
(508,646,o),
(422,712,o),
(302,712,cs),
(181,712,o),
(100,646,o),
(100,548,cs),
(100,483,o),
(137,416,o),
(192,372,cs),
(428,184,ls),
(499,128,o),
(555,51,o),
(572,-14,c)
);
},
{
closed = 1;
nodes = (
(473,-12,o),
(608,132,o),
(620,348,c),
(532,364,l),
(528,177,o),
(438,62,o),
(290,62,cs),
(193,62,o),
(130,111,o),
(130,192,cs),
(130,260,o),
(176,316,o),
(252,340,c),
(208,372,l),
(105,350,o),
(36,273,o),
(36,178,cs),
(36,65,o),
(135,-12,o),
(278,-12,cs)
);
}
);
width = 676;
},
{
associatedMasterId = m01;
layerId = "2743AE31-5E10-493A-AAF8-244AFE4C878D";
width = 638;
},
{
layerId = "E9FB66CC-5D7A-47B2-9A25-A0E8EEF5BB81";
width = 638;
}
);
unicode = 38;
userData = {
KernOnSpecialSpacing = {
L = symbols;
R = symbols;
};
};
},
{
glyphname = paragraph;
layers = (
{
layerId = m01;
shapes = (
{
closed = 1;
nodes = (
(376,0,l),
(376,700,l),
(262,700,ls),
(120,700,o),
(26,619,o),
(26,498,cs),
(26,377,o),
(122,296,o),
(266,296,cs),
(300,296,l),
(300,0,l)
);
},
{
closed = 1;
nodes = (
(508,-224,l),
(508,700,l),
(432,700,l),
(432,-224,l)
);
}
);
width = 596;
},
{
associatedMasterId = m01;
layerId = "2743AE31-5E10-493A-AAF8-244AFE4C878D";
width = 598;
},
{
layerId = "E9FB66CC-5D7A-47B2-9A25-A0E8EEF5BB81";
width = 598;
}
);
unicode = 182;
userData = {
KernOnSpecialSpacing = {
L = NoKerning;
R = NoKerning;
};
};
},
{
color = 1;
glyphname = section;
layers = (
{
layerId = m01;
shapes = (
{
closed = 1;
nodes = (
(464,-236,o),
(564,-166,o),
(564,-60,cs),
(564,8,o),
(524,63,o),
(456,87,c),
(456,87,l),
(520,105,o),
(560,156,o),
(560,224,cs),
(560,444,o),
(152,389,o),
(152,548,cs),
(152,608,o),
(206,644,o),
(288,644,cs),
(377,644,o),
(440,593,o),
(452,516,c),
(546,538,l),
(528,642,o),
(425,712,o),
(290,712,cs),
(151,712,o),
(58,642,o),
(58,544,cs),
(58,481,o),
(96,427,o),
(162,403,c),
(162,403,l),
(94,381,o),
(54,326,o),
(54,258,cs),
(54,38,o),
(466,106,o),
(466,-66,cs),
(466,-128,o),
(409,-166,o),
(315,-166,cs),
(208,-166,o),
(136,-109,o),
(126,-16,c),
(28,-36,l),
(45,-156,o),
(160,-236,o),
(315,-236,cs)
);
},
{
closed = 1;
nodes = (
(363,124,l),
(319,138,ls),
(230,166,o),
(150,194,o),
(150,266,cs),
(150,326,o),
(203,364,o),
(290,366,c),
(255,366,l),
(304,352,ls),
(391,327,o),
(464,295,o),
(464,224,cs),
(464,164,o),
(413,126,o),
(330,124,c)
);
}
);
width = 608;
},
{
associatedMasterId = m01;
layerId = "F9E90A1B-520E-4CA1-9045-45539D4E7823";
name = "14 gen 23, 20:26";
shapes = (
{
closed = 1;
nodes = (
(468,-236,o),
(556,-170,o),
(556,-64,cs),
(556,12,o),
(513,56,o),
(455,87,c),
(455,79,l),
(517,107,o),
(552,157,o),
(552,224,cs),
(552,446,o),
(172,389,o),
(172,548,cs),
(172,605,o),
(220,644,o),
(296,644,cs),
(380,644,o),
(436,600,o),
(449,520,c),
(539,538,l),
(521,647,o),
(435,712,o),
(300,712,cs),
(166,712,o),
(84,650,o),
(84,548,cs),
(84,475,o),
(126,433,o),
(181,403,c),
(181,411,l),
(117,384,o),
(80,333,o),
(80,264,cs),
(80,39,o),
(464,106,o),
(464,-66,cs),
(464,-128,o),
(412,-166,o),
(324,-166,cs),
(220,-166,o),
(156,-112,o),
(146,-16,c),
(52,-32,l),
(68,-158,o),
(172,-236,o),
(324,-236,cs)
);
},
{
closed = 1;
nodes = (
(416,128,o),
(370,128,cs),
(321,128,o),
(170,170,o),
(170,267,cs),
(170,323,o),
(220,360,o),
(269,360,cs),
(321,360,o),
(462,318,o),
(462,221,cs),
(462,165,o)
);
}
);
width = 600;
},
{
associatedMasterId = m01;
layerId = "2743AE31-5E10-493A-AAF8-244AFE4C878D";
width = 604;
},
{
layerId = "E9FB66CC-5D7A-47B2-9A25-A0E8EEF5BB81";
width = 604;
}
);
note = "Storto? Controlla attacchi interrotti";
unicode = 167;
userData = {
KernOnSpecialSpacing = {
R = symbols;
};
};
},
{
color = 3;
glyphname = copyright;
layers = (
{
layerId = m01;
shapes = (
{
closed = 1;
nodes = (
(630,-12,o),
(776,136,o),
(776,350,cs),
(776,564,o),
(630,712,o),
(418,712,cs),
(206,712,o),
(60,564,o),
(60,350,cs),
(60,136,o),
(206,-12,o),
(418,-12,cs)
);
},
{
closed = 1;
nodes = (
(244,53,o),
(124,174,o),
(124,350,cs),
(124,526,o),
(244,647,o),
(418,647,cs),
(592,647,o),
(712,526,o),
(712,350,cs),
(712,174,o),
(592,53,o),
(418,53,cs)
);
},
{
closed = 1;
nodes = (
(504,160,o),
(564,208,o),
(578,284,c),
(516,300,l),
(508,245,o),
(473,212,o),
(422,212,cs),
(358,212,o),
(318,264,o),
(318,350,cs),
(318,434,o),
(358,486,o),
(422,486,cs),
(469,486,o),
(503,457,o),
(512,411,c),
(572,428,l),
(558,494,o),
(500,536,o),
(422,536,cs),
(318,536,o),
(250,462,o),
(250,348,cs),
(250,235,o),
(319,160,o),
(422,160,cs)
);
}
);
width = 836;
},
{
associatedMasterId = m01;
layerId = "2743AE31-5E10-493A-AAF8-244AFE4C878D";
width = 718;
},
{
layerId = "E9FB66CC-5D7A-47B2-9A25-A0E8EEF5BB81";
width = 718;
}
);
metricRight = "=|";
unicode = 169;
userData = {
KernOnSpecialSpacing = {
R = symbols;
};
};
},
{
glyphname = registered;
layers = (
{
layerId = m01;
shapes = (
{
closed = 1;
nodes = (
(630,-12,o),
(776,136,o),
(776,350,cs),
(776,564,o),
(630,712,o),
(418,712,cs),
(206,712,o),
(60,564,o),
(60,350,cs),
(60,136,o),
(206,-12,o),
(418,-12,cs)
);
},
{
closed = 1;
nodes = (
(244,53,o),
(124,174,o),
(124,350,cs),
(124,526,o),
(244,647,o),
(418,647,cs),
(592,647,o),
(712,526,o),
(712,350,cs),
(712,174,o),
(592,53,o),
(418,53,cs)
);
},
{
closed = 1;
nodes = (
(344,164,l),
(344,496,l),
(336,488,l),
(420,488,ls),
(457,488,o),
(480,466,o),
(480,430,cs),
(480,395,o),
(459,374,o),
(424,374,cs),
(327,374,l),
(327,326,l),
(404,326,ls),
(428,326,o),
(445,316,o),
(453,296,cs),
(508,164,l),
(584,164,l),
(508,316,ls),
(497,337,o),
(480,348,o),
(456,348,c),
(456,340,l),
(510,344,o),
(546,382,o),
(546,434,cs),
(546,495,o),
(499,536,o),
(428,536,cs),
(280,536,l),
(280,164,l)
);
}
);
width = 836;
},
{
associatedMasterId = m01;
layerId = "2743AE31-5E10-493A-AAF8-244AFE4C878D";
width = 718;
},
{
layerId = "E9FB66CC-5D7A-47B2-9A25-A0E8EEF5BB81";
width = 718;
}
);
metricLeft = copyright;
metricRight = copyright;
unicode = 174;
userData = {
KernOnSpecialSpacing = {
L = superiors;
};
};
},
{
glyphname = published;
layers = (
{
layerId = m01;
shapes = (
{
closed = 1;
nodes = (
(630,-12,o),
(776,136,o),
(776,350,cs),
(776,564,o),
(630,712,o),
(418,712,cs),
(206,712,o),
(60,564,o),
(60,350,cs),
(60,136,o),
(206,-12,o),
(418,-12,cs)
);
},
{
closed = 1;
nodes = (
(244,53,o),
(124,174,o),
(124,350,cs),
(124,526,o),
(244,647,o),
(418,647,cs),
(592,647,o),
(712,526,o),
(712,350,cs),
(712,174,o),
(592,53,o),
(418,53,cs)
);
},
{
closed = 1;
nodes = (
(370,164,l),
(370,496,l),
(362,488,l),
(448,488,ls),
(483,488,o),
(504,463,o),
(504,428,cs),
(504,392,o),
(482,366,o),
(446,366,cs),
(353,366,l),
(353,318,l),
(444,318,ls),
(520,318,o),
(570,362,o),
(570,428,cs),
(570,493,o),
(520,536,o),
(446,536,cs),
(306,536,l),
(306,164,l)
);
}
);
width = 836;
},
{
associatedMasterId = m01;
layerId = "2743AE31-5E10-493A-AAF8-244AFE4C878D";
width = 718;
},
{
layerId = "E9FB66CC-5D7A-47B2-9A25-A0E8EEF5BB81";
width = 718;
}
);
metricLeft = copyright;
metricRight = copyright;
unicode = 8471;
},
{
color = 3;
glyphname = trademark;
layers = (
{
layerId = m01;
shapes = (
{
closed = 1;
nodes = (
(179,350,l),
(179,652,l),
(105,652,l),
(105,350,l)
);
},
{
closed = 1;
nodes = (
(280,644,l),
(280,700,l),
(4,700,l),
(4,644,l)
);
},
{
closed = 1;
nodes = (
(382,350,l),
(382,604,l),
(468,350,l),
(524,350,l),
(608,606,l),
(608,350,l),
(680,350,l),
(680,700,l),
(584,700,l),
(494,432,l),
(502,432,l),
(410,700,l),
(316,700,l),
(316,350,l)
);
}
);
width = 728;
},
{
associatedMasterId = m01;
layerId = "2743AE31-5E10-493A-AAF8-244AFE4C878D";
width = 1018;
},
{
layerId = "E9FB66CC-5D7A-47B2-9A25-A0E8EEF5BB81";
shapes = (
{
closed = 1;
nodes = (
(200,350,l),
(200,622,l),
(92,622,l),
(92,350,l)
);
},
{
closed = 1;
nodes = (
(296,614,l),
(296,700,l),
(-4,700,l),
(-4,614,l)
);
},
{
closed = 1;
nodes = (
(424,350,l),
(424,564,l),
(502,350,l),
(554,350,l),
(628,568,l),
(628,350,l),
(732,350,l),
(732,700,l),
(604,700,l),
(536,508,l),
(464,700,l),
(328,700,l),
(328,350,l)
);
}
);
width = 768;
}
);
unicode = 8482;
userData = {
KernOnSpecialSpacing = {
L = superiors;
};
};
},
{
glyphname = degree;
layers = (
{
layerId = m01;
shapes = (
{
closed = 1;
nodes = (
(263,428,o),
(320,485,o),
(320,568,cs),
(320,651,o),
(263,708,o),
(180,708,cs),
(97,708,o),
(40,651,o),
(40,568,cs),
(40,485,o),
(97,428,o),
(180,428,cs)
);
},
{
closed = 1;
nodes = (
(137,494,o),
(108,524,o),
(108,569,cs),
(108,613,o),
(137,643,o),
(180,643,cs),
(223,643,o),
(252,613,o),
(252,569,cs),
(252,524,o),
(223,494,o),
(180,494,cs)
);
}
);
width = 360;
},
{
associatedMasterId = m01;
layerId = "2743AE31-5E10-493A-AAF8-244AFE4C878D";
width = 480;
},
{
layerId = "E9FB66CC-5D7A-47B2-9A25-A0E8EEF5BB81";
width = 480;
}
);
metricRight = "=|";
unicode = 176;
userData = {
KernOnSpecialSpacing = {
L = superiors;
};
};
},
{
glyphname = bar;
layers = (
{
layerId = m01;
shapes = (
{
closed = 1;
nodes = (
(162,-224,l),
(162,712,l),
(82,712,l),
(82,-224,l)
);
}
);
width = 244;
},
{
associatedMasterId = m01;
layerId = "2743AE31-5E10-493A-AAF8-244AFE4C878D";
width = 422;
},
{
layerId = "E9FB66CC-5D7A-47B2-9A25-A0E8EEF5BB81";
width = 422;
}
);
metricLeft = H;
metricRight = "=|";
unicode = 124;
userData = {
KernOnSpecialSpacing = {
L = NoKerning;
R = NoKerning;
};
};
},
{
glyphname = brokenbar;
layers = (
{
layerId = m01;
shapes = (
{
closed = 1;
nodes = (
(162,-224,l),
(162,148,l),
(82,148,l),
(82,-224,l)
);
},
{
closed = 1;
nodes = (
(162,352,l),
(162,712,l),
(82,712,l),
(82,352,l)
);
}
);
width = 244;
},
{
associatedMasterId = m01;
layerId = "2743AE31-5E10-493A-AAF8-244AFE4C878D";
width = 422;
},
{
layerId = "E9FB66CC-5D7A-47B2-9A25-A0E8EEF5BB81";
width = 422;
}
);
metricLeft = H;
metricRight = H;
unicode = 166;
},
{
glyphname = dagger;
layers = (
{
layerId = m01;
shapes = (
{
closed = 1;
nodes = (
(269,0,l),
(269,700,l),
(179,700,l),
(179,0,l)
);
},
{
closed = 1;
nodes = (
(428,448,l),
(428,524,l),
(20,524,l),
(20,448,l)
);
}
);
width = 448;
},
{
associatedMasterId = m01;
layerId = "2743AE31-5E10-493A-AAF8-244AFE4C878D";
width = 524;
},
{
layerId = "E9FB66CC-5D7A-47B2-9A25-A0E8EEF5BB81";
width = 524;
}
);
metricRight = "=|";
unicode = 8224;
},
{
glyphname = daggerdbl;
layers = (
{
layerId = m01;
shapes = (
{
closed = 1;
nodes = (
(275,0,l),
(275,700,l),
(185,700,l),
(185,0,l)
);
},
{
closed = 1;
nodes = (
(428,472,l),
(428,548,l),
(32,548,l),
(32,472,l)
);
},
{
closed = 1;
nodes = (
(430,160,l),
(430,238,l),
(30,238,l),
(30,160,l)
);
}
);
width = 460;
},
{
associatedMasterId = m01;
layerId = "2743AE31-5E10-493A-AAF8-244AFE4C878D";
width = 530;
},
{
layerId = "E9FB66CC-5D7A-47B2-9A25-A0E8EEF5BB81";
width = 530;
}
);
metricRight = "=|";
unicode = 8225;
},
{
glyphname = dagger.sups;
layers = (
{
layerId = m01;
shapes = (
{
closed = 1;
nodes = (
(182,432,l),
(182,732,l),
(116,732,l),
(116,432,l)
);
},
{
closed = 1;
nodes = (
(262,592,l),
(262,650,l),
(36,650,l),
(36,592,l)
);
}
);
width = 298;
},
{
associatedMasterId = m01;
layerId = "2743AE31-5E10-493A-AAF8-244AFE4C878D";
width = 449;
},
{
layerId = "E9FB66CC-5D7A-47B2-9A25-A0E8EEF5BB81";
width = 449;
}
);
metricRight = "=|";
},
{
glyphname = daggerdbl.sups;
layers = (
{
layerId = m01;
shapes = (
{
closed = 1;
nodes = (
(195,432,l),
(195,732,l),
(129,732,l),
(129,432,l)
);
},
{
closed = 1;
nodes = (
(271,615,l),
(271,672,l),
(53,672,l),
(53,615,l)
);
},
{
closed = 1;
nodes = (
(272,496,l),
(272,553,l),
(52,553,l),
(52,496,l)
);
}
);
width = 324;
},
{
associatedMasterId = m01;
layerId = "2743AE31-5E10-493A-AAF8-244AFE4C878D";
width = 462;
},
{
layerId = "E9FB66CC-5D7A-47B2-9A25-A0E8EEF5BB81";
width = 462;
}
);
metricRight = "=|";
},
{
glyphname = equivalence;
layers = (
{
layerId = m01;
shapes = (
{
closed = 1;
nodes = (
(532,395,l),
(532,472,l),
(48,472,l),
(48,395,l)
);
},
{
closed = 1;
nodes = (
(532,246,l),
(532,323,l),
(48,323,l),
(48,246,l)
);
},
{
closed = 1;
nodes = (
(532,96,l),
(532,174,l),
(48,174,l),
(48,96,l)
);
}
);
width = 580;
},
{
associatedMasterId = m01;
layerId = "2743AE31-5E10-493A-AAF8-244AFE4C878D";
width = 590;
},
{
layerId = "E9FB66CC-5D7A-47B2-9A25-A0E8EEF5BB81";
width = 590;
}
);
metricLeft = equal;
metricRight = equal;
unicode = 8801;
},
{
glyphname = plus;
layers = (
{
layerId = m01;
shapes = (
{
closed = 1;
nodes = (
(332,24,l),
(332,544,l),
(248,544,l),
(248,24,l)
);
},
{
closed = 1;
nodes = (
(540,245,l),
(540,323,l),
(40,323,l),
(40,245,l)
);
}
);
width = 580;
},
{
associatedMasterId = m01;
layerId = "2743AE31-5E10-493A-AAF8-244AFE4C878D";
width = 590;
},
{
layerId = "E9FB66CC-5D7A-47B2-9A25-A0E8EEF5BB81";
width = 590;
}
);
metricRight = "=|";
unicode = 43;
userData = {
KernOnSpecialSpacing = {
L = math;
R = math;
};
};
},
{
glyphname = minus;
layers = (
{
layerId = m01;
shapes = (
{
closed = 1;
nodes = (
(540,245,l),
(540,323,l),
(40,323,l),
(40,245,l)
);
}
);
width = 580;
},
{
associatedMasterId = m01;
layerId = "2743AE31-5E10-493A-AAF8-244AFE4C878D";
width = 590;
},
{
layerId = "E9FB66CC-5D7A-47B2-9A25-A0E8EEF5BB81";
width = 590;
}
);
metricLeft = plus;
metricRight = plus;
unicode = 8722;
userData = {
KernOnSpecialSpacing = {
L = math;
R = math;
};
};
},
{
glyphname = multiply;
layers = (
{
layerId = m01;
shapes = (
{
closed = 1;
nodes = (
(496,136,l),
(142,490,l),
(85,432,l),
(439,79,l)
);
},
{
closed = 1;
nodes = (
(495,432,l),
(438,490,l),
(84,136,l),
(141,79,l)
);
}
);
width = 580;
},
{
associatedMasterId = m01;
layerId = "2743AE31-5E10-493A-AAF8-244AFE4C878D";
width = 590;
},
{
layerId = "E9FB66CC-5D7A-47B2-9A25-A0E8EEF5BB81";
width = 590;
}
);
unicode = 215;
userData = {
KernOnSpecialSpacing = {
L = math;
R = math;
};
};
},
{
glyphname = divide;
layers = (
{
layerId = m01;
shapes = (
{
closed = 1;
nodes = (
(336,70,l),
(336,166,l),
(244,166,l),
(244,70,l)
);
},
{
closed = 1;
nodes = (
(336,400,l),
(336,496,l),
(244,496,l),
(244,400,l)
);
},
{
closed = 1;
nodes = (
(540,246,l),
(540,322,l),
(40,322,l),
(40,246,l)
);
}
);
width = 580;
},
{
associatedMasterId = m01;
layerId = "2743AE31-5E10-493A-AAF8-244AFE4C878D";
width = 590;
},
{
layerId = "E9FB66CC-5D7A-47B2-9A25-A0E8EEF5BB81";
width = 590;
}
);
metricLeft = plus;
metricRight = plus;
unicode = 247;
userData = {
KernOnSpecialSpacing = {
L = math;
R = math;
};
};
},
{
glyphname = equal;
layers = (
{
layerId = m01;
shapes = (
{
closed = 1;
nodes = (
(532,339,l),
(532,417,l),
(48,417,l),
(48,339,l)
);
},
{
closed = 1;
nodes = (
(532,151,l),
(532,229,l),
(48,229,l),
(48,151,l)
);
}
);
width = 580;
},
{
associatedMasterId = m01;
layerId = "2743AE31-5E10-493A-AAF8-244AFE4C878D";
width = 590;
},
{
layerId = "E9FB66CC-5D7A-47B2-9A25-A0E8EEF5BB81";
width = 590;
}
);
metricRight = "=|";
unicode = 61;
userData = {
KernOnSpecialSpacing = {
L = math;
R = math;
};
};
},
{
glyphname = notequal;
layers = (
{
layerId = m01;
shapes = (
{
closed = 1;
nodes = (
(467,468,l),
(411,510,l),
(112,100,l),
(168,58,l)
);
},
{
ref = equal;
}
);
width = 580;
},
{
associatedMasterId = m01;
layerId = "2743AE31-5E10-493A-AAF8-244AFE4C878D";
width = 590;
},
{
layerId = "E9FB66CC-5D7A-47B2-9A25-A0E8EEF5BB81";
width = 590;
}
);
metricLeft = equal;
metricRight = equal;
unicode = 8800;
},
{
glyphname = greater;
layers = (
{
layerId = m01;
shapes = (
{
closed = 1;
nodes = (
(540,237,l),
(540,313,l),
(48,548,l),
(48,459,l),
(440,275,l),
(48,90,l),
(48,0,l)
);
}
);
width = 580;
},
{
associatedMasterId = m01;
layerId = "2743AE31-5E10-493A-AAF8-244AFE4C878D";
width = 590;
},
{
layerId = "E9FB66CC-5D7A-47B2-9A25-A0E8EEF5BB81";
width = 590;
}
);
metricLeft = equal;
metricRight = plus;
unicode = 62;
userData = {
KernOnSpecialSpacing = {
L = math;
R = math;
};
};
},
{
glyphname = greaterequal;
layers = (
{
layerId = m01;
shapes = (
{
closed = 1;
nodes = (
(532,28,l),
(532,106,l),
(48,106,l),
(48,28,l)
);
},
{
closed = 1;
nodes = (
(532,306,l),
(532,378,l),
(48,548,l),
(48,464,l),
(412,342,l),
(48,218,l),
(48,134,l)
);
}
);
width = 580;
},
{
associatedMasterId = m01;
layerId = "2743AE31-5E10-493A-AAF8-244AFE4C878D";
width = 590;
},
{
layerId = "E9FB66CC-5D7A-47B2-9A25-A0E8EEF5BB81";
width = 590;
}
);
metricLeft = equal;
metricRight = equal;
unicode = 8805;
},
{
glyphname = plusminus;
layers = (
{
layerId = m01;
shapes = (
{
closed = 1;
nodes = (
(332,138,l),
(332,544,l),
(248,544,l),
(248,138,l)
);
},
{
closed = 1;
nodes = (
(532,301,l),
(532,379,l),
(48,379,l),
(48,301,l)
);
},
{
closed = 1;
nodes = (
(532,28,l),
(532,106,l),
(48,106,l),
(48,28,l)
);
}
);
width = 580;
},
{
associatedMasterId = m01;
layerId = "2743AE31-5E10-493A-AAF8-244AFE4C878D";
width = 590;
},
{
layerId = "E9FB66CC-5D7A-47B2-9A25-A0E8EEF5BB81";
width = 590;
}
);
metricLeft = equal;
metricRight = equal;
unicode = 177;
userData = {
KernOnSpecialSpacing = {
L = math;
R = math;
};
};
},
{
glyphname = approxequal;
layers = (
{
layerId = m01;
shapes = (
{
closed = 1;
nodes = (
(467,306,o),
(523,352,o),
(532,420,c),
(460,438,l),
(452,403,o),
(427,382,o),
(392,382,cs),
(328,382,o),
(284,450,o),
(188,450,cs),
(113,450,o),
(57,405,o),
(48,338,c),
(120,318,l),
(128,353,o),
(153,374,o),
(188,374,cs),
(252,374,o),
(296,306,o),
(392,306,cs)
);
},
{
closed = 1;
nodes = (
(467,118,o),
(523,164,o),
(532,232,c),
(460,250,l),
(452,215,o),
(427,194,o),
(392,194,cs),
(328,194,o),
(284,262,o),
(188,262,cs),
(113,262,o),
(57,217,o),
(48,150,c),
(120,130,l),
(128,165,o),
(153,186,o),
(188,186,cs),
(252,186,o),
(296,118,o),
(392,118,cs)
);
}
);
width = 580;
},
{
associatedMasterId = m01;
layerId = "2743AE31-5E10-493A-AAF8-244AFE4C878D";
width = 590;
},
{
layerId = "E9FB66CC-5D7A-47B2-9A25-A0E8EEF5BB81";
width = 590;
}
);
unicode = 8776;
userData = {
KernOnSpecialSpacing = {
L = math;
R = math;
};
};
},
{
glyphname = asciitilde;
layers = (
{
layerId = m01;
shapes = (
{
closed = 1;
nodes = (
(463,200,o),
(521,255,o),
(536,338,c),
(464,356,l),
(456,309,o),
(429,280,o),
(392,280,cs),
(327,280,o),
(280,368,o),
(188,368,cs),
(118,368,o),
(60,314,o),
(44,232,c),
(116,212,l),
(124,259,o),
(151,288,o),
(188,288,cs),
(253,288,o),
(300,200,o),
(392,200,cs)
);
}
);
width = 580;
},
{
associatedMasterId = m01;
layerId = "2743AE31-5E10-493A-AAF8-244AFE4C878D";
width = 590;
},
{
layerId = "E9FB66CC-5D7A-47B2-9A25-A0E8EEF5BB81";
width = 590;
}
);
unicode = 126;
userData = {
KernOnSpecialSpacing = {
L = math;
R = math;
};
};
},
{
glyphname = logicalnot;
layers = (
{
layerId = m01;
shapes = (
{
closed = 1;
nodes = (
(536,139,l),
(536,323,l),
(40,323,l),
(40,245,l),
(460,245,l),
(452,253,l),
(452,139,l)
);
}
);
width = 580;
},
{
associatedMasterId = m01;
layerId = "2743AE31-5E10-493A-AAF8-244AFE4C878D";
width = 590;
},
{
layerId = "E9FB66CC-5D7A-47B2-9A25-A0E8EEF5BB81";
width = 590;
}
);
metricLeft = plus;
unicode = 172;
},
{
glyphname = asciicircum;
layers = (
{
layerId = m01;
shapes = (
{
closed = 1;
nodes = (
(152,280,l),
(298,608,l),
(444,280,l),
(536,280,l),
(336,700,l),
(260,700,l),
(60,280,l)
);
}
);
width = 596;
},
{
associatedMasterId = m01;
layerId = "2743AE31-5E10-493A-AAF8-244AFE4C878D";
width = 598;
},
{
layerId = "E9FB66CC-5D7A-47B2-9A25-A0E8EEF5BB81";
width = 598;
}
);
metricRight = "=|";
unicode = 94;
userData = {
KernOnSpecialSpacing = {
L = math;
R = math;
};
};
},
{
glyphname = micro;
layers = (
{
layerId = m01;
shapes = (
{
closed = 1;
nodes = (
(154,-224,l),
(154,112,l),
(142,112,l),
(146,38,o),
(206,-12,o),
(292,-12,cs),
(387,-12,o),
(455,49,o),
(462,140,c),
(450,140,l),
(450,76,o),
(456,32,o),
(468,0,c),
(550,0,l),
(540,36,o),
(536,80,o),
(536,128,cs),
(536,548,l),
(448,548,l),
(448,260,ls),
(448,137,o),
(389,62,o),
(294,62,cs),
(207,62,o),
(154,119,o),
(154,212,cs),
(154,548,l),
(66,548,l),
(66,-224,l)
);
}
);
width = 604;
},
{
associatedMasterId = m01;
layerId = "2743AE31-5E10-493A-AAF8-244AFE4C878D";
width = 602;
},
{
layerId = "E9FB66CC-5D7A-47B2-9A25-A0E8EEF5BB81";
width = 602;
}
);
metricLeft = idotless;
unicode = 181;
},
{
glyphname = downBlackTriangle;
layers = (
{
layerId = m01;
shapes = (
{
closed = 1;
nodes = (
(291,-22,o),
(305,-22,o),
(312,-8,cs),
(569,524,ls),
(576,538,o),
(569,548,o),
(554,548,cs),
(42,548,ls),
(27,548,o),
(20,538,o),
(27,524,cs),
(284,-8,ls)
);
}
);
width = 596;
},
{
associatedMasterId = m01;
layerId = "2743AE31-5E10-493A-AAF8-244AFE4C878D";
width = 598;
},
{
layerId = "E9FB66CC-5D7A-47B2-9A25-A0E8EEF5BB81";
width = 598;
}
);
metricRight = "=|";
unicode = 9660;
},
{
glyphname = dieresiscomb;
layers = (
{
anchors = (
{
name = _top;
pos = (0,548);
}
);
layerId = m01;
shapes = (
{
closed = 1;
nodes = (
(124,638,l),
(124,726,l),
(36,726,l),
(36,638,l)
);
},
{
closed = 1;
nodes = (
(-36,638,l),
(-36,726,l),
(-124,726,l),
(-124,638,l)
);
}
);
width = 0;
},
{
associatedMasterId = m01;
layerId = "2743AE31-5E10-493A-AAF8-244AFE4C878D";
width = 300;
},
{
layerId = "E9FB66CC-5D7A-47B2-9A25-A0E8EEF5BB81";
width = 300;
}
);
unicode = 776;
userData = {
KernOnSpecialSpacing = {
L = NoKerning;
R = NoKerning;
};
};
},
{
glyphname = dotaccentcomb;
layers = (
{
anchors = (
{
name = _top;
pos = (0,548);
}
);
layerId = m01;
shapes = (
{
closed = 1;
nodes = (
(47,636,l),
(47,732,l),
(-47,732,l),
(-47,636,l)
);
}
);
width = 0;
},
{
anchors = (
{
name = _top;
pos = (150,548);
}
);
associatedMasterId = m01;
layerId = "2743AE31-5E10-493A-AAF8-244AFE4C878D";
shapes = (
{
closed = 1;
nodes = (
(220,616,l),
(220,754,l),
(81,754,l),
(81,616,l)
);
}
);
width = 300;
},
{
anchors = (
{
name = _top;
pos = (150,548);
}
);
layerId = "E9FB66CC-5D7A-47B2-9A25-A0E8EEF5BB81";
shapes = (
{
closed = 1;
nodes = (
(220,616,l),
(220,754,l),
(81,754,l),
(81,616,l)
);
}
);
width = 300;
}
);
unicode = 775;
userData = {
KernOnSpecialSpacing = {
L = NoKerning;
R = NoKerning;
};
};
},
{
glyphname = gravecomb;
layers = (
{
anchors = (
{
name = _top;
pos = (0,548);
}
);
layerId = m01;
shapes = (
{
closed = 1;
nodes = (
(72,610,l),
(-32,764,l),
(-132,764,l),
(0,610,l)
);
}
);
width = 0;
},
{
associatedMasterId = m01;
layerId = "2743AE31-5E10-493A-AAF8-244AFE4C878D";
width = 300;
},
{
layerId = "E9FB66CC-5D7A-47B2-9A25-A0E8EEF5BB81";
width = 300;
}
);
unicode = 768;
userData = {
KernOnSpecialSpacing = {
L = NoKerning;
R = NoKerning;
};
};
},
{
glyphname = acutecomb;
layers = (
{
anchors = (
{
name = _top;
pos = (0,548);
}
);
layerId = m01;
shapes = (
{
closed = 1;
nodes = (
(18,610,l),
(150,764,l),
(50,764,l),
(-54,610,l)
);
}
);
width = 0;
},
{
associatedMasterId = m01;
layerId = "2743AE31-5E10-493A-AAF8-244AFE4C878D";
width = 300;
},
{
layerId = "E9FB66CC-5D7A-47B2-9A25-A0E8EEF5BB81";
width = 300;
}
);
unicode = 769;
userData = {
KernOnSpecialSpacing = {
L = NoKerning;
R = NoKerning;
};
};
},
{
glyphname = hungarumlautcomb;
layers = (
{
anchors = (
{
name = _top;
pos = (0,548);
}
);
layerId = m01;
shapes = (
{
closed = 1;
nodes = (
(82,610,l),
(190,764,l),
(98,764,l),
(18,610,l)
);
},
{
closed = 1;
nodes = (
(-42,610,l),
(62,764,l),
(-28,764,l),
(-108,610,l)
);
}
);
width = 0;
},
{
associatedMasterId = m01;
layerId = "2743AE31-5E10-493A-AAF8-244AFE4C878D";
width = 300;
},
{
layerId = "E9FB66CC-5D7A-47B2-9A25-A0E8EEF5BB81";
width = 300;
}
);
unicode = 779;
userData = {
KernOnSpecialSpacing = {
L = NoKerning;
R = NoKerning;
};
};
},
{
glyphname = caroncomb.alt;
layers = (
{
anchors = (
{
name = _topright;
pos = (0,548);
}
);
layerId = m01;
shapes = (
{
closed = 1;
nodes = (
(119,570,l),
(143,744,l),
(62,744,l),
(60,570,l)
);
}
);
width = 0;
},
{
associatedMasterId = m01;
layerId = "2743AE31-5E10-493A-AAF8-244AFE4C878D";
width = 300;
},
{
layerId = "E9FB66CC-5D7A-47B2-9A25-A0E8EEF5BB81";
width = 300;
}
);
userData = {
KernOnSpecialSpacing = {
L = NoKerning;
R = NoKerning;
};
};
},
{
glyphname = circumflexcomb;
layers = (
{
anchors = (
{
name = _top;
pos = (0,548);
}
);
layerId = m01;
shapes = (
{
closed = 1;
nodes = (
(-80,610,l),
(0,716,l),
(78,610,l),
(154,610,l),
(47,764,l),
(-47,764,l),
(-158,610,l)
);
}
);
width = 0;
},
{
associatedMasterId = m01;
layerId = "2743AE31-5E10-493A-AAF8-244AFE4C878D";
width = 300;
},
{
layerId = "E9FB66CC-5D7A-47B2-9A25-A0E8EEF5BB81";
width = 300;
}
);
unicode = 770;
userData = {
KernOnSpecialSpacing = {
L = NoKerning;
R = NoKerning;
};
};
},
{
glyphname = caroncomb;
layers = (
{
anchors = (
{
name = _top;
pos = (0,548);
}
);
layerId = m01;
shapes = (
{
closed = 1;
nodes = (
(48,610,l),
(156,764,l),
(74,764,l),
(1,660,l),
(-78,764,l),
(-158,764,l),
(-48,610,l)
);
}
);
width = 0;
},
{
anchors = (
{
name = _top;
pos = (300,548);
}
);
associatedMasterId = m01;
layerId = "7776529D-2D56-43AA-8763-E08D3679F810";
name = "13 mar 22, 21:39";
shapes = (
{
closed = 1;
nodes = (
(347,570,l),
(456,726,l),
(380,726,l),
(300,616,l),
(220,726,l),
(144,726,l),
(251,570,l)
);
}
);
width = 600;
},
{
associatedMasterId = m01;
layerId = "2743AE31-5E10-493A-AAF8-244AFE4C878D";
width = 300;
},
{
layerId = "E9FB66CC-5D7A-47B2-9A25-A0E8EEF5BB81";
width = 300;
}
);
unicode = 780;
userData = {
KernOnSpecialSpacing = {
L = NoKerning;
R = NoKerning;
};
};
},
{
glyphname = brevecomb;
layers = (
{
anchors = (
{
name = _top;
pos = (0,548);
}
);
layerId = m01;
shapes = (
{
closed = 1;
nodes = (
(74,610,o),
(122,658,o),
(122,742,c),
(58,742,l),
(58,693,o),
(36,670,o),
(0,670,cs),
(-36,670,o),
(-58,693,o),
(-58,742,c),
(-122,742,l),
(-122,658,o),
(-74,610,o),
(0,610,cs)
);
}
);
width = 0;
},
{
associatedMasterId = m01;
layerId = "2743AE31-5E10-493A-AAF8-244AFE4C878D";
width = 300;
},
{
layerId = "E9FB66CC-5D7A-47B2-9A25-A0E8EEF5BB81";
width = 300;
}
);
unicode = 774;
userData = {
KernOnSpecialSpacing = {
L = NoKerning;
R = NoKerning;
};
};
},
{
glyphname = ringcomb;
layers = (
{
anchors = (
{
name = _top;
pos = (0,548);
}
);
layerId = m01;
shapes = (
{
closed = 1;
nodes = (
(58,606,o),
(100,640,o),
(100,688,cs),
(100,736,o),
(58,770,o),
(0,770,cs),
(-58,770,o),
(-100,736,o),
(-100,688,cs),
(-100,640,o),
(-58,606,o),
(0,606,cs)
);
},
{
closed = 1;
nodes = (
(-27,644,o),
(-44,661,o),
(-44,688,cs),
(-44,715,o),
(-27,732,o),
(0,732,cs),
(27,732,o),
(44,715,o),
(44,688,cs),
(44,661,o),
(27,644,o),
(0,644,cs)
);
}
);
width = 0;
},
{
associatedMasterId = m01;
layerId = "2743AE31-5E10-493A-AAF8-244AFE4C878D";
width = 300;
},
{
layerId = "E9FB66CC-5D7A-47B2-9A25-A0E8EEF5BB81";
width = 300;
}
);
unicode = 778;
userData = {
KernOnSpecialSpacing = {
L = NoKerning;
R = NoKerning;
};
};
},
{
glyphname = tildecomb;
layers = (
{
anchors = (
{
name = _top;
pos = (0,548);
}
);
layerId = m01;
shapes = (
{
closed = 1;
nodes = (
(118,632,o),
(156,668,o),
(164,723,c),
(114,734,l),
(110,710,o),
(92,692,o),
(66,692,cs),
(23,692,o),
(-7,742,o),
(-68,742,cs),
(-118,742,o),
(-156,706,o),
(-164,652,c),
(-114,640,l),
(-110,664,o),
(-92,682,o),
(-66,682,cs),
(-23,682,o),
(7,632,o),
(68,632,cs)
);
}
);
width = 0;
},
{
associatedMasterId = m01;
layerId = "2743AE31-5E10-493A-AAF8-244AFE4C878D";
width = 300;
},
{
layerId = "E9FB66CC-5D7A-47B2-9A25-A0E8EEF5BB81";
width = 300;
}
);
unicode = 771;
userData = {
KernOnSpecialSpacing = {
L = NoKerning;
R = NoKerning;
};
};
},
{
glyphname = macroncomb;
layers = (
{
anchors = (
{
name = _top;
pos = (0,548);
}
);
layerId = m01;
shapes = (
{
closed = 1;
nodes = (
(140,636,l),
(140,700,l),
(-140,700,l),
(-140,636,l)
);
}
);
width = 0;
},
{
associatedMasterId = m01;
layerId = "2743AE31-5E10-493A-AAF8-244AFE4C878D";
width = 300;
},
{
layerId = "E9FB66CC-5D7A-47B2-9A25-A0E8EEF5BB81";
width = 300;
}
);
unicode = 772;
userData = {
KernOnSpecialSpacing = {
L = NoKerning;
R = NoKerning;
};
};
},
{
glyphname = commaaccentcomb;
layers = (
{
anchors = (
{
name = _bottom;
}
);
layerId = m01;
shapes = (
{
closed = 1;
nodes = (
(8,-144,l),
(8,-182,o),
(-14,-206,o),
(-52,-208,c),
(-38,-244,l),
(13,-235,o),
(46,-195,o),
(46,-144,cs),
(46,-56,l),
(-46,-56,l),
(-46,-144,l)
);
}
);
width = 0;
},
{
associatedMasterId = m01;
layerId = "2743AE31-5E10-493A-AAF8-244AFE4C878D";
width = 300;
},
{
layerId = "E9FB66CC-5D7A-47B2-9A25-A0E8EEF5BB81";
width = 300;
}
);
unicode = 806;
userData = {
KernOnSpecialSpacing = {
L = NoKerning;
R = NoKerning;
};
};
},
{
glyphname = cedillacomb;
layers = (
{
anchors = (
{
name = _bottom;
}
);
layerId = m01;
shapes = (
{
closed = 1;
nodes = (
(92,-224,o),
(92,-152,cs),
(92,-104,o),
(48,-68,o),
(-12,-60,c),
(-4,-76,l),
(32,0,l),
(-24,0,l),
(-68,-88,l),
(-12,-96,o),
(24,-112,o),
(24,-140,cs),
(24,-170,o),
(-20,-188,o),
(-108,-156,c),
(-120,-216,l),
(-4,-260,o)
);
}
);
width = 0;
},
{
anchors = (
{
name = _bottom;
pos = (300,0);
}
);
associatedMasterId = m01;
layerId = "91F6E1BD-D762-4945-B955-8C768176043D";
name = "13 nov 22, 11:52";
shapes = (
{
closed = 1;
nodes = (
(335,-209,o),
(393,-183,o),
(393,-127,cs),
(393,-80,o),
(350,-49,o),
(277,-59,c),
(296,-79,l),
(340,6,l),
(271,6,l),
(222,-90,l),
(295,-94,o),
(322,-106,o),
(322,-130,cs),
(322,-154,o),
(294,-157,o),
(272,-157,cs),
(255,-157,o),
(237,-155,o),
(215,-148,c),
(203,-201,l),
(225,-206,o),
(249,-209,o),
(270,-209,cs)
);
}
);
width = 600;
},
{
associatedMasterId = m01;
layerId = "2743AE31-5E10-493A-AAF8-244AFE4C878D";
width = 300;
},
{
layerId = "E9FB66CC-5D7A-47B2-9A25-A0E8EEF5BB81";
width = 300;
}
);
unicode = 807;
userData = {
KernOnSpecialSpacing = {
L = NoKerning;
R = NoKerning;
};
};
},
{
glyphname = ogonekcomb;
layers = (
{
anchors = (
{
name = _ogonek;
}
);
layerId = m01;
shapes = (
{
closed = 1;
nodes = (
(-36,-260,o),
(56,-216,c),
(40,-160,l),
(-16,-192,o),
(-64,-172,o),
(-64,-124,cs),
(-64,-85,o),
(-35,-42,o),
(12,-12,c),
(-36,0,l),
(-96,-37,o),
(-136,-94,o),
(-136,-148,cs),
(-136,-232,o)
);
}
);
width = 0;
},
{
anchors = (
{
name = _ogonek;
pos = (331,0);
}
);
associatedMasterId = m01;
layerId = "6C543756-81C4-47A3-928A-C9D1AE5DFAAC";
name = "13 nov 22, 11:11";
shapes = (
{
closed = 1;
nodes = (
(370,-143,o),
(356,-146,o),
(340,-146,cs),
(303,-146,o),
(269,-130,o),
(269,-94,cs),
(269,-69,o),
(286,-39,o),
(335,-10,c),
(274,-10,l),
(239,-28,o),
(198,-62,o),
(198,-112,cs),
(198,-184,o),
(264,-206,o),
(331,-206,cs),
(353,-206,o),
(376,-203,o),
(396,-198,c),
(384,-139,l)
);
}
);
width = 600;
},
{
associatedMasterId = m01;
layerId = "2743AE31-5E10-493A-AAF8-244AFE4C878D";
width = 300;
},
{
layerId = "E9FB66CC-5D7A-47B2-9A25-A0E8EEF5BB81";
width = 300;
}
);
unicode = 808;
userData = {
KernOnSpecialSpacing = {
L = NoKerning;
R = NoKerning;
};
};
},
{
glyphname = dieresiscomb.case;
layers = (
{
anchors = (
{
name = _top;
pos = (0,548);
}
);
layerId = m01;
shapes = (
{
closed = 1;
nodes = (
(128,628,l),
(128,720,l),
(36,720,l),
(36,628,l)
);
},
{
closed = 1;
nodes = (
(-36,628,l),
(-36,720,l),
(-128,720,l),
(-128,628,l)
);
}
);
width = 0;
},
{
associatedMasterId = m01;
layerId = "2743AE31-5E10-493A-AAF8-244AFE4C878D";
width = 300;
},
{
layerId = "E9FB66CC-5D7A-47B2-9A25-A0E8EEF5BB81";
width = 300;
}
);
},
{
glyphname = dotaccentcomb.case;
layers = (
{
anchors = (
{
name = _top;
pos = (0,548);
}
);
layerId = m01;
shapes = (
{
closed = 1;
nodes = (
(49,626,l),
(49,726,l),
(-49,726,l),
(-49,626,l)
);
}
);
width = 0;
},
{
associatedMasterId = m01;
layerId = "2743AE31-5E10-493A-AAF8-244AFE4C878D";
width = 300;
},
{
layerId = "E9FB66CC-5D7A-47B2-9A25-A0E8EEF5BB81";
width = 300;
}
);
},
{
glyphname = gravecomb.case;
layers = (
{
anchors = (
{
name = _top;
pos = (0,548);
}
);
layerId = m01;
shapes = (
{
closed = 1;
nodes = (
(50,602,l),
(-48,728,l),
(-158,728,l),
(-26,602,l)
);
}
);
width = 0;
},
{
associatedMasterId = m01;
layerId = "2743AE31-5E10-493A-AAF8-244AFE4C878D";
width = 300;
},
{
layerId = "E9FB66CC-5D7A-47B2-9A25-A0E8EEF5BB81";
width = 300;
}
);
},
{
glyphname = acutecomb.case;
layers = (
{
anchors = (
{
name = _top;
pos = (0,548);
}
);
layerId = m01;
shapes = (
{
closed = 1;
nodes = (
(20,602,l),
(152,728,l),
(44,728,l),
(-56,602,l)
);
}
);
width = 0;
},
{
associatedMasterId = m01;
layerId = "2743AE31-5E10-493A-AAF8-244AFE4C878D";
width = 300;
},
{
layerId = "E9FB66CC-5D7A-47B2-9A25-A0E8EEF5BB81";
width = 300;
}
);
},
{
glyphname = hungarumlautcomb.case;
layers = (
{
anchors = (
{
name = _top;
pos = (0,548);
}
);
layerId = m01;
shapes = (
{
closed = 1;
nodes = (
(82,602,l),
(190,728,l),
(100,728,l),
(14,602,l)
);
},
{
closed = 1;
nodes = (
(-42,602,l),
(62,728,l),
(-26,728,l),
(-110,602,l)
);
}
);
width = 0;
},
{
associatedMasterId = m01;
layerId = "2743AE31-5E10-493A-AAF8-244AFE4C878D";
width = 300;
},
{
layerId = "E9FB66CC-5D7A-47B2-9A25-A0E8EEF5BB81";
width = 300;
}
);
},
{
glyphname = circumflexcomb.case;
layers = (
{
anchors = (
{
name = _top;
pos = (0,548);
}
);
layerId = m01;
shapes = (
{
closed = 1;
nodes = (
(-78,602,l),
(0,680,l),
(76,602,l),
(160,602,l),
(51,728,l),
(-51,728,l),
(-164,602,l)
);
}
);
width = 0;
},
{
associatedMasterId = m01;
layerId = "2743AE31-5E10-493A-AAF8-244AFE4C878D";
width = 300;
},
{
layerId = "E9FB66CC-5D7A-47B2-9A25-A0E8EEF5BB81";
width = 300;
}
);
},
{
glyphname = caroncomb.case;
layers = (
{
anchors = (
{
name = _top;
pos = (0,548);
}
);
layerId = m01;
shapes = (
{
closed = 1;
nodes = (
(52,602,l),
(162,728,l),
(74,728,l),
(1,650,l),
(-78,728,l),
(-164,728,l),
(-52,602,l)
);
}
);
width = 0;
},
{
associatedMasterId = m01;
layerId = "2743AE31-5E10-493A-AAF8-244AFE4C878D";
width = 300;
},
{
layerId = "E9FB66CC-5D7A-47B2-9A25-A0E8EEF5BB81";
width = 300;
}
);
},
{
glyphname = brevecomb.case;
layers = (
{
anchors = (
{
name = _top;
pos = (0,548);
}
);
layerId = m01;
shapes = (
{
closed = 1;
nodes = (
(78,600,o),
(128,649,o),
(128,724,c),
(62,724,l),
(62,684,o),
(39,660,o),
(0,660,cs),
(-39,660,o),
(-62,684,o),
(-62,724,c),
(-128,724,l),
(-128,649,o),
(-78,600,o),
(0,600,cs)
);
}
);
width = 0;
},
{
associatedMasterId = m01;
layerId = "2743AE31-5E10-493A-AAF8-244AFE4C878D";
width = 300;
},
{
layerId = "E9FB66CC-5D7A-47B2-9A25-A0E8EEF5BB81";
width = 300;
}
);
},
{
glyphname = ringcomb.case;
layers = (
{
anchors = (
{
name = _top;
pos = (0,548);
}
);
layerId = m01;
shapes = (
{
closed = 1;
nodes = (
(64,598,o),
(104,629,o),
(104,679,cs),
(104,729,o),
(64,760,o),
(0,760,cs),
(-64,760,o),
(-104,729,o),
(-104,679,cs),
(-104,629,o),
(-64,598,o),
(0,598,cs)
);
},
{
closed = 1;
nodes = (
(-25,636,o),
(-42,653,o),
(-42,678,cs),
(-42,703,o),
(-25,720,o),
(0,720,cs),
(25,720,o),
(42,703,o),
(42,678,cs),
(42,653,o),
(25,636,o),
(0,636,cs)
);
}
);
width = 0;
},
{
associatedMasterId = m01;
layerId = "2743AE31-5E10-493A-AAF8-244AFE4C878D";
width = 300;
},
{
layerId = "E9FB66CC-5D7A-47B2-9A25-A0E8EEF5BB81";
width = 300;
}
);
},
{
glyphname = tildecomb.case;
layers = (
{
anchors = (
{
name = _top;
pos = (0,548);
}
);
layerId = m01;
shapes = (
{
closed = 1;
nodes = (
(122,626,o),
(164,660,o),
(172,712,c),
(120,728,l),
(114,703,o),
(94,686,o),
(68,686,cs),
(24,686,o),
(-6,730,o),
(-68,730,cs),
(-122,730,o),
(-164,696,o),
(-172,644,c),
(-120,628,l),
(-114,653,o),
(-94,670,o),
(-68,670,cs),
(-24,670,o),
(6,626,o),
(68,626,cs)
);
}
);
width = 0;
},
{
anchors = (
{
name = _top;
pos = (300,548);
}
);
associatedMasterId = m01;
layerId = "8809C107-976A-4CD4-89BD-164B36AA9433";
name = "14 gen 23, 22:05";
shapes = (
{
closed = 1;
nodes = (
(184,612,l),
(187,646,o),
(210,669,o),
(241,668,cs),
(287,666,o),
(297,619,o),
(362,616,cs),
(418,614,o),
(456,663,o),
(466,731,c),
(407,731,l),
(403,699,o),
(388,677,o),
(357,678,cs),
(308,679,o),
(296,727,o),
(235,729,cs),
(178,731,o),
(132,685,o),
(125,612,c)
);
}
);
width = 600;
},
{
associatedMasterId = m01;
layerId = "2743AE31-5E10-493A-AAF8-244AFE4C878D";
width = 300;
},
{
layerId = "E9FB66CC-5D7A-47B2-9A25-A0E8EEF5BB81";
width = 300;
}
);
},
{
glyphname = macroncomb.case;
layers = (
{
anchors = (
{
name = _top;
pos = (0,548);
}
);
layerId = m01;
shapes = (
{
closed = 1;
nodes = (
(146,626,l),
(146,692,l),
(-146,692,l),
(-146,626,l)
);
}
);
width = 0;
},
{
associatedMasterId = m01;
layerId = "2743AE31-5E10-493A-AAF8-244AFE4C878D";
width = 300;
},
{
layerId = "E9FB66CC-5D7A-47B2-9A25-A0E8EEF5BB81";
width = 300;
}
);
},
